<svg width="708" height="421" viewBox="0 0 708 421" fill="none" xmlns="http://www.w3.org/2000/svg" xmlns:xlink="http://www.w3.org/1999/xlink">
<rect width="708" height="421" rx="15" fill="#F5F5F5"/>
<rect width="708" height="421" rx="15" fill="url(#pattern0_355_3)" fill-opacity="0.1"/>
<defs>
<pattern id="pattern0_355_3" patternUnits="userSpaceOnUse" patternTransform="matrix(83.9022 0 0 126.589 -0.580078 0)" preserveAspectRatio="none" viewBox="-1.81274 0 262.194 395.592" width="1" height="1">
<use xlink:href="#pattern0_355_3_inner" transform="translate(-262.194 0)"/>
<g id="pattern0_355_3_inner">
<path d="M61.7909 0.860799C61.9866 1.3495 61.7346 1.94987 61.4002 2.37976C61.2965 2.51485 60.878 2.41544 60.7872 2.50575C60.6101 2.68298 60.8049 2.8702 60.5945 3.04132C60.5227 3.09641 59.859 2.96865 59.7992 3.02693C59.4757 3.34777 59.617 3.68485 59.4394 4.02023C58.5529 5.66719 58.0888 7.25593 57.2317 9.13919C57.0544 9.52203 56.6633 9.91127 56.3408 10.3601C56.1843 10.527 56.0777 10.7083 56.099 10.9303C56.106 10.997 56.6648 11.1882 56.7055 11.217C57.328 11.6599 56.2486 11.1549 56.0585 11.2021C55.3083 11.3872 55.0671 11.8408 55.1123 12.3404C55.1336 12.5523 56.2917 12.8105 55.6099 12.7449C55.5637 12.7408 55.0003 12.4634 54.9189 12.4872C54.736 12.5401 54.7555 12.793 54.675 12.8607C54.5166 12.9906 54.5117 13.0197 54.4411 13.1765C54.3396 13.3885 53.9459 13.5326 53.9786 13.826C53.9872 13.8896 54.6091 14.0651 54.6758 14.1899C54.7428 14.3139 54.5995 14.5165 54.4277 14.534C54.2564 14.5507 53.8054 14.3217 53.6933 14.29C52.7499 14.0158 53.8815 14.8046 53.8952 14.856C54.058 15.4112 53.6954 15.7202 53.342 16.019C53.1399 16.2061 52.9408 16.3818 52.8161 16.6023C52.5467 17.0832 52.4451 17.7057 52.1241 18.0984C51.7395 18.5641 51.1652 18.7344 50.8629 19.1929C50.83 19.2412 51.4541 19.6711 51.4139 19.7323C51.0534 20.2789 50.5879 20.7232 49.9312 20.946C49.7429 21.0549 49.5478 21.1436 49.3489 21.2111C49.2248 21.2509 48.9008 20.6543 48.7577 20.6577C47.8414 20.727 46.6414 19.8974 47.6225 22.6295C47.2023 22.7156 46.7225 22.7902 46.2281 22.3552C45.9129 22.0737 45.8365 21.3324 45.7296 21.6994C45.7045 21.7813 45.982 22.3534 45.9253 22.4322C45.6813 22.7646 45.2806 22.6753 45.0762 23.0751C45.0346 23.158 45.209 23.6972 45.2198 23.8002C45.2954 24.6386 44.6846 23.3906 44.6126 23.3072C44.0382 22.6964 43.8541 23.043 43.5291 23.1082C43.4548 23.1227 43.7308 23.8372 43.6668 23.8774C43.5244 23.9621 43.3799 24.0151 43.2364 24.0289C42.9628 24.069 42.6759 24.033 42.3852 23.9013C42.2728 23.8484 42.2142 23.1968 42.1539 23.1389C41.8954 22.8897 42.1151 24.0946 41.8676 23.8769C41.8164 23.8323 41.725 23.2846 41.7052 23.2265C41.4003 22.3132 41.5782 23.6598 41.5529 23.6954C41.2593 24.1705 40.7734 22.8203 40.4712 23.0741C40.4341 23.106 40.6429 23.783 40.5302 23.8305C39.7784 24.1506 38.9215 24.0642 38.116 23.581C37.9911 23.5067 38.0217 22.9736 38.0077 22.9097C37.7904 21.9107 37.8482 23.2722 37.8139 23.327C37.6112 23.6297 37.3432 23.0493 37.1999 23.4894C37.1552 23.6248 37.1209 23.8566 37.101 24.2404C35.7667 23.7779 34.5332 24.7216 33.2798 23.2796C33.2641 23.2629 33.2871 22.5924 33.256 22.562C32.8815 22.1878 32.9606 23.229 32.7097 24.5034C32.6453 24.8233 32.4559 23.2847 32.4406 23.1719C32.3811 22.7562 32.4477 21.7592 32.4277 21.6786C32.2648 21.0461 32.2759 24.3441 32.0428 24.3435C32.0356 24.3379 32.0707 23.7312 32.0519 23.6707C31.9935 23.4807 31.932 23.7214 31.8755 23.5119C31.7457 23.027 31.72 21.4242 31.5061 22.3539C31.4786 22.4746 31.4914 24.3458 31.2859 24.2541C31.2044 24.2161 30.8396 24.2411 30.7404 24.1173C30.6416 23.994 30.7254 23.3929 30.7187 23.3666C30.467 22.5633 30.5779 22.2354 30.4751 21.0523C30.3747 19.8735 30.3344 22.6775 30.2701 22.9888C30.2055 23.2992 30.0273 22.6359 29.9859 22.4058C29.9447 22.1756 30.0173 21.7947 29.9786 21.6639C29.7237 20.8094 29.8074 23.0509 29.6974 23.4925C29.4357 24.5378 29.3341 22.4528 29.1437 22.241C29.0915 22.1837 29.1163 22.6588 29.0651 22.701C28.8609 22.8616 28.7771 22.2083 28.5261 22.7918C28.4858 22.8869 28.2401 24.1265 28.1722 23.204C28.1628 23.071 28.2369 22.556 28.1603 22.4356C28.044 22.255 27.8309 22.1294 27.6875 22.2942C27.5808 22.4161 27.6425 23.2754 27.5334 23.0029C27.4854 22.8813 27.6185 22.3891 27.5265 22.2021C27.4361 22.0155 27.1733 22.0201 27.0724 22.0302C26.9723 22.0408 26.9807 22.6907 26.9696 22.7337C26.9042 22.9797 26.6866 23.277 26.6686 23.2748C25.7855 23.2862 25.1044 22.1288 24.1959 22.3609C24.1217 22.3775 24.0662 23.0599 24.0538 23.0694C23.7645 23.3141 24.2337 21.5495 24.1786 20.9249C23.9781 22.2965 23.9157 22.0328 23.7252 22.1523C23.6281 22.2098 23.5728 22.7454 23.5554 22.798C23.288 23.5036 23.3539 22.6905 23.3928 22.3795C23.3965 22.3493 23.3997 22.3238 23.4019 22.3047C23.4954 21.5144 23.2181 22.4122 23.2812 21.8839C23.3442 21.3597 23.6216 20.6226 23.4753 20.6009C23.3288 21.0767 23.1602 22.3671 23.0046 22.5482C22.4094 23.2325 21.8398 22.0596 21.5294 21.8775C21.217 21.6956 21.0863 21.7582 20.9327 21.5368C20.6564 21.1364 20.5579 22.1023 20.2325 22.476C19.9068 22.8494 20.5797 20.5773 20.6701 20.0755C20.761 19.5741 20.6019 20.0741 20.6311 19.7933C20.6606 19.5126 20.825 19.1969 20.7621 19.0732C20.7002 18.9499 20.2373 19.7669 20.0757 20.2749C19.7339 21.3512 19.5559 22.5263 19.4191 22.0633C19.4116 22.036 19.6075 21.4435 19.5712 21.3694C19.2698 20.7994 18.8519 20.6616 18.5421 20.1465C18.4999 20.0748 18.7195 19.4161 18.6967 19.3668C18.4583 18.8505 18.2981 20.0139 17.8025 21.2274C18.2564 19.5618 18.4052 18.5103 18.1368 18.4357C17.9761 18.3907 17.831 19.131 17.6094 19.625C17.5437 19.7741 17.5467 19.244 17.4484 19.5854C17.1303 20.7018 16.9474 21.9892 16.8121 21.4313C16.8063 21.405 16.9739 20.7922 16.9437 20.7465C16.7452 20.448 16.4746 21.6297 16.212 21.7314C16.0714 21.7862 15.9341 21.4412 15.784 21.1716C15.7068 21.0448 15.6238 20.9332 15.5501 20.886C15.7834 18.9596 15.4798 19.3719 15.2397 20.6917C15.0791 20.6189 14.8955 20.6757 14.7516 20.4752C14.7022 20.4069 14.7955 19.8516 14.7946 19.7905C14.7833 18.8323 14.5782 20.1199 14.5374 20.1672C14.0991 20.6223 13.8691 19.6101 13.4042 20.5358C13.3877 20.5692 13.2435 21.9095 13.2324 20.9203C13.2319 20.8521 13.4112 20.2526 13.2389 20.1894C13.0648 20.1259 12.7946 19.3765 12.4921 19.977C12.4193 20.1215 12.1726 21.1983 12.1258 20.3361C12.1197 20.2191 12.1709 19.8355 12.1661 19.6192C12.1496 18.9297 11.9906 20.2834 12.0019 19.1226C12.0129 17.9619 11.902 17.0823 11.5833 17.8563C11.5733 17.8788 11.4216 18.9495 11.3443 18.9257C11.2213 18.8868 11.0623 18.6474 10.9309 18.6431C10.8678 18.6415 10.8504 19.3129 10.8385 19.3242C10.3843 19.6622 10.135 19.0407 9.70577 18.7428C9.62751 18.6868 9.30894 19.5767 9.21173 18.8423C9.10611 18.0384 9.57811 14.7759 9.10824 15.521C8.91985 15.819 8.33202 19.959 8.23793 17.7772C8.18185 17.8209 8.12757 17.8511 8.07481 17.8705L8.10156 17.8737C7.55798 18.0395 7.17929 17.132 6.57405 17.7604C6.54404 17.7909 6.32561 18.9387 6.2681 18.9159C6.18261 18.8799 6.19709 18.3331 6.1374 18.2901C5.88918 18.0961 5.59239 18.5317 5.34335 18.4311C5.24858 18.394 5.34512 17.838 5.23161 17.7938C5.11836 17.7501 4.95903 18.4787 4.84055 18.1052C4.7509 17.8206 4.79833 16.3006 4.66034 16.1075C4.48945 17.5931 4.38394 17.5505 4.14708 17.9211C4.10121 17.993 4.08302 18.5147 4.05828 18.5754C3.95606 18.8339 3.93838 18.3977 3.83717 18.6801C3.81254 18.7479 3.75384 19.2552 3.73035 19.3392C3.52814 20.0732 3.46736 18.9096 3.45884 18.7071C3.42258 17.938 3.2856 18.5906 3.22529 18.2819C3.16537 17.9734 3.35341 17.6196 3.26413 17.4259C3.08064 17.0254 2.77942 17.0699 2.55294 17.0149C2.46188 16.996 2.43062 17.6799 2.41543 17.6929C2.19677 17.8371 2.11338 17.0914 1.79797 18.4165C2.20872 14.9267 1.62835 18.7355 1.4561 17.9933C1.44225 17.9332 1.70413 16.2936 1.82154 16.0665C1.93759 15.8393 1.97156 16.371 2.14052 16.0128C2.18209 15.9292 2.55885 14.4128 2.59031 14.3221C2.84285 13.6149 2.51408 16.074 2.50362 16.2102C2.39432 17.6803 2.81446 16.0459 2.87537 15.9371C3.16524 15.4404 3.31012 15.8101 3.5434 15.4569C3.69584 15.2288 3.89966 13.6163 3.98841 13.6769C4.28213 13.8771 4.14235 16.1429 4.66832 14.2238C4.78077 13.8144 4.912 12.0418 4.99301 13.4562C4.99798 13.5453 5.03368 14.8349 5.22531 14.0429C5.2494 13.943 5.3058 13.4284 5.3276 13.3871C5.47205 13.12 5.5037 13.5384 5.65033 13.3559C5.7974 13.1734 5.9817 12.8976 6.1076 13.0884C6.18342 13.2025 6.18831 14.1737 6.20333 14.413C6.24445 15.1023 6.49873 14.0088 6.47824 14.8357C6.45675 15.6666 6.16958 16.899 6.29872 17.4525C6.46149 16.1174 6.638 14.7481 6.80687 13.406C7.23563 13.5039 7.61464 13.9885 8.06976 13.9896C8.12658 13.9884 8.16583 13.2641 8.22988 13.2445C8.4254 13.1873 8.56062 13.4537 8.73102 13.5452L8.48475 13.5157C8.54325 13.5469 8.60617 13.5515 8.67757 13.5007C8.87583 13.3568 9.1461 12.6128 9.35578 12.438C9.33408 13.9814 9.66852 13.4868 9.86506 13.6453C9.93394 13.7002 9.89299 14.1092 9.93347 14.2474C10.0875 14.7588 10.1138 13.3958 10.1864 13.1874C10.4973 12.2976 10.2496 15.3661 10.5313 15.3142C10.5462 15.3125 10.8656 13.6931 10.8989 13.5934C11.112 12.943 10.8755 14.1646 10.9626 14.2938C11.1217 14.53 11.2121 14.9311 11.463 14.4703C11.5365 14.3337 11.7706 13.3273 11.8221 14.1258C11.8289 14.2303 11.7737 14.77 11.7835 14.8027C11.9657 15.3498 12.1189 13.6525 12.299 13.0887C12.4797 12.5251 12.5804 13.7147 12.5925 14.0561C12.6247 14.9393 12.4771 14.4223 12.4642 14.5076C12.3074 15.5223 12.4698 15.3593 12.5752 15.4554C12.4467 17.1215 12.6119 17.0352 12.6845 15.5482C12.6922 15.3858 12.5912 15.5334 12.5752 15.4554C12.8156 13.8306 13.0093 13.6367 13.0669 15.1798C13.094 15.9031 12.935 16.7294 13.2345 16.4485C13.3706 16.3218 13.425 15.1715 13.5621 14.8689C13.8782 14.1786 14.1091 15.2773 14.3852 15.1334C14.486 15.0812 14.4523 14.4455 14.5234 14.3882C14.7118 14.2343 14.8198 14.7194 15.0196 14.4957C15.0377 14.4747 15.0633 13.8147 15.1188 13.8117C15.5443 13.7769 15.8678 14.2344 16.3316 14.3004C16.4151 14.3123 16.5356 14.2761 16.6624 14.2322C16.9195 14.1649 17.2028 14.0827 17.3723 14.1574C17.8547 14.3619 18.1874 15.4142 18.5756 15.2648C18.8332 15.1713 18.9334 14.5179 19.1336 14.1035C19.5263 13.3013 19.4705 14.8942 19.451 15.1384C19.4508 15.1465 19.2322 15.2527 19.2477 15.6052C19.1343 16.3037 19.4483 15.1409 19.451 15.1384C19.4408 15.2964 19.7556 15.5296 19.8542 15.4247C19.9079 15.3672 20.0404 14.7562 20.0656 14.7377C20.6658 14.3129 21.1419 14.2709 21.5115 14.6646C21.5163 14.6788 21.3349 15.3538 21.3478 15.3786C21.5258 15.7435 21.8976 14.9548 22.2229 14.512C22.5525 14.0704 22.6703 14.2736 22.514 15.4698C22.7048 15.3603 22.806 15.9294 22.8647 16.2736C22.9223 16.6176 23.2476 15.2965 23.2652 15.273C23.8142 14.5168 23.8383 15.3208 24.1832 15.5219C24.3294 15.6102 24.6622 15.5225 24.8912 15.4279C24.8978 15.4144 24.905 15.4013 24.9124 15.3886C24.9783 15.2798 24.9701 15.6026 25.0909 15.416C25.1072 15.3911 25.1935 14.7914 25.2008 14.769C25.4016 14.0674 25.1294 15.5232 25.1088 15.7878C25.0437 16.7507 25.0351 17.2677 25.2675 16.8424C25.3266 16.7457 25.7002 14.6441 25.7808 14.5282C25.889 14.3818 25.7649 15.1367 25.881 14.9637C25.8909 14.9496 25.9421 14.481 25.9985 14.5082C26.2611 14.6284 26.5607 14.9326 26.8793 14.9118C26.9228 14.9108 26.9299 14.161 26.9933 14.1472C27.289 14.0827 27.6071 14.1336 27.8786 14.5019C27.9445 14.5949 27.8661 15.1145 27.8717 15.2707C27.9094 16.2157 28.135 14.8602 28.1587 14.8355C28.7359 14.2117 29.0954 15.4676 29.6861 14.9014C29.7197 14.8682 30.0057 13.4125 30.0667 14.6718C30.0705 14.7556 30.1337 16.0442 30.255 15.1685C30.2624 15.1137 30.2183 14.4501 30.3294 14.521C30.4404 14.5918 30.6332 14.1551 30.7708 14.886C30.8135 15.1162 30.9028 16.4013 31.074 15.3823C31.0872 15.3113 31.3559 13.0046 31.4077 14.6005C31.4161 14.8632 31.3744 16.5506 31.5661 15.6881C31.6023 15.5209 31.5468 15.1436 31.6388 14.9098C31.7786 14.5495 31.9536 15.0035 32.125 14.253C32.1556 14.1202 32.2834 12.9755 32.3759 13.8454C32.3906 13.9816 32.3588 14.545 32.4105 14.6082C32.6573 14.9117 32.9138 14.5346 33.1664 14.9228C33.2559 15.0592 33.217 15.9704 33.3127 16.2137C33.4076 16.457 33.6026 16.6896 33.6944 16.2719C33.7855 15.8541 33.6592 14.4041 33.799 14.2857C34.4026 13.7711 35.0239 14.6036 35.6192 14.6967C35.7063 14.7106 35.6076 14.1958 35.7309 14.179C35.9308 14.1507 36.1837 14.032 36.4246 13.9938C36.7739 13.9414 37.1299 14.0233 37.4226 14.6183C37.8432 15.4617 37.5034 16.1762 37.798 16.5056C37.9444 16.662 37.878 14.97 37.8981 14.9141C38.107 14.345 38.3919 15.0611 38.6033 14.7986C38.646 14.7443 38.4985 14.0745 38.5349 14.0359C38.6567 13.898 38.8486 14.177 38.9703 14.1002C39.0243 14.0642 38.9268 13.5507 38.9854 13.5817C39.125 13.6496 39.2699 13.8467 39.4819 14.305C39.5019 14.3466 39.5456 14.9999 39.6452 15.0055C39.8034 15.0134 40.0953 15.4469 40.1559 14.9222C40.1736 14.7645 39.9089 13.6003 40.1929 14.381C40.2516 14.544 40.5578 15.9454 40.3882 14.7119C40.3686 14.505 40.1262 12.8432 40.4793 13.8631C40.4844 13.8776 40.4904 13.8945 40.497 13.9136C40.641 14.2402 41.0167 15.2168 41.0583 15.0255C41.0635 14.9937 40.8491 14.3869 40.911 14.3059C41.1313 14.0317 41.4033 14.0334 41.5751 13.7812C41.62 13.7129 41.3666 13.0929 41.4375 13.0118C41.6325 12.7879 41.9196 12.8851 42.1399 13.0368C42.2216 13.094 42.3361 13.6334 42.3571 13.6896C42.7093 14.6003 42.3726 13.3295 42.3688 13.2505C42.359 12.7735 42.63 13.3331 42.6594 13.149C42.6658 13.1005 42.4359 12.5176 42.4208 12.4637C42.2652 11.9394 42.6302 13.0038 42.6984 13.1106C42.8922 13.4129 42.9378 13.3382 42.9173 13.2591C42.9083 13.2298 42.5938 12.5752 42.5834 12.5593C42.5128 12.4536 42.3272 12.6259 42.3184 13.1595C42.3191 13.26 42.7172 13.6553 42.7915 13.7599C43.3401 14.4658 42.427 13.6549 42.3024 13.6169C42.297 13.6142 42.2916 13.6115 42.2863 13.609C42.0127 13.1685 42.3969 13.4647 42.4084 13.3185C42.454 12.5978 43.0851 12.3503 43.4917 12.1322C43.9124 11.9101 44.4035 11.8434 44.5837 11.6398C44.647 11.5503 44.695 11.4473 44.7228 11.3248C44.7326 11.2849 44.0414 11.0068 44.0405 10.9695C44.0564 10.5107 44.5249 10.1429 44.5509 9.50463C44.5543 9.4527 43.8737 9.25453 43.8571 9.16249C43.8178 8.9731 43.9316 8.79232 44.205 8.71516C44.3367 8.67807 44.857 9.00686 44.9782 8.96458C45.2626 8.8645 45.3889 8.68369 45.3617 8.44754C45.3487 8.34641 44.6289 8.20338 44.6644 8.09233C44.8887 7.34208 45.0757 6.55619 46.2115 6.15108C46.2229 6.15574 46.2345 6.16032 46.2463 6.16481C46.3049 6.19087 47.6706 6.72487 47.4227 6.58583C47.043 6.43969 46.595 6.27136 46.1882 6.11763C46.052 5.84079 46.7551 5.11468 46.962 4.26377C46.9708 4.22768 46.1936 4.17074 46.2064 4.10177C46.2798 3.69924 46.1178 3.27357 46.9334 2.91023C47.0132 2.87371 48.3698 3.04115 48.1783 2.88281C48.1434 2.85543 47.9825 2.63007 47.6918 2.55072C47.6479 2.53957 47.0095 2.51622 46.997 2.45032C46.9353 2.06746 47.1102 1.6886 47.5211 1.33639C47.5886 1.28 48.263 1.38351 48.317 1.34305C48.6952 1.04656 48.1934 0.688926 48.8164 0.422106C49.2356 0.243278 50.408 0.332565 51.5653 0.239226C51.7287 0.226486 51.7557 0.0946378 52.428 0.0907989C54.119 0.078201 55.97 0.164419 57.7725 0.143995C58.161 0.138464 57.7432 -0.0950111 58.6811 0.044341C58.744 0.052929 59.0544 0.231824 59.372 0.278432C59.5917 0.310648 60.2761 0.263484 60.5571 0.329066C60.8377 0.39551 60.2635 0.457582 60.5924 0.566826C60.9252 0.675205 61.7043 0.645621 61.7909 0.860799ZM23.131 17.8115C23.1104 18.4769 23.6574 16.1474 23.3984 16.6756C23.3852 16.7039 23.1317 17.7788 23.131 17.8115ZM7.38655 15.7804C7.42515 16.8492 7.74498 15.3262 7.72571 14.5017C7.70325 13.6778 7.37318 15.4563 7.38655 15.7804ZM5.52219 16.3374C5.62706 17.1863 6.03558 13.8179 5.74632 14.4758C5.72965 14.5129 5.516 16.2881 5.52219 16.3374ZM51.8815 0.780349C51.9134 0.779518 51.9475 0.682027 51.9161 0.679006C51.1581 0.604931 51.0906 0.794098 51.8815 0.780349ZM3.70707 16.9782C3.71473 17.4412 3.95071 16.9351 3.94072 16.3594C3.93342 15.8964 3.69845 16.4023 3.70707 16.9782ZM29.187 21.0738C29.1875 21.1095 29.2604 21.1447 29.2671 20.9432C29.2885 20.2944 29.1787 20.4732 29.187 21.0738ZM1.23771 18.537C0.820246 18.1827 2.15277 15.7092 2.22454 16.1062C2.2669 16.1926 1.66883 16.8247 1.63675 17.0929C1.5979 17.5914 2.50752 16.078 2.26667 17.0121C2.22265 17.1831 1.2557 18.5612 1.23525 18.5401C1.23607 18.5391 1.23689 18.538 1.23771 18.537ZM22.5656 20.6304C22.5619 20.662 22.6551 20.7139 22.6645 20.6838C22.886 19.9551 22.6986 19.8502 22.5656 20.6304ZM33.5567 22.6228C33.5633 22.6902 33.8094 22.7501 33.8163 22.6878C33.9237 21.4441 33.4355 21.3193 33.5567 22.6228ZM15.5521 20.8342C15.3553 21.5805 15.221 21.656 15.2401 20.6927C15.3407 20.755 15.4497 20.7748 15.5521 20.8342Z" fill="#0037FF"/>
<path d="M4.01368 15.0411C4.03129 14.8233 4.27895 15.1679 4.45162 15.5501C4.50813 15.6704 4.32384 16.0552 4.35965 16.1571C4.43219 16.3565 4.62043 16.2001 4.69225 16.4299C4.71603 16.5083 4.45302 17.1292 4.48382 17.197C4.58615 17.4156 4.73945 17.4751 4.8952 17.5329C5.03497 17.5826 5.17932 17.6336 5.31493 17.7369C6.78117 18.8715 8.68955 19.7974 10.5238 21.572C10.5097 21.6008 10.5537 21.6726 10.6178 21.7538C10.8206 22.0144 11.0565 22.861 11.6586 22.8924C11.7298 22.8959 11.9851 22.3631 12.0194 22.3266C12.5459 21.7688 11.9104 22.7772 11.9439 22.9768C12.0772 23.7653 12.5651 24.0923 13.1242 24.139C13.3638 24.1578 13.7334 23.025 13.6119 23.708C13.604 23.7543 13.2539 24.2764 13.2747 24.364C13.3222 24.5613 13.6052 24.5895 13.6755 24.6852C13.8093 24.8723 13.8422 24.8834 14.0118 24.9864C14.2415 25.1325 14.3699 25.5631 14.6991 25.5903C14.7705 25.5946 15.0194 24.9969 15.1636 24.9544C15.3081 24.9122 15.5199 25.1005 15.5245 25.2799C15.528 25.4585 15.2332 25.87 15.1879 25.9777C14.796 26.8803 15.7725 25.8942 15.8318 25.8923C16.3019 25.8581 16.5951 26.0983 16.8452 26.4134C16.8929 26.5937 16.9212 26.8466 17.0821 26.9272C17.3215 27.0458 17.715 26.9278 18.0227 27.0631C18.3888 27.227 18.689 27.6659 19.1736 27.7207C19.2246 27.7272 19.3417 26.9793 19.4035 26.9854C19.8684 27.0313 20.3409 27.1579 20.7939 27.4614C20.9756 27.5835 21.1377 27.7303 21.3075 27.9137C21.3652 27.9781 21.147 28.6101 21.1973 28.7133C21.5023 29.331 21.961 30.7463 22.7092 27.9481C22.9671 28.1082 23.2919 28.2808 23.4513 28.8954C23.5591 29.2918 23.2838 29.9788 23.5366 29.7071C23.5929 29.6465 23.6325 29.0128 23.7087 28.969C24.0351 28.7861 24.3219 29.037 24.6637 28.7572C24.7338 28.6989 24.7998 28.1361 24.8316 28.0376C25.0913 27.2409 25.1364 28.6276 25.1771 28.7339C25.4784 29.5266 25.8235 29.2829 26.2499 29.3757C26.3492 29.398 26.3629 28.6276 26.4659 28.6227C26.998 28.6072 27.6384 28.812 28.1587 29.3444C28.2711 29.464 27.9362 30.0344 27.9759 30.122C28.1328 30.4961 28.6371 29.3786 28.8173 29.7417C28.8529 29.8162 28.599 30.3108 28.5849 30.3711C28.3415 31.3083 29.0284 30.1355 29.0898 30.132C29.1273 30.1252 29.162 30.1234 29.194 30.126C29.5939 30.0942 29.2433 31.32 29.6378 31.3062C29.6884 31.3032 29.9148 30.6313 30.0382 30.6614C30.8614 30.8582 31.5758 31.4395 32.05 32.3354C32.1238 32.4737 31.7899 32.8925 31.7663 32.9536C31.3967 33.9088 32.1232 32.7551 32.1862 32.7312C32.663 32.5723 32.3699 33.7178 33.3783 32.428C33.4889 32.5644 33.6079 32.6855 33.7331 32.7961C34.9471 33.7991 36.5465 34.5109 36.4353 36.5057C36.434 36.5321 35.8749 36.9035 35.8735 36.9531C35.8412 37.552 36.6257 36.8582 37.9083 36.4969C38.2387 36.4195 37.0628 37.4549 36.9691 37.5207C36.6477 37.7967 35.7369 38.2116 35.6797 38.274C35.2136 38.7393 38.1067 37.1458 38.2836 37.5057C38.2834 37.5182 37.7147 37.7357 37.6732 37.789C37.5407 37.9515 37.7984 37.9358 37.643 38.1031C37.6117 38.1359 37.5723 38.1708 37.5268 38.207C37.0397 38.5806 35.8831 39.0911 36.7574 38.9956C36.8815 38.9838 38.6195 38.2834 38.6323 38.5857C38.6375 38.7061 38.8159 39.159 38.7344 39.3183C38.655 39.4778 38.0509 39.5598 38.0286 39.5767C37.3542 40.1168 37.0002 40.0823 35.9018 40.5387C34.8029 40.9803 37.5035 40.2254 37.8234 40.2115C38.1429 40.1988 37.5626 40.5894 37.3528 40.6956C37.1437 40.8039 36.7551 40.8266 36.6408 40.9045C35.8916 41.4096 38.0284 40.7238 38.4873 40.7319C39.5756 40.7622 37.5888 41.4135 37.4356 41.6758C37.3945 41.7483 37.8477 41.6016 37.9025 41.6477C38.1135 41.8328 37.5031 42.0895 38.135 42.2207C38.2379 42.2415 39.5047 42.2073 38.6278 42.5082C38.5013 42.551 37.9824 42.5962 37.8857 42.7094C37.7405 42.8786 37.6748 43.1439 37.8722 43.2582C38.0181 43.3425 38.8349 43.0635 38.5992 43.2476C38.4939 43.3294 37.982 43.3086 37.8251 43.4546C37.6681 43.5998 37.7426 43.8827 37.7798 43.9882C37.8173 44.0936 38.443 43.9158 38.4876 43.9166C38.7432 43.9242 39.0888 44.0734 39.0914 44.0915C39.1468 44.2916 39.1451 44.4972 39.1154 44.7053C39.0739 45.7915 38.4092 46.6449 38.4144 47.5699C38.413 47.6665 39.0825 47.8138 39.089 47.8307C39.2511 48.2524 37.6122 47.4278 36.9789 47.3965C38.2903 47.8448 38.0153 47.8744 38.0742 48.1271C38.1027 48.2502 38.6172 48.4116 38.6642 48.4415C39.343 48.9262 38.3314 48.6008 38.1282 48.5266C37.3727 48.2706 38.1644 48.7792 37.6618 48.5979C37.168 48.4078 36.5374 47.9331 36.4702 48.0815C36.8824 48.3624 38.0944 48.8467 38.2059 49.0824C38.6039 50.0323 37.1517 50.328 36.8515 50.5538C36.5359 50.8074 36.5418 50.9539 36.2727 51.0227C36.2048 51.0401 36.1638 51.0634 36.1439 51.0917C36.0253 51.2631 36.6962 51.6372 36.9139 51.9944C37.1713 52.4065 35.232 51.0473 34.7858 50.8002C34.3373 50.5576 34.7581 50.8717 34.4976 50.7609C34.2361 50.6517 33.9966 50.3821 33.8488 50.4207C33.698 50.4633 34.3202 51.1855 34.7629 51.4831C35.6968 52.1192 36.7775 52.6133 36.2934 52.6198C36.2647 52.6203 35.7491 52.2683 35.6662 52.2864C35.0238 52.4431 34.7601 52.8719 34.1574 53.0927C34.0737 53.1225 33.494 52.7393 33.4385 52.7528C32.8586 52.8902 33.9526 53.3229 34.977 54.1503C33.4924 53.2682 32.5105 52.8639 32.3583 53.1108C32.2652 53.2599 32.9339 53.6088 33.3331 53.9792C33.4532 54.0913 32.9414 53.9403 33.2343 54.141C34.1888 54.8022 35.3706 55.3563 34.7485 55.3856C34.7198 55.3855 34.2033 55.0142 34.144 55.0375C34.0807 55.0619 34.0549 55.1001 34.0554 55.1491C34.0619 55.3923 34.7544 55.9203 34.6977 56.2355C34.6439 56.5325 33.7622 56.5268 33.4964 56.7079C31.8857 55.626 32.1002 56.1046 33.1478 56.9444C32.9948 57.0743 32.9424 57.288 32.6864 57.3382C32.5988 57.3558 32.1549 57.009 32.1 56.9819C31.2397 56.5554 32.2761 57.3473 32.2962 57.4093C32.4655 58.0503 31.44 57.8153 32.0318 58.6827C32.053 58.7142 33.1812 59.4518 32.2909 59.019C32.2293 58.9895 31.7822 58.5481 31.6391 58.6873C31.498 58.8229 30.6846 58.7691 31.0889 59.3176C31.1847 59.4518 32.0583 60.1274 31.2519 59.8181C31.1422 59.7764 30.814 59.5713 30.6138 59.4886C30.4219 59.4099 30.3929 59.4188 30.4179 59.4561C30.4742 59.5462 30.8162 59.8017 30.0773 59.4626C29.0169 58.9838 28.2021 58.6622 28.7318 59.3087C28.7477 59.3267 29.6099 59.9806 29.5424 60.0486C29.4365 60.1535 29.1353 60.1861 29.052 60.3067C29.012 60.3654 29.5721 60.7367 29.5743 60.754C29.5575 61.391 28.8561 61.287 28.3222 61.4858C28.224 61.5209 28.7042 62.3464 28.0529 61.9832C27.3386 61.5877 25.093 59.1698 25.3327 60.0606C25.4115 60.4369 28.3543 63.4019 26.5126 62.2263C26.4971 62.6311 26.2284 62.7966 25.9586 63.0044C25.6626 63.2248 25.3655 63.4838 25.5567 63.9939C25.5711 64.0391 26.5638 64.6562 26.5227 64.7026C26.458 64.7737 25.9452 64.5826 25.8816 64.6323C25.6022 64.8371 25.9225 65.2739 25.7538 65.5074C25.6905 65.5982 25.1778 65.3615 25.1009 65.4769C25.0242 65.5952 25.6939 65.9241 25.2982 65.9738C24.9976 66.0093 23.5118 65.6738 23.283 65.813C24.708 66.267 24.64 66.3792 24.9562 66.7023C25.0178 66.7643 25.5298 66.8681 25.5848 66.9048C25.8201 67.0554 25.3854 67.0059 25.6456 67.1586C25.708 67.1954 26.1991 67.3356 26.278 67.3731C26.9685 67.6943 25.8074 67.5849 25.6044 67.5697C24.8347 67.5056 25.459 67.7422 25.1424 67.7687C24.8257 67.7962 24.5058 67.5439 24.2979 67.6199C24.25 67.6374 24.2074 67.6574 24.1694 67.6793L24.1848 67.6309C23.8762 67.7464 23.8214 68.0181 23.7034 68.2397C23.6538 68.3399 24.311 68.5368 24.3185 68.5574C24.3548 68.6906 24.189 68.7403 24.1606 68.8363C24.132 68.9332 24.2488 69.0713 24.8825 69.3377C21.4948 68.4034 25.1675 69.5609 24.4098 69.6398C24.3483 69.6473 22.7484 69.202 22.5428 69.039C22.3383 68.8735 22.8768 68.8843 22.5627 68.621C22.4841 68.5713 21.0935 67.829 21.0253 67.744C20.9693 67.6914 20.9407 67.6506 20.9346 67.6205C20.8786 67.3349 22.7767 68.0893 22.8948 68.1247C24.3027 68.5658 22.8494 67.7069 22.7679 67.6042C22.4641 67.2442 22.6441 67.1663 22.5686 67.0278L22.5016 67.2388C22.484 67.1866 22.4503 67.1303 22.3877 67.0661C22.1891 66.8605 20.6231 66.4253 20.7031 66.3199C20.9722 65.9576 23.1864 66.4559 21.4161 65.5125C21.0404 65.3074 19.3142 64.8739 20.7489 64.9647C20.8403 64.9669 22.1291 65.1312 21.4081 64.7409C21.3173 64.6911 20.8266 64.5263 20.7933 64.4887C20.5812 64.2387 21.0079 64.2676 20.8858 64.0254C20.7641 63.7824 20.5742 63.454 20.8229 63.3087C20.9726 63.2187 21.9284 63.4358 22.1685 63.476C22.8584 63.5939 21.9203 62.9638 22.7137 63.2127C23.5049 63.4766 24.5643 64.1752 25.1472 64.197C23.9412 63.6015 22.7105 62.9757 21.5047 62.3626C21.8282 61.804 22.4747 61.4401 22.8303 60.9147C22.8619 60.8678 22.892 60.8205 22.9203 60.7725C22.9711 60.6843 22.3174 60.3572 22.3602 60.2476C22.5503 59.7819 23.1904 59.8117 23.2878 59.3831C23.3621 59.0489 23.0044 58.3055 23.0436 57.9806C24.2805 58.9102 24.1349 58.3041 24.3833 58.2447C24.4701 58.223 24.7668 58.5076 24.901 58.5603C25.398 58.7539 24.3362 57.8985 24.2131 57.7163C23.6733 56.9528 25.9678 59.0064 26.0801 58.7617C26.0906 58.7453 24.9323 57.5742 24.8599 57.5009C24.4141 56.9944 25.3115 57.8512 25.4507 57.8726C25.7027 57.9137 26.0768 58.0714 25.7755 57.6697C25.6892 57.5467 24.8989 56.8937 25.5896 57.2844C25.6807 57.3345 26.1272 57.6425 26.1583 57.6531C26.6886 57.8121 25.2584 56.8826 24.7961 56.5331C24.3463 56.2013 25.3165 56.6758 25.6668 56.8274C25.6798 56.8318 25.692 56.836 25.7031 56.8399C26.1352 56.9924 26.1942 57.0629 26.1605 57.1005C26.1407 57.1144 26.0427 57.0915 26.0782 57.1135C26.6757 57.4876 26.8121 57.5247 26.8783 57.4977C26.9178 57.4682 26.9435 57.425 26.9894 57.3983C28.4576 58.1962 28.4634 57.9829 27.136 57.3076C26.9905 57.2346 27.0703 57.4101 26.9894 57.3983C25.6209 56.4865 25.5682 56.1547 27.0134 56.7208C27.6898 56.9884 28.3543 57.5068 28.2631 57.0649C28.2232 56.8646 27.2106 56.315 27.0159 56.0327C26.5753 55.3829 27.7005 55.614 27.7254 55.2661C27.7354 55.1382 27.1477 54.8866 27.1367 54.7868C27.1066 54.5202 27.5996 54.6311 27.5085 54.3307C27.4997 54.303 26.9258 53.9753 26.9535 53.9185C27.1524 53.4811 27.724 53.3893 27.9845 53.0202C28.1111 52.8405 28.0149 52.3267 28.1884 52.1931C28.3469 52.068 28.7106 52.0531 29.012 52.0088C29.271 51.9856 29.4872 51.9265 29.4608 51.7543C29.4267 51.5168 28.8346 51.2225 28.4838 50.9313C27.7993 50.3749 29.2986 50.888 29.5324 50.9639C29.5399 50.967 29.5909 51.1959 29.9324 51.2779C30.5763 51.5711 29.5343 50.9668 29.5324 50.9639C29.6809 51.0185 29.988 50.7686 29.9147 50.6391C29.8738 50.5701 29.3137 50.2922 29.3028 50.2618C29.0542 49.5488 29.1953 48.9486 29.7938 48.5092C29.8107 48.5054 30.4033 48.8762 30.4352 48.8633C30.8967 48.695 30.3024 48.0321 30.0815 47.4439C29.9759 47.1643 29.9976 46.9765 30.1684 46.9147C30.3459 46.861 30.6957 46.9663 31.2584 47.2581C31.2691 46.9843 31.8618 47.0733 32.2068 47.146C32.5533 47.2165 31.4595 46.4072 31.4447 46.3819C30.9497 45.5955 31.6652 45.9279 31.8823 45.8082C31.9879 45.7522 31.8744 45.5432 31.7411 45.474C31.6359 45.4163 31.9304 45.5367 31.7362 45.4744C31.7098 45.4672 31.1416 45.2575 31.1194 45.2504C30.4192 45.0568 31.827 45.5172 32.0764 45.6049C32.9853 45.921 33.4939 46.0083 33.057 45.8881C32.961 45.8417 30.8603 45.4672 30.7242 45.5304C30.5569 45.5843 31.3185 45.6529 31.1276 45.6963C31.1121 45.7006 30.6426 45.6531 30.6592 45.7072C30.7248 45.9418 30.9855 46.1477 31.0108 46.2825C31.0043 46.2501 30.9963 46.2182 30.9867 46.1869C30.9707 46.1282 30.2512 46.3465 30.2158 46.2636C30.0506 45.8745 29.999 45.4425 30.2763 45.0167C30.3468 44.9114 30.872 44.8722 31.0213 44.8246C31.9244 44.5348 30.5498 44.6178 30.5192 44.596C29.7547 44.0774 30.8812 43.3769 30.1862 42.9482C30.1449 42.9201 28.6689 43.032 29.8721 42.66C29.9525 42.6368 31.1807 42.2429 30.3067 42.3699C30.2523 42.3788 29.6222 42.5883 29.6652 42.4805C29.7069 42.3689 29.2456 42.3503 29.9163 42.0491C30.1288 41.9582 31.3328 41.5028 30.3242 41.701C30.2491 41.6992 28.0166 42.3059 29.5186 41.7711C29.7658 41.683 31.3611 41.1298 30.5131 41.3291C30.3502 41.3723 30.0054 41.5253 29.7728 41.574C29.5488 41.6242 29.625 41.5631 29.5393 41.5783C29.5039 41.624 29.4097 41.6901 29.167 41.8315C29.0468 41.8895 28.0566 42.471 28.8401 42.0914C28.9614 42.0295 29.4548 41.7574 29.513 41.7325C29.7851 41.5999 29.4554 41.778 29.7398 41.5075C29.8366 41.4079 30.5762 40.8758 30.7455 40.695C30.9158 40.5154 31.0285 40.281 30.6771 40.511C30.3305 40.7465 29.2568 41.7243 29.1426 41.7702C28.6727 41.9979 29.1066 41.2431 29.0011 41.0173C28.9898 40.9871 28.7144 41.4279 28.6861 41.421C28.6678 41.4172 28.642 41.4256 28.6184 41.4391C28.1328 41.2779 27.4714 41.1061 27.5511 40.1192C27.6251 39.1569 28.3752 38.7935 28.2772 38.334C28.2258 38.1125 27.3002 39.5331 27.2455 39.5645C26.6926 39.8848 26.8186 39.1093 26.4273 39.1677C26.3465 39.18 26.0948 39.8195 26.0297 39.8234C25.8049 39.8423 25.7597 39.4776 25.5661 39.4429C25.4785 39.4287 25.2581 39.9027 25.2067 39.8318C25.0805 39.6673 25.0293 39.3962 25.0823 38.8753C25.087 38.8278 25.4797 38.2974 25.364 38.2126C25.3168 38.1786 25.2791 38.1177 25.2411 38.0507C25.2941 37.9336 25.3478 37.7647 25.2129 38.1129C25.1543 38.2513 24.7667 39.3809 25.0439 38.6041C25.1013 38.4417 25.5374 37.0756 25.1473 38.2518C25.0666 38.4431 24.6474 40.0597 24.8515 39.0015C24.9073 38.7234 25.1106 37.5666 25.0198 37.7363C25.0078 37.7639 24.9042 38.3973 24.8543 38.4511C24.6819 38.6298 24.4956 38.5283 24.231 38.6904C24.1612 38.7351 24.1506 39.4051 24.0499 39.4509C23.7719 39.5776 23.4193 39.3558 23.1372 39.1041C23.0319 39.0099 23.1929 38.4779 23.1932 38.4175C23.2011 37.4349 22.9287 38.7224 22.8703 38.7911C22.5184 39.2022 22.3866 38.5577 22.0919 38.6764C22.0106 38.7075 21.9652 39.3345 21.9416 39.3873C21.699 39.9012 21.9931 38.8091 21.9135 38.6707C21.6964 38.2803 21.3811 38.2788 21.0876 38.309C20.9805 38.3212 20.971 39.0567 20.8753 39.0591C20.3026 39.0862 19.7386 38.9095 19.2869 38.4108C19.2026 38.3156 19.3751 37.7799 19.3796 37.6505C19.4141 36.746 18.9651 37.8982 18.8936 38.002C18.6927 38.2961 18.6201 38.2142 18.5438 38.1215C18.5003 38.0653 18.4555 38.005 18.3785 38.0245C17.3885 38.2828 16.2332 37.6996 15.1276 37.1508C13.8287 36.5039 12.6026 35.5161 11.1579 34.5338C11.1194 34.5097 11.0729 34.4862 11.0205 34.4658C10.9837 34.4508 10.6012 35.09 10.5655 35.086C10.1219 35.0047 9.771 34.4566 9.11402 34.3314C9.06083 34.32 8.77802 34.9704 8.68151 34.9731C8.48082 34.9828 8.30739 34.842 8.25728 34.5568C8.23203 34.4187 8.63002 33.9474 8.59804 33.8189C8.52377 33.5185 8.34491 33.3629 8.09225 33.3535C7.98393 33.3509 7.76507 34.0534 7.65132 34.0006C6.86823 33.6526 6.0086 33.3335 5.54333 31.9801C5.50926 31.8857 6.20236 30.5928 5.92295 30.7533C5.70353 31.0961 5.45799 31.5069 5.22968 31.8771C4.67274 31.6338 4.16573 31.3295 3.35133 30.6309C3.40021 30.5462 3.31739 30.2103 2.94493 29.9961C2.9215 29.9826 2.65527 30.7136 2.61151 30.6925C2.35029 30.569 1.94983 30.6512 1.72631 29.7686C1.70301 29.6819 2.14469 28.3882 1.93569 28.539C1.89936 28.5669 1.61978 28.671 1.47267 28.9364C1.45161 28.9768 1.30696 29.5995 1.22809 29.5949C1.22713 29.5948 1.22618 29.5947 1.22522 29.5947C0.622702 29.5112 0.0550324 29.1736 -0.426851 28.5856C-0.504388 28.4892 -0.166989 27.8891 -0.218784 27.8154C-0.581357 27.2972 -1.32792 27.5674 -1.74472 26.6751C-2.03654 26.0578 -1.31625 25.1063 -0.95624 23.9799C-0.894936 23.8312 -1.19289 23.5991 -0.801896 23.0454C0.234108 21.7088 1.33468 20.2203 2.40999 18.7737C2.52851 18.6205 2.62 18.6937 2.79465 18.7684C2.97035 18.8481 3.18083 18.8693 3.22399 18.2665C3.22415 18.2233 3.13023 18.0197 3.1061 17.8475C3.07329 17.6672 3.09164 17.4929 3.15203 17.3424C3.2312 17.1321 3.67395 16.6026 3.73352 16.3076C3.79138 16.0128 3.4403 16.4731 3.55253 16.1581C3.66981 15.8413 4.02125 15.1471 4.01368 15.0411ZM33.7326 47.482C34.3414 47.7486 32.3623 46.4036 32.7736 46.8169C32.7958 46.8385 33.7027 47.4689 33.7326 47.482ZM24.1183 62.3497C25.1344 62.7114 23.9211 61.7343 23.138 61.444C22.3442 61.1742 23.8044 62.2504 24.1183 62.3497ZM23.7716 64.8092C24.6341 64.8872 21.5057 63.5723 22.03 64.1143C22.0595 64.1456 23.7211 64.8059 23.7716 64.8092ZM0.0259164 24.11C0.0369441 24.0804 -0.0825985 23.993 -0.0989382 24.0199C-0.490115 24.6773 -0.231243 24.8607 0.0259164 24.11ZM23.9331 67.0616C24.3941 67.115 23.9383 66.7766 23.3648 66.7089C22.9025 66.6569 23.3586 66.9979 23.9331 67.0616ZM36.2935 41.9206C36.328 41.9111 36.3422 41.8226 36.1453 41.8659C35.5114 42.0055 35.714 42.0795 36.2935 41.9206ZM22.9108 70.1963C23.1735 69.7712 25.9464 70.2796 25.4867 70.7108C25.4034 70.7886 24.6921 70.2499 24.414 70.2969C23.9082 70.3799 25.5476 71.0374 24.5771 70.9854C24.4004 70.973 22.8898 70.2192 22.9074 70.1943C22.9085 70.195 22.9097 70.1956 22.9108 70.1963ZM36.1513 49.0362C36.1792 49.0517 36.2694 48.9709 36.2447 48.9512C35.6449 48.4816 35.4708 48.6323 36.1513 49.0362ZM35.6934 36.6158C35.7426 36.5677 35.5931 36.2888 35.5387 36.3226C34.5058 37.0231 34.7528 37.5248 35.6934 36.6158ZM33.4508 56.6831C34.0145 57.215 34.0028 57.3943 33.1489 56.9445C33.2621 56.8672 33.34 56.7644 33.4508 56.6831Z" fill="#0037FF"/>
<path d="M78.6212 10.0705C78.8318 10.1385 78.402 10.3264 77.9471 10.4296C77.8035 10.464 77.4973 10.165 77.3817 10.179C77.1552 10.2077 77.229 10.4577 76.9678 10.4794C76.8797 10.4852 76.3838 10.0265 76.304 10.0415C75.8694 10.1273 75.8057 10.4953 75.4591 10.7049C75.3068 10.7966 75.1541 10.8925 75.0001 10.9921C74.0374 11.2627 73.2794 12.0238 72.5449 12.8889C72.2795 13.1987 71.5117 13.4178 71.5901 13.9283C71.6 13.9875 72.1569 14.1837 72.1982 14.211C72.8315 14.6277 71.7477 14.1333 71.5638 14.1668C71.4526 14.187 71.3532 14.2146 71.2653 14.2473C70.81 14.3483 70.7039 14.6434 70.8213 14.9494C70.8821 15.1039 72.0483 15.274 71.3802 15.2315C71.3349 15.2297 70.7366 15.0417 70.6627 15.0615C70.4955 15.1082 70.5661 15.2982 70.503 15.3557C70.3778 15.4669 70.3792 15.4918 70.3469 15.6197C70.2976 15.7928 69.9524 15.9638 70.0612 16.1934C70.0864 16.242 70.7296 16.2806 70.8275 16.3647C70.9252 16.4476 70.8461 16.6207 70.688 16.6644C70.5297 16.7073 70.0329 16.616 69.9167 16.6124C68.9357 16.5857 70.2499 16.981 70.2803 17.0108C70.6178 17.4054 70.3712 17.7071 70.1571 18.0324C70.0472 18.2343 69.9429 18.4312 69.9211 18.64C69.8732 19.1151 70.0604 19.6413 69.9651 20.0653C69.849 20.5698 69.4406 20.9366 69.4262 21.4182C69.4239 21.4689 70.1787 21.5266 70.1774 21.5889C70.1629 22.2511 69.9832 22.8581 69.388 23.3972C69.3277 23.4514 68.6841 23.2743 68.5846 23.3229C67.9897 23.6173 66.608 24.06 69.4408 24.6524C69.4187 24.6881 69.3964 24.7252 69.3724 24.7629C69.2441 24.9332 69.0656 25.115 68.5614 25.2394C68.1785 25.335 67.4681 25.1561 67.7633 25.3421C67.8293 25.3832 68.463 25.3803 68.5145 25.4362C68.7309 25.6677 68.5165 25.898 68.8409 26.1131C68.9084 26.1566 69.475 26.1491 69.5769 26.1613C70.4019 26.2538 69.0383 26.4133 68.9402 26.458C68.2067 26.7534 68.51 26.9634 68.5148 27.2152C68.5157 27.2737 69.2669 27.1355 69.2948 27.1857C69.4298 27.448 69.4017 27.7047 69.1187 27.9988C69.0542 28.0646 68.4106 28.1542 68.3478 28.1947C68.0825 28.3861 69.2782 28.1213 69.0434 28.2671C68.9958 28.2984 68.4585 28.4367 68.4006 28.4562C67.4984 28.7821 68.8142 28.449 68.8434 28.4418C69.1534 28.4286 68.5332 28.7034 68.2139 28.7573C68.1322 28.8308 68.0992 28.8883 68.16 28.8833C68.1867 28.8771 68.7509 28.4592 68.7837 28.4561C68.9793 28.4085 69.0914 28.7834 69.31 29.5668C69.3422 29.6867 69.0177 30.1071 68.9886 30.1654C68.5568 31.0906 69.3054 29.9511 69.3544 29.9202C69.7412 29.7172 69.4214 30.8404 70.3371 29.4907C70.6596 29.9486 71.176 30.1526 71.6862 30.4279C72.1752 30.6933 72.6196 30.9904 72.886 31.9486C72.893 31.9694 72.6243 32.5841 72.6399 32.6231C72.8293 33.1 73.1448 32.1043 73.786 30.9832C73.9438 30.7004 73.5817 32.2048 73.5612 32.317C73.4758 32.7276 73.0863 33.6475 73.0776 33.7298C73.0242 34.3811 74.0903 31.2604 74.2837 31.326C74.2881 31.3334 74.0648 31.8985 74.0619 31.9613C74.0526 32.1584 74.1825 31.9479 74.1669 32.1632C74.1291 32.6609 73.6655 34.1957 74.1476 33.3732C74.2095 33.2662 74.763 31.4791 74.9191 31.6237C74.9802 31.6828 75.3216 31.761 75.379 31.9075C75.4356 32.0535 75.1827 32.6049 75.1813 32.6319C75.1864 33.4727 74.9873 33.755 74.7433 34.9172C74.4994 36.0749 75.3463 33.4015 75.4976 33.1219C75.5401 33.0434 75.5691 33.0415 75.5884 33.0845C75.6272 33.1908 75.6031 33.5881 75.5849 33.7545C75.5594 33.9863 75.3898 34.3345 75.3907 34.4704C75.4108 35.3615 75.9102 33.174 76.1161 32.7713C76.5798 31.8094 76.1564 33.8493 76.3013 34.096C76.3375 34.1618 76.4117 33.6922 76.465 33.6597C76.669 33.5354 76.6346 34.1932 76.9526 33.6519C77.009 33.5647 77.3935 32.3668 77.32 33.286C77.3105 33.4188 77.1742 33.9207 77.2283 34.0486C77.3081 34.2404 77.4978 34.3869 77.647 34.2342C77.7561 34.1211 77.7813 33.2615 77.8521 33.5402C77.8845 33.6646 77.7189 34.1453 77.7883 34.3381C77.8578 34.5312 78.1098 34.5425 78.2065 34.5367C78.3034 34.5308 78.3293 33.8814 78.3424 33.839C78.4178 33.5965 78.6288 33.3066 78.6441 33.3089C79.4353 33.3183 80.1227 34.4658 81.0116 34.2185C81.0824 34.2002 81.1276 33.5172 81.1393 33.5074C81.159 33.4894 81.1751 33.4818 81.188 33.4833C81.3495 33.503 80.9907 35.0748 81.0555 35.6534C81.2233 34.2774 81.2807 34.5385 81.4592 34.4106C81.5455 34.3479 81.5812 33.8108 81.596 33.7574C81.8273 32.9672 81.7542 34.0209 81.7418 34.2368C81.6985 35.0314 81.918 34.1177 81.889 34.649C81.8592 35.1762 81.6286 35.9293 81.7761 35.9417C81.893 35.4577 81.9791 34.1591 82.1249 33.9689C82.6816 33.2499 83.3092 34.384 83.6258 34.5425C83.9437 34.7012 84.0653 34.6279 84.2313 34.8359C84.531 35.2115 84.5526 34.241 84.8345 33.8391C85.1152 33.4368 84.6542 35.7607 84.6087 36.2685C84.5634 36.7761 84.6762 36.2637 84.6735 36.546C84.6709 36.8283 84.5345 37.1576 84.6111 37.2753C84.6882 37.3931 85.0724 36.5349 85.1796 36.0127C85.4079 34.9067 85.4679 33.7204 85.6406 34.1648C85.6507 34.1912 85.5198 34.8013 85.5628 34.8708C85.9093 35.4035 86.3344 35.4885 86.7034 35.9573C86.7545 36.0228 86.6242 36.7048 86.6533 36.7507C86.9588 37.2305 86.9629 36.056 87.2847 34.786C87.0628 36.498 87.0594 37.5601 87.3357 37.597C87.4998 37.6194 87.542 36.8662 87.6941 36.3466C87.7398 36.19 87.8073 36.7155 87.8588 36.3641C88.0248 35.2152 88.0318 33.9144 88.2501 34.4505C88.2598 34.4759 88.1719 35.1052 88.2091 35.1467C88.2696 35.2149 88.3235 35.1898 88.3741 35.112C88.5335 34.8808 88.6659 34.1815 88.9063 34.0914C89.1593 33.9969 89.517 34.7727 89.7714 34.9199C89.5702 36.8497 89.8587 36.4329 90.1049 35.1139C90.2723 35.187 90.4676 35.1327 90.6129 35.3356C90.6629 35.4048 90.5609 35.9586 90.5612 36.0197C90.5614 36.9783 90.7851 35.6941 90.8287 35.6478C91.2892 35.2027 91.4925 36.2222 91.9925 35.3137C92.0102 35.2809 92.2027 33.9467 92.1797 34.9359C92.1776 35.004 91.9749 35.5963 92.1472 35.6662C92.3196 35.7361 92.5618 36.4959 92.8884 35.9085C92.9678 35.7672 93.2593 34.7017 93.2699 35.5652C93.271 35.6824 93.2035 36.0635 93.1989 36.2798C93.1854 36.9693 93.4031 35.6238 93.3414 36.7829C93.2802 37.942 93.3536 38.8256 93.7041 38.0658C93.7152 38.0438 93.9124 36.9805 93.9878 37.0075C94.0843 37.0425 94.1961 37.2042 94.3053 37.2746C94.3354 37.2898 94.3649 37.2989 94.3925 37.298C94.4564 37.2956 94.4296 36.6244 94.441 36.6123C94.8742 36.2457 95.1626 36.8505 95.6071 37.1223C95.6912 37.1735 95.9505 36.2663 96.0929 36.994C96.245 37.7907 95.9638 41.0747 96.3791 40.304C96.5512 39.9961 96.9062 35.8299 97.1212 38.0039C97.7117 37.4912 98.1771 38.6221 98.7848 37.8917C98.8122 37.8594 98.9647 36.701 99.0239 36.7207C99.1099 36.752 99.1289 37.2991 99.1897 37.3391C99.4403 37.5203 99.7259 37.0739 99.9795 37.1674C100.073 37.2016 99.995 37.7602 100.109 37.8015C100.22 37.8423 100.366 37.1106 100.492 37.4824C100.582 37.7654 100.552 39.2859 100.677 39.4772C100.845 37.9913 100.943 38.0324 101.185 37.6635C101.231 37.5919 101.253 37.0703 101.278 37.0098C101.383 36.7521 101.397 37.1886 101.504 36.9079C101.53 36.8405 101.596 36.3341 101.621 36.2505C101.84 35.5201 101.889 36.6869 101.892 36.8896C101.91 37.6598 102.065 37.0117 102.118 37.3227C102.165 37.6331 101.967 37.9801 102.046 38.1766C102.209 38.5829 102.502 38.5524 102.722 38.6207C102.809 38.6445 102.884 37.9642 102.899 37.9521C103.125 37.8214 103.166 38.5717 103.555 37.2663C103.132 39.6948 103.395 38.5641 103.631 37.9299L103.618 37.9277C103.691 37.6494 103.756 37.4594 103.815 37.6746C103.827 37.7325 103.743 39.3916 103.617 39.6258C103.555 39.7396 103.494 39.6712 103.427 39.6122C103.399 39.602 103.306 39.601 103.279 39.5881C103.232 39.523 103.178 39.4691 103.079 39.6472C103.033 39.7284 102.558 41.2178 102.52 41.3062C102.217 41.995 102.702 39.5619 102.72 39.4264C102.919 37.9657 102.403 39.5722 102.342 39.6786C102.036 40.1604 101.927 39.7875 101.695 40.134C101.546 40.3583 101.29 41.9634 101.221 41.9028C100.991 41.7034 101.155 39.4388 100.651 41.3588C100.544 41.7688 100.409 43.5406 100.357 42.13C100.356 42.0413 100.331 40.7539 100.158 41.5492C100.136 41.6495 100.087 42.1648 100.068 42.2067C99.9454 42.4775 99.9113 42.0601 99.7877 42.2475C99.6604 42.4345 99.5062 42.7172 99.3929 42.5322C99.3224 42.4213 99.2992 41.4524 99.2772 41.214C99.2176 40.5275 99.0231 41.632 99.0135 40.8058C98.9997 39.9751 99.2231 38.7299 99.0705 38.1837C98.9756 39.5253 98.8701 40.9019 98.7721 42.251C98.3948 42.1791 98.0351 41.7239 97.6317 41.7642C97.5832 41.7706 97.5982 42.4952 97.5455 42.5207C97.3222 42.6252 97.1489 42.1018 96.9084 42.2976C96.7164 42.4518 96.5024 43.2099 96.3024 43.396C96.2453 41.854 95.9411 42.3667 95.7434 42.2202C95.6742 42.1695 95.6909 41.7587 95.6439 41.6232C95.4645 41.1219 95.5163 42.484 95.4573 42.6964C95.1999 43.6032 95.2732 40.5256 94.9964 40.5947C94.9824 40.5974 94.7624 42.2335 94.7394 42.3352C94.5747 42.9979 94.7281 41.7636 94.6367 41.6402C94.4929 41.4471 94.3879 41.13 94.2218 41.3425C94.1371 41.3207 93.8701 41.3412 93.7883 41.3104C93.7564 41.3428 93.7214 41.3896 93.6823 41.454C93.603 41.5874 93.3243 42.5827 93.3069 41.7828C93.3046 41.6781 93.3827 41.1413 93.3742 41.1082C93.2137 40.5535 92.9897 42.243 92.7849 42.7984C92.5807 43.3538 92.5323 42.1611 92.5351 41.8196C92.5418 40.9359 92.6652 41.4585 92.6822 41.3739C92.882 40.3669 92.7128 40.5227 92.6134 40.4225C92.8133 38.7634 92.6441 38.8425 92.5087 40.3252C92.494 40.4871 92.6014 40.3439 92.6134 40.4225C92.3039 42.0355 92.1066 42.2216 92.1167 40.678C92.1209 39.9545 92.3118 39.1349 92.0054 39.4041C91.8671 39.5257 91.7666 40.6729 91.6204 40.9703C91.2876 41.6491 91.1112 40.5448 90.8436 40.6821C90.7471 40.7321 90.7566 41.3679 90.688 41.4235C90.5067 41.5734 90.4225 41.0872 90.234 41.3085C90.2169 41.3294 90.1742 41.9882 90.1241 41.9908C89.7429 42.0228 89.4708 41.5673 89.0916 41.5167C88.9078 41.4924 88.5501 41.8236 88.3718 41.7348C88.2211 41.6618 88.0692 41.3924 87.9159 41.1587C87.7096 40.9071 87.5136 40.6937 87.3294 40.7976C87.0945 40.926 87.0822 41.5869 86.9433 42.0251C86.6688 42.8741 86.4947 41.2875 86.4809 41.0428C86.4805 41.0348 86.686 40.9002 86.6206 40.5529C86.6368 39.8454 86.4837 41.04 86.4809 41.0428C86.4683 40.8849 86.1087 40.6942 86.0196 40.8102C85.9711 40.8739 85.9207 41.497 85.8965 41.5185C85.3216 42.0137 84.7827 42.102 84.3201 41.7397C84.3131 41.7259 84.4266 41.0362 84.409 41.0125C84.1665 40.6632 83.8582 41.481 83.5438 41.9461C83.2307 42.411 83.0696 42.2133 83.1237 41.007C82.9266 41.1285 82.7664 40.5653 82.6797 40.2251C82.5924 39.8848 82.3549 41.2244 82.3383 41.2489C81.8214 42.0368 81.7339 41.2333 81.3803 41.0543C81.2121 40.9667 80.8398 41.1087 80.6394 41.2298C80.4804 41.3275 80.4409 40.9998 80.2851 41.184C80.2642 41.2086 80.1985 41.8109 80.1901 41.8333C79.9537 42.5323 80.2203 41.0743 80.2266 40.8083C80.2284 40.7336 80.23 40.6615 80.2313 40.5924C80.2553 39.7678 80.2349 39.3577 80.0184 39.7521C79.9618 39.8496 79.599 41.9538 79.5145 42.0699C79.402 42.2167 79.521 41.4609 79.3971 41.6338C79.3864 41.6479 79.3389 42.1169 79.2762 42.0895C78.9844 41.968 78.6412 41.66 78.2418 41.6668C78.1873 41.6659 78.181 42.417 78.0999 42.4278C77.7199 42.478 77.2627 42.3991 76.8811 41.9933C76.7878 41.8911 76.9259 41.3816 76.9246 41.2245C76.9218 40.2746 76.5282 41.5974 76.4869 41.6173C75.5594 42.1362 75.1427 40.7928 74.1502 41.1364C74.1031 41.1604 73.3177 42.4619 73.5101 41.2063C73.5199 41.122 73.7466 39.8474 73.3466 40.6423C73.3206 40.6917 73.2197 41.3545 73.0664 41.2344C73.0218 41.1994 72.955 41.2022 72.8817 41.2045C72.7662 41.2309 72.6264 41.2609 72.679 40.7352C72.7024 40.5017 72.9869 39.2453 72.5166 40.1669C72.4859 40.2319 71.5262 42.3499 71.9356 40.8055C72.0031 40.5513 72.5485 38.9542 72.0855 39.7124C71.9957 39.8593 71.9447 40.2391 71.7724 40.4295C71.5062 40.7228 71.4464 40.226 71.003 40.8686C70.9265 40.9831 70.3972 42.0124 70.5593 41.1476C70.5851 41.0123 70.8088 40.4937 70.7651 40.4114C70.5608 40.0185 70.0939 40.2486 69.9019 39.7554C69.8347 39.582 70.2263 38.7572 70.1991 38.4839C70.1707 38.2103 70.0294 37.899 69.7438 38.2301C69.4561 38.5604 69.031 39.9575 68.7843 39.9782C68.0912 40.0324 67.6069 39.5428 67.1707 39.0397C67.0542 38.8257 66.92 38.6017 66.7249 38.4519C66.6432 38.3892 66.4825 38.8905 66.3429 38.8302C65.862 38.63 64.4718 38.4586 64.3287 37.0515C64.2671 35.9585 65.3003 35.8278 65.1076 35.2718C65.0297 35.0149 63.8365 36.2364 63.7437 36.234C62.8872 36.2724 62.9537 35.3599 62.2831 35.0076C62.1392 34.9279 61.7578 35.5175 61.6354 35.4379C61.2054 35.1605 61.0792 34.5343 60.7325 34.1385C60.5748 33.959 60.1667 34.2879 60.0713 34.0691C60.0201 33.9528 59.9775 33.8341 59.9448 33.712C59.629 32.9346 59.6901 32.4732 59.9006 31.9775C59.9286 31.9258 60.6312 31.9423 60.5347 31.6227C60.3809 31.1019 60.7232 30.5273 60.1424 30.2407C59.97 30.1619 58.7985 30.4016 59.5504 29.9712C59.7082 29.8814 61.1253 29.6637 59.8557 29.6229C59.6445 29.6237 57.9084 29.393 58.9425 28.9969C59.2141 28.8934 60.3571 28.5904 60.1598 28.494C60.1285 28.48 59.5002 28.6275 59.4252 28.5278C59.1726 28.1746 59.2073 27.7808 58.9853 27.4169C58.9248 27.3181 58.2705 27.5093 58.2015 27.3565C58.0105 26.9358 58.1696 26.3975 58.3826 25.9992C58.4623 25.851 59.0108 25.9619 59.0707 25.9513C60.0461 25.8028 58.7356 25.6794 58.6607 25.6169C58.2128 25.2484 58.8434 25.004 58.7026 24.6783C58.6657 24.5864 58.0365 24.6038 57.9821 24.5819C57.4522 24.351 58.5632 24.5763 58.6958 24.4708C59.0715 24.1763 59.0572 23.8243 59.0183 23.4928C59.013 23.4499 58.9188 23.4271 58.7986 23.4108C58.7876 23.4094 58.7765 23.4079 58.7652 23.4066C58.6158 23.3884 58.4371 23.3783 58.3375 23.3519C58.2909 23.341 58.2613 23.3278 58.2598 23.3108C58.1994 22.7978 58.3397 22.3006 58.8035 21.9018C58.8921 21.8267 59.4373 21.9631 59.5663 21.9639C60.4683 21.973 59.2896 21.6149 59.1811 21.556C58.6852 21.29 59.1852 21.2928 59.1189 21.1167C58.7874 20.2515 59.2584 19.3851 59.5509 18.7735C59.8525 18.138 60.2927 17.6784 60.4105 17.1983C60.4464 17.0058 60.4639 16.8075 60.4566 16.5929C60.455 16.5261 59.708 16.5206 59.6973 16.4609C59.5941 15.688 59.9756 14.9393 59.9178 14.0238C59.9147 13.9479 59.2012 13.9318 59.1734 13.8031C59.1119 13.5371 59.2136 13.2173 59.4909 13.0024C59.6245 12.8986 60.179 13.1961 60.301 13.092C60.5864 12.8509 60.7102 12.5533 60.6844 12.216C60.6725 12.0705 59.9212 12.0835 59.9616 11.9046C60.0943 11.289 60.2536 10.6465 60.566 10.0613C60.8166 9.63256 61.1956 9.24877 61.8233 8.98307C61.91 8.94575 63.2719 9.49101 63.0727 9.24956C62.7066 9.07173 62.2707 8.87419 61.8768 8.68988C62.2666 7.26964 63.416 6.19496 64.348 4.9465C64.3879 4.89285 63.6779 4.55642 63.7536 4.44804C64.1356 3.90112 64.4138 3.24708 65.238 2.99446C65.3164 3.00571 65.4064 3.02289 65.5097 3.04736C65.5915 3.06583 66.6462 3.93551 66.56 3.71128C66.5433 3.67192 66.5157 3.41079 66.3111 3.1898C66.2796 3.15731 65.753 2.79596 65.7751 2.73648C65.9139 2.39659 66.2838 2.13829 66.8926 1.97285C66.9919 1.94694 67.4852 2.42167 67.5608 2.40653C68.0929 2.29985 67.9723 1.589 68.8948 1.47358C69.5336 1.38894 70.279 2.31642 71.2551 2.9739C71.3853 3.07066 71.641 2.87843 72.0814 3.39144C73.1366 4.71276 74.3095 6.14513 75.4574 7.53476C75.5771 7.68743 75.5089 7.73554 75.4512 7.85195C75.3994 7.96299 75.3923 8.1257 75.8435 8.38319C75.937 8.39887 76.3936 8.42543 76.6309 8.63402C76.8098 8.76797 77.2185 9.32225 77.479 9.46393C77.7426 9.6014 77.3847 9.14755 77.6612 9.33613C77.9369 9.53138 78.5158 10.0513 78.6212 10.0705ZM82.293 38.7046C82.2715 38.0392 81.8705 40.3983 82.0975 39.8551C82.109 39.8261 82.2944 38.7373 82.293 38.7046ZM98.1269 39.9223C98.0215 38.86 97.8297 40.4043 97.9034 41.2241C97.9738 42.0429 98.1575 40.2443 98.1269 39.9223ZM99.8577 39.2651C99.7376 38.4203 99.443 41.8006 99.687 41.1323C99.7009 41.0946 99.8643 39.3141 99.8577 39.2651ZM70.9392 3.81469C70.9647 3.83336 71.07 3.75428 71.0479 3.73199C70.511 3.18863 70.2888 3.36132 70.9392 3.81469ZM101.598 38.6115C101.606 38.1488 101.362 38.6505 101.36 39.2261C101.355 39.6886 101.588 39.1868 101.598 38.6115ZM76.0232 35.2304C76.0296 35.1953 75.9637 35.1456 75.9153 35.3412C75.7591 35.9714 75.9132 35.8211 76.0232 35.2304ZM104.635 38.9758C104.159 38.8457 104.034 36.0343 104.435 36.36C104.514 36.4184 104.251 37.251 104.348 37.5053C104.539 37.9688 104.672 36.2088 104.874 37.1519C104.911 37.3245 104.663 38.9895 104.635 38.9797C104.635 38.9784 104.635 38.9771 104.635 38.9758ZM82.6806 35.8559C82.6831 35.8242 82.5858 35.7781 82.5784 35.8087C82.4022 36.5497 82.5971 36.6429 82.6806 35.8559ZM72.4041 32.4605C72.424 32.3962 72.241 32.2518 72.2104 32.306C71.6102 33.4017 72.0097 33.71 72.4041 32.4605ZM89.7704 34.9718C89.9636 34.2233 90.1158 34.1489 90.1045 35.1129C89.9958 35.05 89.8811 35.0304 89.7704 34.9718Z" fill="#0037FF"/>
<path d="M90.1222 60.7632C90.0982 60.9999 89.9534 60.632 89.8695 60.2337C89.8421 60.1084 90.0912 59.7624 90.0774 59.6572C90.0489 59.4514 89.8389 59.573 89.8144 59.3365C89.8061 59.2557 90.1754 58.6917 90.1582 58.6199C90.0603 58.2303 89.742 58.2587 89.546 58.002C89.3401 57.7328 89.1149 57.4822 88.8776 57.2479C88.1014 56.4257 87.0709 55.8229 85.9409 55.2018C85.4693 54.9421 85.0116 54.162 84.3755 54.2474C84.3012 54.258 84.1685 54.8339 84.142 54.8766C83.7324 55.5297 84.1423 54.4102 84.0605 54.2202C83.7343 53.4689 83.1729 53.2432 82.594 53.3018C82.346 53.3278 82.2174 54.5144 82.1911 53.8176C82.1891 53.7704 82.4318 53.1903 82.3917 53.1078C82.3009 52.922 82.0069 52.946 81.9138 52.8637C81.7383 52.7031 81.7004 52.6973 81.5062 52.6253C81.2528 52.5258 81.0399 52.1566 80.7257 52.1401C80.7119 52.1404 80.6977 52.1419 80.6833 52.1446C80.6244 52.1577 80.4705 52.7843 80.36 52.8609C80.2503 52.9373 80.0771 52.8205 80.0591 52.6556C80.0416 52.4905 80.2258 52.02 80.25 51.9063C80.4465 50.9432 79.801 52.1584 79.7671 52.1837C79.0831 52.5738 78.8332 51.7225 78.307 51.6274C77.9136 51.5587 77.4629 51.7545 77.0728 51.6804C76.607 51.589 76.1993 51.2149 75.6276 51.2335C75.5667 51.2346 75.5827 51.9925 75.5072 51.9952C75.0116 52.0124 74.4364 51.9548 73.8142 51.7158C73.5651 51.5899 73.3207 51.4177 73.0823 51.1848C73.0196 51.123 73.2097 50.4816 73.1525 50.3806C72.8042 49.7767 72.2743 48.3814 71.6255 51.205C71.3456 51.0531 71.0009 50.8903 70.8075 50.279C70.6827 49.8855 70.9429 49.1912 70.6904 49.4693C70.6336 49.5313 70.6159 50.1663 70.5369 50.2117C70.2053 50.4027 69.8991 50.1573 69.5578 50.4443C69.4883 50.5041 69.4357 51.0683 69.4059 51.1674C69.1598 51.9694 69.0833 50.5844 69.0419 50.4794C68.7269 49.6956 68.3948 49.9488 68.0178 49.8852C67.9304 49.8701 67.9433 50.638 67.8559 50.6506C67.4034 50.7059 66.9535 50.5857 66.5605 50.1976C66.4733 50.1094 66.6407 49.477 66.6031 49.402C66.4368 49.0789 66.2423 50.2883 66.0791 50.0016C66.0445 49.9428 66.1359 49.395 66.1359 49.3336C66.1363 48.3699 65.8673 49.7021 65.833 49.728C65.3984 50.0857 65.331 48.651 64.9362 48.8019C64.8885 48.8213 64.8984 49.5305 64.7697 49.5424C64.6241 49.5567 64.4781 49.5594 64.3327 49.5509C63.7236 49.5227 63.1387 49.2595 62.5551 48.7722C62.446 48.6821 62.5432 48.1577 62.539 48.0925C62.4475 47.0732 62.3303 48.432 62.2951 48.4825C62.0049 48.8452 61.7119 47.7064 61.5518 49.3318C60.3773 48.785 59.1841 49.9077 58.4174 48.7133C58.4113 48.6973 58.0496 48.1329 58.0298 48.1092C57.9893 48.0634 57.9834 48.0406 58.0156 48.0195C57.8553 48.234 58.5089 48.863 59.0077 49.8572C59.1488 50.1621 57.936 49.1787 57.8522 49.1013C57.5237 48.8355 56.9365 48.0256 56.8652 47.9807C56.3145 47.6186 58.4516 50.1321 58.2053 50.3322C58.1946 50.3337 57.8461 49.8351 57.7889 49.8036C57.611 49.7032 57.7011 49.9394 57.5142 49.8201C57.0814 49.5437 56.0758 48.296 56.4457 49.1835C56.4933 49.2987 57.6472 50.7729 57.3882 50.8529C57.2839 50.8843 56.9486 51.1629 56.7837 51.1301C56.6179 51.0987 56.3374 50.5589 56.3154 50.5425C55.603 50.0685 55.5112 49.7293 54.7097 48.8497C53.9118 47.9729 55.5514 50.2481 55.6799 50.5401C55.8077 50.8315 55.2507 50.4185 55.075 50.2627C54.8991 50.1068 54.734 49.7546 54.6198 49.6767C53.8677 49.1726 55.3093 50.8938 55.4842 51.3154C55.9085 52.3073 54.5484 50.7251 54.2435 50.6999C54.1631 50.6917 54.4875 51.0401 54.4736 51.1064C54.4608 51.1626 54.4279 51.1853 54.3859 51.193C54.2247 51.2291 53.9465 51.0719 54.0785 51.5581C54.1057 51.6597 54.7167 52.7684 54.0521 52.1233C53.9562 52.0304 53.6781 51.59 53.5336 51.5557C53.3177 51.5033 53.0517 51.5687 53.0439 51.7963C53.0386 51.9645 53.6677 52.5549 53.3964 52.432C53.2754 52.3771 53.0512 51.9168 52.849 51.8469C52.6469 51.7769 52.4325 51.9786 52.3583 52.0618C52.2833 52.146 52.7413 52.6082 52.7619 52.6477C52.8791 52.8746 52.9183 53.2474 52.9042 53.2583C52.256 53.8995 50.8875 53.6551 50.4677 54.5491C50.4351 54.6178 50.9392 55.0811 50.9391 55.0966C50.962 55.4697 49.8485 54.0224 49.3024 53.7034C50.2789 54.6875 50.0317 54.5762 50.0131 54.8058C50.0053 54.917 50.4114 55.2707 50.4442 55.3154C50.6449 55.5952 50.6237 55.6362 50.518 55.5798C50.3788 55.4932 50.0698 55.2231 49.9732 55.1424C49.36 54.635 49.9728 55.3478 49.5577 55.0159C49.139 54.6938 48.6636 54.0617 48.5515 54.1958C48.8856 54.5652 49.9086 55.3688 49.9905 55.5897C50.3275 56.3835 49.0996 56.331 48.7982 56.6034C48.5132 56.845 48.5287 56.9976 48.2621 57.0886C47.7786 57.2606 48.6782 57.6328 48.9303 58.0694C49.1813 58.5091 47.2069 57.1983 46.7507 56.9699C46.2946 56.7419 46.725 57.0427 46.4615 56.9389C46.1981 56.8351 45.9498 56.5753 45.8058 56.6126C45.6621 56.6497 46.2945 57.3565 46.7308 57.6631C47.6557 58.3122 48.7409 58.8042 48.2313 58.8435C48.2015 58.8451 47.698 58.4752 47.6108 58.4976C47.2988 58.5842 47.0643 58.7232 46.8362 58.8656C46.5949 58.9943 46.3696 59.1501 46.0479 59.2605C45.9646 59.2887 45.3867 58.903 45.3306 58.9171C44.7421 59.0742 45.8408 59.4987 46.9001 60.2729C45.3863 59.4433 44.3874 59.0731 44.2343 59.3623C44.1437 59.5333 44.8372 59.8312 45.2647 60.1684C45.394 60.2691 44.8702 60.166 45.1806 60.339C46.1962 60.9027 47.4216 61.3438 46.824 61.4031C46.796 61.4051 46.2392 61.0982 46.1844 61.1249C45.8267 61.2985 46.9131 61.8381 46.9036 62.2089C46.8963 62.5001 46.0193 62.6324 45.773 62.8637C44.0285 62.0145 44.3072 62.4567 45.4476 63.1665C45.3061 63.3267 45.2696 63.5626 45.0112 63.6542C44.9228 63.6858 44.4489 63.3806 44.3913 63.3597C44.2709 63.3151 44.1864 63.2886 44.1304 63.2764C43.769 63.1937 44.6125 63.7037 44.6391 63.749C44.9188 64.2938 43.8796 64.2335 44.6693 64.9068C44.6973 64.9328 45.9731 65.3661 45.0093 65.1496C44.942 65.1375 44.3949 64.8327 44.297 64.9867C44.2015 65.1296 43.407 65.3025 43.9621 65.6955C44.0944 65.7942 45.1388 66.1458 44.2773 66.105C44.1602 66.1003 43.7833 66.0121 43.5672 65.9979C42.8775 65.96 44.2127 66.2334 43.0553 66.1384C41.898 66.043 41.0012 66.1648 41.7557 66.5685C41.7774 66.5819 42.8406 66.782 42.8136 66.8669C42.7742 66.9892 42.5769 67.1442 42.5284 67.2839C42.5223 67.3014 42.5185 67.3186 42.5175 67.3354C42.5135 67.4072 43.1847 67.4366 43.1955 67.4506C43.4999 68.0591 42.8138 68.3336 42.4145 68.7456C42.3416 68.8173 43.1168 69.3842 42.3709 69.3235C41.5561 69.2522 38.5302 67.9415 39.116 68.6245C39.3458 68.9101 43.1877 70.5574 41.0378 70.1512C41.2146 70.651 40.8156 70.935 40.629 71.3407C40.625 71.3498 40.6235 71.3799 40.6202 71.3891C40.5291 71.6054 40.5076 71.8327 40.7483 72.1304C40.7764 72.1638 41.9015 72.4829 41.8716 72.5501C41.8253 72.6489 41.2803 72.5938 41.2301 72.6588C41.0067 72.9261 41.4023 73.2995 41.2706 73.5729C41.2217 73.6779 40.6786 73.5227 40.6202 73.6491C40.5625 73.7757 41.2715 74.0098 40.8851 74.1174C40.5912 74.1972 39.0751 74.0523 38.8661 74.2144C40.3361 74.4894 40.2822 74.6104 40.6345 74.8961C40.703 74.951 41.2239 74.9915 41.2828 75.0217C41.5343 75.1446 41.0968 75.1479 41.3733 75.2696C41.4397 75.2985 41.9442 75.378 42.0271 75.4056C42.7516 75.6399 41.5867 75.6717 41.3833 75.6837C40.6117 75.7188 41.2616 75.8728 40.9517 75.9411C40.6415 76.0133 40.2904 75.8038 40.0945 75.9113C39.6889 76.1367 39.7352 76.5005 39.69 76.7756C39.6751 76.8853 40.3607 76.8631 40.3743 76.8801C40.4133 76.9392 40.3958 76.9944 40.3692 77.0481C40.2777 77.2003 40.1032 77.2918 41.0684 77.6254C37.6206 76.9463 41.3646 77.8473 40.6036 77.9872C40.5428 77.9959 38.9236 77.6261 38.7127 77.466C38.5019 77.3068 39.0426 77.2909 38.6991 77.0949C38.6224 77.0341 37.1258 76.5956 37.0305 76.5887C36.5853 76.4768 37.3612 76.6116 38.0497 76.6968L38.0291 76.8829C38.4501 76.8938 38.8355 76.9148 38.8871 76.9143C40.3622 76.9006 38.7101 76.5427 38.6011 76.4639C38.0988 76.1249 38.473 75.9116 38.1265 75.6237C37.9033 75.4338 36.2938 75.2087 36.3614 75.0782C36.588 74.6404 38.8479 74.8665 36.9769 74.1413C36.5788 73.9843 34.8139 73.7588 36.2463 73.6869C36.337 73.6799 37.6347 73.6903 36.8664 73.4087C36.7695 73.3728 36.2613 73.2742 36.2229 73.2439C35.9756 73.0432 36.3995 73.0272 36.2377 72.8331C36.0759 72.6389 35.8262 72.3952 36.0334 72.2655C36.1574 72.1872 37.1271 72.265 37.3678 72.2685C38.0608 72.2809 36.9981 71.9161 37.82 72.0103C38.6465 72.1024 39.8447 72.5157 40.412 72.4151C39.0966 72.1346 37.7482 71.8382 36.4256 71.5544C36.5217 71.2607 36.8094 71.0521 36.9432 70.8509C36.9645 70.7924 36.9736 70.6023 36.999 70.5454C37.0805 70.3472 37.1477 70.1572 37.1834 69.967C37.1991 69.8773 36.4771 69.775 36.4773 69.6704C36.4839 69.2258 37.0779 69.0745 36.997 68.6835C36.9321 68.3796 36.3057 67.8653 36.2 67.5931C37.6925 67.9937 37.3043 67.5335 37.4899 67.4232C37.555 67.3825 37.9433 67.5175 38.084 67.5192C38.6044 67.5231 37.286 67.1787 37.0931 67.0794C36.2561 66.6929 39.214 67.5511 39.1908 67.3337C39.1934 67.3113 37.6105 66.8706 37.508 66.8596C36.86 66.701 38.0697 66.9639 38.1942 66.957C38.372 66.9487 38.6522 66.9499 38.5377 66.9065C38.51 66.8518 38.4524 66.7903 38.3548 66.7181C38.221 66.6248 37.2264 66.3036 38.0328 66.2237C38.1383 66.2137 38.6753 66.2905 38.709 66.2769C39.273 66.0295 37.5856 65.7988 37.0435 65.5118C36.5022 65.2199 37.7185 65.0814 38.063 65.084C38.9554 65.0763 38.4103 65.2722 38.4941 65.2956C39.4878 65.5642 39.3484 65.3256 39.4637 65.1813C41.1105 65.4633 41.0509 65.2467 39.5771 65.0312C39.4157 65.009 39.5445 65.1637 39.4637 65.1813C37.8767 64.7462 37.7343 64.3842 39.2941 64.4442C40.0249 64.4775 40.8058 64.7961 40.6041 64.3522C40.5161 64.1478 39.388 63.9104 39.1339 63.6567C38.5603 63.0577 39.7549 62.8772 39.7507 62.4422C39.7521 62.2761 39.1116 62.1785 39.0944 62.0529C39.0518 61.7099 39.5892 61.668 39.5014 61.2982C39.4933 61.2633 38.8715 61.0333 38.9073 60.9422C38.9576 60.8085 39.0246 60.6871 39.1032 60.5736C39.2864 60.3709 39.6552 60.259 39.8081 59.9653C39.8992 59.7906 39.7269 59.3022 39.8891 59.1252C40.1649 58.8217 41.2562 58.7402 41.2157 58.2842C41.1931 57.9856 40.5753 57.7496 40.2225 57.4473C39.541 56.8551 41.1356 57.1618 41.3742 57.2288C41.3811 57.2322 41.4064 57.5228 41.7674 57.561C42.4282 57.8185 41.3753 57.2334 41.3742 57.2288C41.528 57.2681 41.9026 56.8882 41.8493 56.731C41.8181 56.6464 41.2593 56.3653 41.254 56.326C41.2106 55.9595 41.2409 55.6039 41.349 55.2692C41.3414 55.0187 41.4771 54.8197 41.7783 54.6616C41.7934 54.6609 42.3866 55.0306 42.4149 55.0241C42.828 54.9384 42.1931 54.331 41.898 53.8345C41.6037 53.3367 41.882 53.2055 42.9984 53.6813C42.9914 53.4043 43.6299 53.3899 44.0102 53.3999C44.3892 53.4114 43.2823 52.6215 43.2713 52.5897C42.9125 51.5939 43.7843 51.7201 44.3164 51.2704C44.5722 51.0535 44.8847 50.42 45.0626 50.0426C45.0683 50.0299 45.0744 50.018 45.0809 50.0067C45.1631 49.8133 45.4478 49.9336 45.4448 49.6662C45.4445 49.6287 45.007 49.2091 44.9965 49.1868C44.6536 48.5122 45.5996 49.6564 45.8138 49.8175C46.5916 50.4052 47.0093 50.7147 46.896 50.2018C46.8685 50.0857 45.556 48.3953 45.5599 48.2226C45.5669 48.0017 46.0397 48.6048 46.0323 48.3612C46.0321 48.341 45.7133 47.9936 45.8014 47.942C46.205 47.6987 46.7624 47.5743 47.0947 47.2294C47.1413 47.1836 46.5928 46.6684 46.6528 46.5924C46.9374 46.2343 47.3348 45.9425 47.8849 45.9489C48.0215 45.9526 48.2988 46.4015 48.4137 46.5086C49.1088 47.1567 48.4049 45.97 48.4145 45.9291C48.5554 45.1871 49.2716 45.361 49.6799 45.129C49.8711 45.0088 50.0265 44.8502 50.1201 44.5999C50.137 44.544 49.5852 43.1349 50.4364 44.0723C50.4945 44.1336 51.3561 45.0988 50.9515 44.3089C50.9262 44.2594 50.4738 43.7683 50.6383 43.7353C50.8022 43.7026 50.7395 43.2075 51.3046 43.6997C51.4823 43.8549 52.3333 44.8248 51.8731 43.898C51.8461 43.8298 50.6831 41.8201 51.6739 43.0713C51.8366 43.2774 52.8238 44.6471 52.4459 43.8507C52.3704 43.6978 52.1036 43.4271 52.0253 43.1924C51.8998 42.8344 52.2911 43.1039 51.9057 42.4493C51.8409 42.3307 51.1641 41.4049 51.7528 42.0458C51.8462 42.1452 52.1968 42.5866 52.2588 42.6168C52.5198 42.7411 52.4175 42.4923 52.5859 42.5898C52.9667 42.249 53.311 42.031 53.572 41.905C53.955 41.7192 54.1215 41.9346 54.3371 42.1226C54.5386 42.3222 54.7727 42.5157 55.0163 42.5211C55.5483 42.5052 56.1238 42.5296 56.2228 42.0541C56.3257 41.5776 55.574 40.2982 55.944 40.0538C57.4831 39.0556 58.7628 39.7713 59.8916 39.7906C60.0589 39.7957 59.878 39.2885 60.1254 39.2601C61.0262 39.1449 62.578 38.6599 63.2564 39.8079C63.7774 40.7216 63.0344 41.3545 63.4335 41.7375C63.6197 41.9204 63.957 40.2534 64.0169 40.2048C64.5594 39.7066 64.8332 40.4869 65.2935 40.3121C65.3903 40.2762 65.3852 39.5861 65.4683 39.5634C65.534 39.5442 65.598 39.5476 65.6606 39.5639C65.8099 39.6108 65.9435 39.8011 66.0943 39.7773C66.1823 39.7618 66.2338 39.2416 66.3063 39.2917C66.4808 39.4054 66.6183 39.6443 66.7407 40.1533C66.7519 40.1997 66.5573 40.8302 66.6942 40.8719C66.9157 40.9373 67.1393 41.4519 67.4636 40.9891C67.5601 40.8497 67.7081 39.6648 67.7759 40.5039C67.7903 40.6792 67.5715 42.0971 67.9179 40.8911C67.976 40.6908 68.5069 39.0719 68.5406 40.161C68.5494 40.4476 68.5186 41.6258 68.636 41.4542C68.6525 41.4266 68.6776 40.7835 68.764 40.7309C69.0673 40.5567 69.3521 40.6599 69.6652 40.4954C69.749 40.4502 69.7137 39.7774 69.8361 39.7311C70.173 39.6029 70.5516 39.8192 70.8404 40.0643C70.9468 40.1558 70.7992 40.6916 70.8003 40.752C70.8161 41.7346 71.0578 40.4409 71.1125 40.3706C71.4505 39.9505 71.5885 40.5899 71.8702 40.4613C71.9479 40.4275 71.9765 39.7997 71.9979 39.7462C72.2172 39.2242 71.9623 40.3255 72.0408 40.4606C72.2607 40.843 72.5623 40.8318 72.8437 40.789C72.9471 40.7723 72.9323 40.0375 73.0244 40.0309C73.5716 39.9786 74.1244 40.1269 74.5944 40.6026C74.6825 40.6934 74.5364 41.2369 74.5381 41.3664C74.5459 42.2713 74.9379 41.0984 75.0057 40.9915C75.3084 40.5022 75.3183 41.0046 75.5285 40.9451C75.5423 40.9411 75.5561 40.9373 75.5699 40.9336C75.7638 40.5434 76.7844 40.9199 77.8315 41.2129C79.202 41.6012 80.3133 42.3215 81.6947 42.5347C81.7835 42.5494 81.8826 41.8064 81.9636 41.8105C82.7841 41.8809 83.4821 42.2567 84.2131 42.4866C84.3247 42.5174 84.4473 42.5363 84.5814 42.5329C84.6316 42.5329 84.796 41.8437 84.883 41.8207C85.0614 41.7683 85.2416 41.8683 85.3338 42.1348C85.3796 42.2636 85.0867 42.805 85.1378 42.9232C85.2579 43.2003 85.4541 43.3148 85.6959 43.2715C85.7986 43.2513 85.8797 42.5213 85.9961 42.5487C86.7965 42.7214 87.6839 42.854 88.3221 44.0299C88.3659 44.1107 87.9845 45.5273 88.2005 45.3003C88.3321 44.9151 88.4745 44.4582 88.6089 44.0446C90.0114 44.2388 91.2587 45.1911 92.6927 45.8683C92.7539 45.8971 92.9422 45.1342 93.064 45.1871C93.4393 45.3499 93.84 45.4613 94.198 45.6926C94.4823 45.8821 94.7299 46.1597 94.8843 46.6376C94.9172 46.7378 94.2834 47.9486 94.5633 47.8565C94.6135 47.8389 94.9818 47.8197 95.1925 47.5946C95.2232 47.5601 95.4591 46.9643 95.5626 46.9963C96.1629 47.1949 96.6901 47.6445 97.0862 48.3324C97.1494 48.4445 96.7007 48.9679 96.7411 49.052C97.0219 49.6419 97.8362 49.5378 98.0981 50.5215C98.2754 51.1984 97.3716 51.9801 96.7933 53.0133C96.7041 53.1474 96.9481 53.4367 96.4514 53.8978C95.1635 54.9937 93.7765 56.2197 92.428 57.4157C92.2806 57.5416 92.2111 57.4558 92.0645 57.3602C91.9224 57.267 91.7328 57.2225 91.5418 57.764C91.5325 57.8051 91.5661 58.0026 91.5567 58.1794C91.5435 58.3536 91.4931 58.5248 91.4031 58.6595C91.2833 58.8499 90.7384 59.2742 90.622 59.5533C90.506 59.8313 90.9481 59.4566 90.781 59.7478C90.6077 60.0389 90.1204 60.6459 90.1222 60.7632ZM45.7115 53.4787C46.3415 53.7275 44.4587 52.2504 44.7832 52.7714C44.8012 52.7983 45.68 53.4673 45.7115 53.4787ZM38.8156 71.2074C39.0202 71.2091 39.1298 71.1965 39.1673 71.1765C39.1777 71.1477 39.1822 71.0544 39.1946 71.0265C39.3711 70.8962 38.2883 70.5284 37.6082 70.5403C37.42 70.5453 37.3597 70.5808 37.3839 70.6298C37.3609 70.6816 37.3525 70.8547 37.3332 70.908C37.4421 70.9819 38.5646 71.2052 38.8156 71.2074ZM39.2022 73.2015C40.0638 73.1483 36.7528 72.4058 37.3714 72.7963C37.4063 72.819 39.1521 73.205 39.2022 73.2015ZM95.8331 52.6683C95.8155 52.6944 95.9213 52.808 95.9421 52.7845C96.4587 52.2197 96.2303 51.9809 95.8331 52.6683ZM39.661 75.3916C40.1254 75.3834 39.632 75.1001 39.054 75.106C38.5885 75.1131 39.0824 75.4061 39.661 75.3916ZM53.5339 49.7721C53.5573 49.7991 53.6461 49.7724 53.524 49.6121C53.13 49.096 53.1392 49.3187 53.5339 49.7721ZM39.1483 78.6989C39.3745 78.1642 42.1678 78.5436 41.7645 78.9254C41.6911 79.0021 40.9248 78.5651 40.6549 78.6263C40.1585 78.7635 41.8685 79.201 40.9042 79.2625C40.7262 79.2808 39.1276 78.735 39.1446 78.6973C39.1458 78.6978 39.1471 78.6983 39.1483 78.6989ZM48.068 55.1267C48.0951 55.1431 48.1907 55.0675 48.1677 55.0461C47.6086 54.5268 47.4049 54.6928 48.068 55.1267ZM58.1926 48.0979C58.2184 48.1582 58.4174 48.1487 58.406 48.0884C58.1326 46.863 57.5532 46.9462 58.1926 48.0979ZM45.7242 62.8456C46.3529 63.3008 46.3559 63.4982 45.4487 63.1663C45.5554 63.0671 45.6227 62.9473 45.7242 62.8456Z" fill="#0037FF"/>
</g>
<use xlink:href="#pattern0_355_3_inner" transform="translate(-131.097 197.796)"/>
<use xlink:href="#pattern0_355_3_inner" transform="translate(131.097 197.796)"/>
</pattern></defs>
</svg>
