<svg width="708" height="421" viewBox="0 0 708 421" fill="none" xmlns="http://www.w3.org/2000/svg" xmlns:xlink="http://www.w3.org/1999/xlink">
<rect width="708" height="421" rx="15" fill="#F5F5F5"/>
<rect width="708" height="421" rx="15" fill="url(#pattern0_339_224)" fill-opacity="0.1"/>
<defs>
<pattern id="pattern0_339_224" patternUnits="userSpaceOnUse" patternTransform="matrix(117.008 0 0 65.5172 339.931 0)" preserveAspectRatio="none" viewBox="-7.40063 0 365.649 204.741" width="1" height="1">
<use xlink:href="#pattern0_339_224_inner" transform="translate(0 -204.741)"/>
<use xlink:href="#pattern0_339_224_inner" transform="translate(182.825 -102.371)"/>
<g id="pattern0_339_224_inner">
<path d="M36.5746 19.1727C36.5607 19.3188 36.373 19.8629 36.318 20.1007C36.1842 19.7827 36.625 18.6542 36.5746 19.1727ZM24.9363 46.555C25.2038 46.4752 25.4603 46.395 25.7325 46.311C24.9539 46.3651 23.9416 46.4947 23.2485 46.4959C23.1341 46.4961 23.4168 46.3206 23.1487 46.334C22.8858 46.3466 22.9527 46.5526 22.5674 46.6018C22.1341 46.6606 20.1863 46.6215 19.5341 46.6495C17.0704 46.7696 14.6603 46.9448 12.2763 46.9091C14.731 46.6999 12.247 46.597 11.5687 46.6778C11.4161 46.6963 11.4478 47.0869 8.99419 47.0372C7.44768 47.0056 8.85437 46.419 6.27859 46.7507C8.2832 47.1007 6.32054 47.1122 4.76563 47.1584C4.50293 47.1659 2.32414 47.1553 1.37939 47.196C1.26044 47.201 1.11908 47.2326 0.965687 47.2717C0.877881 47.3048 0.828922 47.3451 0.887124 47.3707C0.937868 47.3808 1.04419 47.3905 1.35345 47.3521C1.4688 47.2912 1.6888 47.4801 3.52836 46.6513C4.01054 46.3996 4.65973 46.048 5.49454 45.2284C5.70133 45.0219 5.91705 44.7835 6.13388 44.5048C6.24223 44.3656 6.35075 44.2163 6.45779 44.0563C6.51132 43.9763 6.56446 43.8936 6.61699 43.8082C6.66511 43.7311 6.77524 43.5438 6.85084 43.4009C7.51966 42.2001 7.92368 40.4033 7.71011 38.8248C7.20926 35.5456 5.57153 34.3413 4.87478 33.7134C4.08571 33.0924 3.60352 32.8856 3.31426 32.7435C2.8155 32.5161 2.58782 32.4543 2.41556 32.4013C2.25521 32.3549 2.14019 32.3309 2.11902 32.3307C2.04021 32.3214 2.01135 32.3297 2.01152 32.3433C2.02251 32.3729 2.09466 32.4142 2.26535 32.44C3.93232 32.6825 6.14535 32.9527 8.18305 33.2744C6.89162 33.6273 9.11315 33.6284 9.2088 33.6681C9.68801 33.8784 7.42389 33.6058 8.30664 33.8179C9.55227 33.9734 10.8115 34.1351 12.0787 34.308C11.0505 34.0891 13.5196 34.076 13.9458 34.3212C13.8028 33.8049 19.7572 35.7131 20.8607 35.8774C21.1115 35.9214 19.6502 35.2607 23.0416 36.2895C23.4533 36.4262 23.2545 36.5127 23.4747 36.5682C23.6131 36.6124 24.4728 36.3793 25.6119 37.1636C25.7827 37.2839 25.3668 37.1706 25.2818 37.2042C25.2385 37.2203 25.2713 37.2644 25.4973 37.392C25.6115 37.457 25.771 37.5413 26.0112 37.6732C26.3021 37.8345 26.6794 38.0373 27.2451 38.4383C27.7443 38.7985 28.4139 39.3054 29.2034 40.0955C28.3787 39.0055 30.3437 40.5496 31.6215 42.9046C32.9332 45.2509 33.3563 47.6495 33.4565 48.3314C33.4541 48.0386 33.4472 47.7451 33.4307 47.4365C33.622 48.897 33.7789 49.068 33.8332 49.3722C34.0243 50.5849 34.0477 52.0954 34.1542 53.0577C34.2764 54.1786 34.5565 54.1581 34.5423 55.4215C34.5827 55.1225 34.6219 54.8179 34.6596 54.5117C34.7154 55.3921 34.7585 56.2439 34.7984 57.0789C34.2963 55.1621 34.8093 57.5005 34.8256 57.6469C34.8549 57.8913 34.68 57.5515 34.725 57.9548C34.7308 57.9962 34.8705 57.9275 34.9267 58.5498C34.9491 58.7982 34.9601 58.9928 34.9635 59.1483C34.9587 59.4574 34.8424 59.4488 34.8728 59.6791C34.8806 59.7115 34.9817 59.5749 35.1056 60.1146C35.6364 62.1147 34.9787 60.0683 34.9764 60.0579C34.9567 60.0147 34.841 60.1709 34.7198 60.1428C34.6041 60.1223 34.449 59.8614 34.4937 59.2083C34.4666 59.6448 34.2479 59.7431 34.2471 59.796C34.2357 59.8231 34.4459 60.7691 34.4815 60.8538C34.6848 61.3748 34.7343 60.8614 34.7872 60.9604C34.8116 61.0002 34.9956 62.5536 35.5954 62.8621C35.3909 63.823 35.0327 62.4135 34.6847 61.3045C34.5434 61.1388 34.7982 62.4852 34.8308 62.5901C35.3611 64.5273 35.4299 63.3619 35.7784 63.7318C35.9633 63.9336 35.9459 64.8567 36.0581 63.9806C36.6031 65.9001 36.1056 64.7832 36.1106 64.9104C36.121 65.1143 36.3888 65.7841 36.3973 65.8758C36.4103 66.008 36.1888 65.5918 36.2725 66.1056C36.2871 66.1899 36.6813 66.9761 36.5162 65.885C36.831 67.313 36.9621 67.1714 36.7355 67.7322C37.5813 68.5981 36.5108 68.5369 36.5532 68.9342C36.6572 69.9897 37.099 69.6043 37.1344 69.6529C37.3785 70.0078 37.6456 72.9459 37.7819 73.6504C37.393 73.4146 37.4835 71.3604 37.3299 70.907C36.8616 69.4486 37.4688 73.0514 36.8471 72.0275C37.0386 72.4747 37.2213 72.8932 37.4036 73.3452C37.2017 74.2033 36.9569 73.0483 37.2891 75.259C37.582 75.5969 37.0897 73.6917 37.3286 74.0571C37.4761 74.2853 37.6257 75.5647 37.6878 75.5882C37.7673 75.6099 37.565 74.4405 37.6974 74.6168C38.0115 75.0158 38.0784 79.257 37.7043 76.0451C37.7826 76.9601 37.317 77.4434 37.5153 78.2022C37.6365 78.7001 38.1922 75.8402 38.2595 80.0779C38.0322 80.1708 38.1211 78.3953 38.0962 78.344C38.0669 78.2806 37.5566 78.6304 37.5332 78.6877C37.4914 78.8168 37.6319 80.2369 37.6764 81.6271C37.6756 81.5851 37.6768 81.5188 37.6615 81.3098C37.6594 81.283 37.657 81.2535 37.6539 81.2202C37.6494 81.1704 37.6361 81.0343 37.6122 80.8725C37.5854 80.7011 37.5541 80.4841 37.4473 80.0842C37.3013 79.6673 37.2679 79.1205 36.3079 77.7606C35.7492 77.0897 35.0845 76.14 32.9688 75.3704C30.5287 74.4678 27.6357 75.5517 26.6331 76.4539C25.4916 77.3685 25.1584 78.0121 24.8836 78.4492C24.6306 78.8908 24.5181 79.1708 24.4299 79.3917C24.2646 79.8236 24.2175 80.0272 24.1743 80.1896C24.1556 80.2639 24.1491 80.2924 24.1392 80.3352C24.0218 80.8966 24.0625 80.752 24.0514 80.7953C24.051 80.7929 24.0626 80.6909 24.0711 80.6139C24.0915 80.4293 24.1146 80.2295 24.1396 80.0483C24.1907 79.6751 24.2503 79.3653 24.3233 79.1896C23.9898 79.5066 24.532 76.2144 24.4724 75.8402C24.4554 75.7415 24.237 76.0853 24.2265 75.9804C24.1662 75.3243 24.6569 73.6054 24.7436 72.7874C24.84 71.8742 24.669 71.9732 24.6741 71.9224C24.7221 71.5195 24.7998 71.8526 24.8235 71.6058C24.8556 71.237 25.1453 68.6555 25.1417 68.5161C25.1389 68.4768 24.9081 68.8847 24.9367 68.3094C24.9442 68.2058 25.143 68.3135 25.2602 66.5751C25.2696 66.4421 25.2762 66.3328 25.2801 66.2436C25.3637 65.3465 25.2654 65.6383 25.1231 66.2233C24.968 66.7311 24.7609 67.5903 24.6916 67.0954C24.8435 66.6941 24.9195 66.3991 24.95 66.201C25.0626 65.4593 24.9456 65.3418 25.042 64.9386C25.0892 64.7263 25.6867 63.293 26.2279 61.9174C25.8763 62.9286 25.5828 64.0191 25.3989 65.1952C25.6425 64.03 26.2719 62.0279 26.6752 61.3031C26.8663 60.9435 26.9287 61.3306 27.2947 60.5529C27.3808 60.4085 27.1723 59.4392 26.4504 61.6796C26.1939 61.7772 26.7505 60.7894 26.9282 60.3245C26.9533 60.2562 26.7941 59.8265 27.2749 59.371C27.4138 59.3062 27.3712 61.0093 28.9242 57.2984C28.9773 57.1812 28.6302 57.4771 28.6793 57.361C28.711 57.2764 29.3265 56.4909 29.3798 56.3976C29.4314 56.2962 29.0428 56.6052 29.1008 56.4825C29.4016 55.8464 30.3474 55.4688 29.4815 56.5493C29.8091 56.2124 30.1403 55.889 30.4745 55.577C29.8645 55.7111 30.8358 54.9474 31.2336 54.4841C33.8242 51.5578 31.8705 53.3057 32.2324 52.7209C32.8435 51.8072 32.7277 52.8485 33.7273 51.6161C33.8307 51.5157 32.2058 52.5546 35.0891 50.2102C34.6813 50.5717 34.278 50.9434 33.8826 51.3227C34.364 51.381 35.3408 49.9967 35.443 49.9148C36.3809 49.0899 36.0087 49.5075 36.8931 48.7022C37.0824 48.5389 37.3147 48.3411 37.6157 48.0994C37.8069 47.9449 38.2978 47.728 38.7101 47.4242C40.0351 46.4847 37.8765 47.6966 36.7556 48.5212C36.481 48.7081 36.2733 48.8415 36.2306 48.8287C36.2094 48.8226 36.393 48.6615 36.6856 48.4289C37.8594 47.4248 40.5988 46.0055 40.7244 46.0143C41.4649 45.8091 38.6599 47.149 39.2836 47.0593C39.3908 47.032 41.0826 46.0648 42.8597 45.4037C44.6449 44.7162 46.3968 44.2758 46.9597 44.176C48.2773 43.9504 48.8855 44.3524 48.7757 43.7842C49.23 44.2634 49.4295 43.825 49.5732 43.7975C51.2519 43.4785 51.2566 43.4898 52.3046 43.14C52.3759 43.1148 52.4463 43.1102 52.5108 43.1134C52.7763 43.0775 52.9963 43.0862 53.0947 43.0374C53.1808 42.9948 52.958 42.8656 53.3912 42.6854C54.0259 42.3632 57.7119 41.8947 57.9253 42.0144C58.1987 42.0749 56.4675 42.2649 56.7998 42.3881C58.0665 42.2053 59.2027 42.0472 60.3531 41.9702C60.8276 41.9401 60.5933 42.0761 60.7993 42.0625C60.888 42.0536 62.4771 41.8477 62.4042 41.8113C62.3142 41.6739 57.1336 42.225 58.4723 41.8969C58.7459 41.823 59.7121 41.999 59.5315 41.6883C64.1273 41.3664 68.0679 41.395 72.1538 41.2942C72.1581 41.2945 72.1606 41.2948 72.1612 41.2952C72.1608 41.2977 72.1584 41.3002 72.1542 41.3028C69.8403 41.6262 67.224 41.4985 64.7165 41.631C64.3764 41.6479 63.1795 41.6753 63.3341 41.8338C65.5318 41.7639 68.1343 41.5892 70.1476 41.6213C70.2126 41.6224 69.9803 41.7798 70.2238 41.7943C70.6019 41.817 71.6667 41.6164 72.1647 41.5787C72.1859 41.5741 72.1713 41.5766 72.1568 41.5881C72.1514 41.5936 72.1982 41.6213 72.1681 41.665C71.955 41.7452 71.6881 41.8622 71.8507 41.9345C71.977 41.9905 72.0851 42.01 72.1811 42.0048C72.2066 42.0023 72.2056 41.9713 72.1571 41.9309C72.1044 41.8924 72.0266 41.8349 71.73 41.8289C71.5558 41.8369 71.3778 41.8239 70.7962 41.9953C70.6342 42.0469 70.4782 42.0991 70.2267 42.209C69.9439 42.3372 69.6346 42.4875 69.1862 42.798C68.9177 42.9871 68.6166 43.2273 68.2953 43.5522C68.133 43.717 67.976 43.8906 67.7997 44.1147C67.5926 44.3792 67.3862 44.6842 67.1968 45.0312C66.3899 46.3228 66.1535 48.796 66.6698 50.1904C66.873 50.8589 67.1452 51.3922 67.4079 51.8122C67.6644 52.2162 67.8415 52.4338 68.0397 52.6649C68.4494 53.1266 68.6736 53.3065 68.9005 53.495C69.3264 53.8346 69.5556 53.9649 69.7258 54.0694C70.0736 54.2725 70.2133 54.3302 70.3249 54.3765C70.6611 54.5046 70.5814 54.4145 70.2161 54.282C69.3983 53.9834 68.0813 53.6022 67.603 53.6554C66.861 53.7364 69.5183 54.1899 69.2608 54.3365C67.5229 54.1378 65.6403 53.5902 63.8027 53.2749C63.7702 53.2696 64.0247 53.4666 63.6108 53.4114C62.8888 53.3151 62.7362 53.0737 62.3905 52.9755C62.0199 52.8713 60.6558 52.6443 60.4864 52.5329C60.4652 52.5186 60.7805 52.3676 60.8232 52.3697C61.4321 52.3987 61.5903 52.7023 61.6435 52.7159C61.8421 52.7636 62.06 52.6992 62.2408 52.7391C62.5402 52.8052 62.6871 52.9296 63.0805 53.0108C63.3506 53.0669 63.1218 52.8381 63.382 52.8946C63.4791 52.9164 64.4299 53.5175 64.6008 53.1142C64.6996 53.0092 57.7158 51.5793 55.5848 51.0879C55.381 51.0461 55.2276 51.0185 55.1442 51.0097C55.2888 51.0541 55.4317 51.0981 55.5723 51.1416C56.1742 51.3239 56.7736 51.4992 57.37 51.669C56.7825 51.4935 56.13 51.3702 55.5471 51.2499C54.7048 51.0796 53.9618 50.912 53.9549 50.5911C52.1955 50.153 50.2399 49.627 48.184 48.7728C47.2625 48.4581 45.6681 46.9322 45.1239 46.1246C43.2002 42.3702 43.2637 40.5273 42.8639 38.239C42.5814 36.0586 42.4459 33.983 42.3689 31.9256C42.371 30.8666 42.7095 31.4337 42.5717 29.711C42.4774 30.1525 42.3863 30.6116 42.2981 31.0581C42.32 30.1595 42.4396 26.2607 42.3987 25.6342C42.3919 25.5528 42.0964 25.437 42.0939 24.4621C42.0939 23.601 42.3204 23.4669 42.3785 23.0106C42.4272 22.6264 42.388 22.1897 42.4052 22.0765C42.4188 21.9892 42.5548 21.9605 42.588 21.7507C42.6925 21.0883 42.2869 21.608 42.7557 20.9699C42.7638 21.1313 42.7723 21.2929 42.781 21.4548C42.8826 20.6547 43.1459 19.5729 43.1759 20.7575C43.1817 20.961 43.0609 20.78 43.0531 20.9312C42.8355 26.858 43.2488 22.1364 43.178 20.0531C43.3927 19.5328 43.5054 16.5428 43.5608 16.4462C43.6282 16.3135 43.7358 16.8368 43.9291 16.1809C43.948 16.1168 44.0156 15.208 44.1071 14.411L44.0914 14.5853C44.1524 13.8162 44.216 13.1169 44.3172 13.8044C44.3323 13.9076 44.3179 14.2344 44.2887 14.5997L44.3039 14.4321C44.2288 15.0896 44.1328 15.8966 44.1122 16.1743C44.3136 15.7606 44.3829 15.1021 44.4021 14.4427L44.3873 14.6069C44.3717 13.7518 44.1981 12.8372 44.2136 12.6847C44.321 11.6421 44.4823 14.7046 44.6292 12.3524C44.7264 10.5172 44.3974 12.2339 44.303 11.5233C44.2532 11.1283 44.595 9.02457 44.2021 9.07313C44.1711 8.3437 44.3712 8.77349 44.3874 8.6836C44.4025 8.5965 44.3018 7.15823 44.3865 6.68919C44.3972 6.63256 44.5985 6.81256 44.6156 6.75409C44.6454 6.64078 44.6127 5.24438 44.5953 5.18786C44.5836 5.15208 44.4046 5.48419 44.3622 5.34691C44.3137 5.18863 44.3596 3.84193 44.3087 3.76632C44.2326 3.66265 44.278 5.32413 44.0803 5.04656C44.1335 4.28154 44.0032 3.03106 43.8438 2.52302C43.8894 2.64677 43.895 3.39269 43.8783 3.65035C43.5882 3.52869 43.5938 1.92934 43.8233 2.47639C43.7 2.1283 43.6343 2.36588 43.5179 2.16956C43.4884 2.11871 43.4826 1.62338 43.4322 1.52825C43.4222 1.51557 43.3123 2.02658 43.2534 1.92417C43.1469 1.73924 43.1711 0.237629 43.199 0.11389C43.2783 -0.232551 43.3743 0.993976 43.4968 1.09536C43.5157 1.11038 43.7559 0.0678991 43.7772 0.051743C44.0048 -0.00889665 43.8407 1.15117 44.0457 1.01828C44.089 0.731851 44.1323 0.444711 44.1756 0.157689C44.3835 1.26579 44.2753 3.30678 44.5098 3.8317C44.4431 2.19964 44.4504 0.482077 44.9823 0.485361C45.2062 0.486649 45.3374 1.19417 45.3943 1.16697C45.5981 1.06288 45.3768 0.0800687 45.3876 0.0435898C45.4 0.0136659 45.4121 6.2995e-06 45.4238 0C45.4238 0 45.4238 0 45.4238 0C45.5431 0.000611226 45.629 1.4012 45.6833 1.47112C45.78 1.58914 46.1784 0.965547 46.2665 0.966773C46.2842 0.988381 46.3781 1.98568 46.5319 1.64916C46.6873 1.30954 46.6908 0.435342 46.7069 0.405064C46.7999 0.238123 46.8844 1.76574 46.9391 1.81123C46.9669 1.83508 47.1375 1.01514 47.1864 0.991297C47.2356 0.970706 47.3427 1.59398 47.4977 1.83999C47.6129 2.02332 47.7015 1.48958 47.7195 1.58355C47.7316 1.65103 47.7285 3.09353 47.7484 3.16405C47.7782 3.26952 47.9165 2.9324 47.9508 2.98151C48.0003 3.05117 47.9498 3.5169 48.0009 3.45642C48.0393 3.41082 48.5158 1.60557 48.6424 1.6164C48.8588 1.63765 48.3596 3.55114 49.2146 1.77053C49.2202 1.75779 49.1597 1.32459 49.1649 1.31239C49.3221 1.04486 49.5634 2.43503 49.5215 0.73509C49.7932 3.89735 49.8467 1.12886 50.2108 1.59665C50.3509 1.77793 50.4076 3.00399 50.4284 3.01024C50.6062 2.89107 50.4689 2.50013 50.5561 2.36727C50.6049 2.29414 50.7914 3.3923 50.9136 3.14534C50.9768 3.01777 50.9554 1.85189 50.9676 1.80396C51.0834 1.34233 51.2077 1.90857 51.2898 1.80717C51.345 1.73941 51.3495 1.03666 51.3594 1.01835C51.3801 0.988499 51.6023 1.94399 51.6803 2.1426C51.7404 2.29379 51.835 1.72651 51.8611 1.83193C52.0178 2.4679 51.6159 3.82194 52.1781 2.51756C52.2125 2.43797 52.199 1.94435 52.2058 1.93001C52.3649 1.6251 52.3781 2.53393 52.508 2.69621C52.7319 2.97561 52.6081 1.66945 52.7648 2.75575C52.9122 1.94049 52.9062 1.48682 52.8654 0.534476C52.9789 3.17166 53.5577 4.10694 53.545 1.17469C53.5357 2.10662 53.8632 2.00358 53.8688 2.28205C53.872 2.455 53.5444 3.80914 54.276 3.18905C54.3674 3.1115 54.2523 2.2883 54.4389 2.54621C54.3886 4.52189 54.5579 2.58797 54.5824 2.58617C55.0156 2.60745 54.648 7.45171 54.6797 8.30083C54.7254 9.27527 55.0474 10.1593 55.0433 10.3722C55.0282 11.0805 54.8687 10.4894 54.802 10.6462C54.7392 10.8005 55.0093 12.8365 54.9826 12.9474C54.8939 13.3451 54.7064 12.9285 54.6943 12.9713C54.61 13.2577 54.593 14.3053 54.5394 15.35C54.5346 15.3862 54.529 15.4958 54.523 15.5319C54.4713 16.1658 54.4297 16.7724 54.3832 17.0606C54.5152 17.0508 54.6636 15.6606 54.789 16.5503C54.9386 17.5819 54.3561 17.5901 54.3273 17.6143C53.9302 22.2656 53.7943 26.9998 54.0016 31.5886C54.2967 31.5285 53.9813 28.5144 54.0332 28.4428C54.244 28.0466 54.3941 33.12 54.3753 33.7149C54.4065 33.2417 54.4438 32.7806 54.4848 32.309C54.881 33.0867 54.5487 34.856 54.8428 35.9287C54.9361 36.2747 54.9912 35.5795 55.0034 35.5941C55.1856 35.9818 55.1607 36.6014 54.9165 36.1668C55.2187 37.0881 55.0068 36.9793 55.1059 37.6671C55.1115 37.7 55.2013 37.3897 55.3561 37.9105C55.4221 38.1753 55.6998 39.3461 55.8549 39.3703C55.9191 39.4085 56.3245 38.7857 55.8427 38.8259C55.7886 37.5106 55.535 38.4608 55.4408 37.9433C55.432 37.8479 55.7117 38.0439 55.3682 36.5928C55.8765 36.8259 55.8053 38.4905 55.9268 38.6746C56.1499 39.1709 55.9496 36.9875 55.5323 36.5106C55.9368 36.6724 55.5552 36.331 55.5028 35.7554C55.4472 35.1223 55.591 35.3879 55.5549 35.0418C55.4658 34.0963 55.236 34.502 55.411 33.694C54.7284 34.5372 55.2083 32.3178 55.3828 31.6676C55.4697 32.7036 55.5774 33.7325 55.7108 34.7237C55.7442 34.6637 55.7778 34.6036 55.8114 34.5432C55.8298 34.8015 55.8512 35.0693 55.8735 35.3249C55.8319 35.288 55.7902 35.2508 55.7486 35.2133C56.1367 36.5133 55.9251 36.8233 55.9348 36.9318C56.0179 37.5846 56.1381 38.2632 56.2712 38.802C56.3825 39.316 56.6164 39.8024 56.448 39.4669C56.4443 39.4606 56.4416 39.4542 56.4396 39.4477L53.1671 36.6158C53.3119 36.6397 53.2828 36.4456 54.4049 37.0105C54.8039 37.2001 54.347 37.2571 54.8438 37.3784C55.611 37.0668 55.4958 37.4554 55.6909 37.5099C56.2571 37.6611 56.6654 37.6275 56.7203 37.6401C57.2226 37.7502 57.9089 37.9149 58.6156 38.0784C58.9335 38.1521 59.2466 38.221 59.5309 38.2776C59.5472 38.2792 59.139 38.0266 59.6815 38.1948C59.8669 38.2552 61.4886 39.2937 63.1328 39.3814C62.726 39.2569 62.3236 39.132 61.9231 39.0056C62.3755 39.1686 65.8637 39.6473 65.0528 39.3115C64.5494 39.1067 63.2116 39.2964 63.1559 38.8588C64.2009 39.1948 70.818 40.2062 71.441 40.4754C71.5128 40.5047 71.0214 40.5397 71.122 40.5787C71.1919 40.6026 72.83 40.931 73.0518 41.0442C73.1767 41.1052 72.4188 41.012 72.4703 41.0751C72.4894 41.0962 72.9415 41.2208 73.4493 41.3491C73.7729 41.4309 74.1391 41.5203 74.5452 41.6283C74.9228 41.7222 75.513 41.9212 75.7192 41.9703C74.3642 41.4428 73.8497 41.3849 73.4795 41.2283C73.3199 41.1626 73.2843 41.1153 73.5062 41.1213C73.5323 41.1226 73.5618 41.1247 73.5951 41.1276C73.6991 41.1336 74.303 41.4086 74.5326 41.4591C75.6868 41.7293 74.3045 41.2071 73.5316 41.0197C72.7792 40.8176 71.8895 40.6344 71.6509 40.5824C72.2065 40.6422 72.8468 40.7614 73.5537 40.9312C74.0198 41.054 74.3253 41.096 75.4036 41.498C75.562 41.561 75.7363 41.6309 76.0178 41.766C76.3132 41.93 76.6 41.9873 77.6024 42.7857C77.9854 43.3042 79.3111 43.5864 80.0891 47.3334C80.3925 49.3551 79.5309 51.5308 78.6138 52.606C77.9057 53.5049 77.089 54.0467 76.7575 54.2476C75.0981 55.1627 74.8697 55.027 74.4572 55.1615C73.7941 55.2972 73.5376 55.3049 73.2886 55.3287C73.0441 55.3476 72.8677 55.3546 72.694 55.36C71.627 55.384 70.5599 55.4105 69.6346 55.5057C68.7618 55.3963 70.9181 55.2414 69.9291 55.1606C67.8783 54.9932 69.3954 55.3763 69.3318 55.3967C68.8254 55.5581 67.0836 54.8579 67.1104 55.4407C66.3743 55.3822 66.607 55.2985 65.591 55.418C65.7301 55.4524 65.8599 55.4872 65.9969 55.5219C64.8703 55.9015 62.5071 55.181 62.683 55.1094C63.1288 54.9049 64.364 55.1124 64.474 55.1015C64.625 55.0853 65.0296 54.4699 66.7882 54.9286C67.48 54.5017 64.0295 54.7774 65.5911 54.4395C64.4933 54.5123 60.2962 54.5037 59.8455 54.7752C59.7865 54.8071 60.1201 55.1566 59.1968 55.0781C58.7612 55.0426 59.7822 54.8964 59.5789 54.8345C59.31 54.7611 57.8262 54.8845 56.3488 55.3495C52.3172 56.4926 49.0595 57.0849 48.2649 57.4404C48.1737 57.4699 48.1697 57.3423 48.0804 57.3725C47.7928 57.4625 46.9291 57.9772 46.5189 58.1166C47.4498 57.9439 45.8324 58.69 45.5288 58.9003C45.0863 59.1471 44.9593 59.062 44.7837 59.0942C44.739 59.1088 44.6915 59.1294 44.6374 59.1613C43.3544 59.9001 42.066 61.7967 41.0067 62.2714C41.3877 62.5405 39.5897 63.5155 39.1351 64.2084C38.7524 64.7448 38.6004 65.6386 39.1762 65.0562C38.6008 65.92 38.2962 66.8416 38.1815 67.4371C38.1622 67.5356 38.0574 67.3683 38.0309 67.5376C38.0302 67.5523 38.1576 67.6066 38.1484 67.7354C38.1443 67.7993 38.142 67.8538 38.1403 67.9011C37.9602 69.9193 37.8332 68.8098 37.6977 69.2573C37.6177 69.5311 37.5716 69.7284 37.547 69.8794C37.6106 69.1947 37.6783 68.4704 37.7425 67.8498C37.7627 67.5215 37.8481 67.166 37.891 67.0267C37.7263 67.0804 37.6065 67.4817 37.5986 67.8312C37.5166 68.7749 37.4795 69.8992 37.384 70.3741C37.3777 70.4046 37.2225 70.2793 37.218 70.3105C37.2179 70.3111 37.2178 70.3118 37.2177 70.3124C37.1664 70.6419 37.0123 72.7916 37.256 72.3705C37.321 72.2584 37.4178 71.2654 37.5255 70.1106C37.529 70.4252 37.741 70.2135 37.743 70.2692C37.7615 70.9451 37.4121 72.5853 37.3314 73.1757C37.313 73.3104 37.4338 73.3123 37.4319 73.3345C37.3532 73.8706 37.0321 73.6159 37.3328 74.2036C36.8139 75.1401 37.4432 72.3681 37.1489 72.5411C36.9114 72.6578 36.4596 78.9423 36.7999 78.9667C36.762 78.9853 36.7096 79.0702 36.6433 79.2409C36.4965 79.6216 36.3715 81.4143 36.3937 81.7753C36.3995 81.8389 36.7278 81.8482 36.7228 81.9247C36.7199 81.9633 36.706 82.0382 36.673 82.2302C36.6576 82.3133 36.6381 82.4309 36.6016 82.6306C36.5952 82.661 36.575 82.7841 36.5477 82.9179C36.5331 82.9898 36.5154 83.0748 36.4856 83.1976C36.4738 83.245 36.4839 83.2069 36.4473 83.3483C36.4144 83.4704 36.3736 83.6208 36.2852 83.8657C36.1841 84.1188 36.0928 84.4385 35.641 85.1326C35.3985 85.4796 35.0676 85.955 34.3001 86.5418C33.5694 87.1072 32.1123 87.8225 30.388 87.6812C29.5734 87.633 28.6717 87.3217 28.2038 87.0721C27.715 86.8245 27.3249 86.5414 27.0163 86.2732C26.4 85.7305 26.0844 85.2625 25.8612 84.9012C25.4353 84.1763 25.34 83.7919 25.2473 83.4984C25.0923 82.935 25.0821 82.7261 25.0564 82.5401C25.033 82.3211 25.0404 82.3713 25.035 82.3057C25.032 82.2623 25.0299 82.2238 25.0282 82.1886C25.0218 82.0488 25.0213 81.9541 25.0215 81.8666C25.0683 81.152 25.0989 80.113 24.9486 79.638C24.9208 80.0335 24.8909 80.4509 24.8574 80.8569C24.7635 78.4145 24.6633 78.7911 24.6112 79.6156C24.6123 79.6574 24.6016 79.6951 24.602 79.7334C24.5585 80.3547 24.5118 81.1761 24.4858 81.185C24.4138 81.2293 24.139 77.1293 24.4791 77.902C24.534 78.0049 24.5038 79.9117 24.6688 78.9596C24.7009 78.7997 24.5577 77.5798 24.5743 77.5191C24.7092 77.0787 25.0875 79.7208 25.288 79.3944C25.0415 78.7467 25.1034 77.9159 24.987 77.175C24.9345 76.8405 24.7633 76.7769 24.7567 76.7363C24.6577 76.1206 24.8606 76.4519 24.8369 76.2459C24.8266 76.1353 24.3303 74.9727 24.8566 75.1437C23.9506 71.2823 24.3994 74.0783 24.6547 76.5192C24.4056 75.7654 24.3159 74.2649 24.1709 73.6087C24.1207 73.377 23.9759 73.5422 23.8803 73.146C23.7284 72.3346 23.0824 68.4893 22.7842 67.3673C23.0175 68.0045 23.1446 67.7688 22.995 67.264C22.8424 66.7517 22.7238 67.2492 22.671 67.1555C22.6281 67.1013 22.0222 64.464 21.8739 63.8827C22.4998 66.0448 22.5509 65.5365 22.1189 63.6479C22.2334 63.9168 22.3508 64.1813 22.4672 64.4312C22.1205 63.4622 21.9332 60.9014 21.8627 59.9989C21.8588 59.9732 21.8547 59.9496 21.8501 59.9283C21.8408 59.8854 21.8045 59.9416 21.7684 60.005C21.732 60.0954 21.6971 60.1965 21.6907 60.1617C21.6833 60.1182 21.6765 60.0678 21.6704 60.0113C21.5954 59.4145 21.6362 57.951 21.5823 57.8886C21.5345 57.8266 21.4513 58.5346 21.3709 58.2786C21.354 58.2251 21.5182 57.535 21.4213 56.8837C21.3856 56.6439 21.2505 56.7994 21.2379 56.7395C21.1312 56.2388 21.3994 56.5159 21.2889 55.6076C21.2056 54.9486 20.9267 54.4839 20.9108 53.6239C20.8887 56.5345 20.7984 54.0382 20.5558 52.955C20.5151 52.7885 20.2844 52.94 20.2486 51.9462C21.0542 54.0164 20.415 51.2212 20.2845 50.868C20.2797 50.8439 20.4473 50.7883 20.392 50.5763C20.3869 50.56 20.2804 50.6106 20.2181 50.4327C19.9166 49.6369 19.8936 49.687 19.9309 49.6521C19.9687 49.6439 20.0811 49.7382 20.0865 49.6124C20.0891 49.5586 19.9906 49.4277 19.9028 49.3582C19.8134 49.2842 19.7398 49.2651 19.7229 49.2487C19.7153 49.241 19.81 49.162 19.7749 49.1328C19.7351 49.1009 19.6649 49.1164 19.6029 49.1236C19.8163 49.3023 19.9018 49.3606 19.9313 49.3812C19.935 49.3834 19.9642 49.3442 19.9872 49.3104C20.0082 49.2766 20.0138 49.2384 19.8331 49.2039C19.7258 49.1827 19.5527 49.1965 19.7096 49.3097C19.8003 49.3784 19.88 49.428 19.9149 49.4498C19.937 49.4596 19.9095 49.473 19.5423 49.2084C19.6458 49.2438 19.762 49.2485 19.7644 49.4639C19.7619 49.6231 19.636 49.4915 19.5645 49.443C19.4947 49.3938 19.4636 49.3799 19.4514 49.3702C19.4455 49.3662 19.5525 49.3285 19.5148 49.2748C19.5117 49.2709 19.5067 49.2685 19.5001 49.2673C19.9082 49.5687 19.9172 49.6115 19.769 49.6291C19.6237 49.6405 19.3563 49.604 19.0872 49.4898C19.0613 49.4743 18.6277 49.0604 18.646 49.0497C18.6956 49.0463 19.4522 49.2023 19.3663 49.0937C19.3575 49.0793 18.8901 48.9453 18.8264 48.8666C18.7624 48.772 18.7155 48.007 18.6008 47.9594C18.3036 47.8386 18.4654 48.0499 18.264 47.9887C17.8561 47.856 16.2743 47.3055 16.1702 47.5466C16.4282 47.6129 16.7088 47.6853 16.9646 47.7547C15.4694 47.4744 16.0845 47.7134 15.8636 47.7164C15.6247 47.7226 15.7277 47.5156 15.2195 47.3994C15.1208 47.3705 12.9167 47.0362 12.9424 47.1391C14.1829 47.1961 13.6855 47.3923 13.741 47.406C13.9514 47.4602 14.2402 47.3543 14.5264 47.4084C16.4865 47.7916 14.4678 47.6674 14.9187 47.8137C15.0745 47.8634 15.4105 47.7928 15.4799 47.8129C15.6967 47.8762 15.6671 48.0457 15.8143 48.06C16.1555 48.0938 15.8112 47.7787 15.8394 47.7714C16.1685 47.6774 17.301 48.1065 16.5221 48.2152C16.9396 48.399 17.0379 48.0915 17.3588 48.2935C17.9687 48.6912 16.9834 48.402 16.7048 48.3897C15.6758 48.3348 15.4096 48.1552 13.9321 47.9375C13.4001 47.8599 12.7399 47.9093 12.4896 47.8774C12.333 47.8556 10.9254 47.0848 10.7505 47.92C10.1832 47.7497 9.34422 47.0592 8.7343 46.9977C8.18331 46.9422 8.31562 47.2654 8.26279 47.2695C8.18242 47.2764 7.52778 47.1599 7.29491 47.1704C7.02569 47.1836 7.13948 47.3153 6.7204 47.3044C5.656 47.2747 5.73586 46.9763 5.62971 46.9415C4.4018 46.5412 4.90006 47.0502 4.61877 47.0473C4.33937 47.0392 0.785615 46.4019 -0.285971 46.3153C0.130087 46.3256 0.503156 46.3205 0.828196 46.3073C0.567373 46.1714 0.193039 46.1433 -0.0443166 46.1144C-0.336321 46.0768 -0.544091 46.0289 -0.517558 45.8591C-0.57179 45.9706 -0.681273 46.0289 -0.90394 46.0295C-1.20008 45.9829 -1.07632 46.1618 -2.58187 45.561C-2.5809 45.5619 -2.82511 45.4497 -3.01859 45.3419C-3.22916 45.2255 -3.48247 45.0759 -3.80893 44.8303C-4.37652 44.3321 -5.72746 43.4768 -6.2644 40.7324C-6.49629 39.4059 -6.18343 37.8274 -5.60722 36.7863C-5.54136 36.6602 -5.45171 36.5063 -5.40303 36.4277C-5.3578 36.3539 -5.31201 36.2827 -5.26587 36.2138C-5.17358 36.076 -5.07995 35.9478 -4.98645 35.8286C-4.79937 35.5901 -4.61335 35.3874 -4.43555 35.2129C-3.71754 34.5213 -3.16799 34.2368 -2.7584 34.0299C-1.94325 33.6475 -1.55892 33.5876 -1.24394 33.5125C-1.06435 33.4754 -1.02991 33.4716 -0.976044 33.4625C-0.924463 33.4543 -0.876203 33.4472 -0.830531 33.441C-0.475156 33.3937 -0.226571 33.3858 -0.0456046 33.3834C0.214034 33.3868 0.43494 33.4038 0.626278 33.4132C0.70086 33.4204 0.764588 33.424 0.812775 33.4209C0.952168 33.4116 0.939036 33.3174 1.1128 33.3091C1.78544 33.2761 3.30774 33.3169 3.67253 33.2612C5.25424 33.0199 1.19812 32.7663 0.876385 32.7551C1.51341 32.7443 5.12711 32.5406 3.45363 32.3107C3.19856 32.2751 2.7536 32.5334 2.60841 32.5464C1.62684 32.6329 2.39535 32.3927 2.31788 32.3733C2.18113 32.3423 1.55324 32.572 1.38215 32.5505C1.3242 32.5437 1.6886 32.3334 0.750446 32.3518C1.21427 32.1443 3.81514 32.2444 4.16626 32.1916C4.28975 32.1728 3.50903 31.7713 5.75496 32.1299C5.72851 32.0917 5.70203 32.0535 5.67553 32.0153C6.92331 31.9736 8.14889 31.9336 9.39414 31.8929C9.26314 31.9848 8.57357 32.1777 9.44403 32.1224C9.94066 32.0905 9.56873 31.8991 9.61415 31.8924C10.0901 31.8331 18.0086 31.7277 19.4172 31.6076C19.9152 31.5794 21.2774 31.3393 21.3681 31.3279C21.995 31.2799 24.0815 31.1936 24.4509 31.1132C24.6948 31.0683 24.4419 30.9326 24.6593 30.9128C24.8591 30.8943 24.674 31.0804 24.7339 31.0794C25.0319 31.0771 26.4151 30.8271 27.4571 30.534C28.3419 30.2976 29.0931 30.0625 29.4266 30.0165C29.1572 30.082 28.2805 30.4505 27.5106 30.7482C27.0286 30.9511 26.6017 31.1205 26.6335 31.1642C26.6484 31.1789 27.2603 31.1736 27.3625 31.0856C27.4191 31.108 27.497 31.0888 27.5854 31.0472C27.9004 30.9108 28.3292 30.5652 28.6337 30.5407C28.6784 30.536 28.5796 30.8191 29.2729 30.6503C29.5131 30.5906 30.0451 30.222 30.6632 30.198C31.0444 30.0007 32.2625 29.522 32.9961 29.0261C33.7599 28.528 34.0299 28.1325 33.9626 28.0163C33.9556 28.0064 33.7342 28.1438 33.7541 27.9504C33.7612 27.7062 34.0365 28.1328 34.2069 27.9478C34.2132 27.9406 34.2384 27.8969 34.2671 27.8357C34.5809 27.2517 35.069 26.1765 35.0673 26.1199C35.1019 25.4386 34.2163 27.0329 34.1892 26.9916C34.1605 26.8999 34.7735 25.5292 34.8059 25.4785C34.8486 25.4312 34.6548 26.6985 35.145 25.295C35.0387 25.4338 34.9316 25.5706 34.8232 25.7068C35.0354 25.0439 35.277 25.0759 35.3577 24.9262C35.6058 24.4544 35.4725 23.8061 36.1835 23.1443C36.3721 22.9676 36.373 23.371 36.399 23.3503C36.6442 23.141 36.3483 22.6697 36.7833 22.3673C36.8141 22.3399 36.7056 23.355 37.2195 21.6899C37.1555 21.797 37.0915 21.9022 37.0265 22.0083C37.0405 21.7622 37.4779 20.0257 37.5465 19.7827C37.7656 19.0935 37.8319 19.7615 37.9761 19.0434C37.5779 19.4361 38.028 17.2447 38.251 17.4181C38.1348 17.2443 38.2013 16.7777 38.3215 16.2204C38.4809 15.4729 38.732 14.6049 38.8451 14.0644C38.9756 13.4351 39.0976 12.131 39.1546 11.9406C39.2251 11.7026 39.4298 11.8197 39.5686 11.3991C39.6084 11.2761 39.7184 9.95276 40.1793 8.89208C40.2692 8.68274 40.7355 8.31369 40.7452 8.73066C40.761 9.44669 40.1848 10.6935 40.4083 10.7247C40.6482 10.7515 40.8789 8.96431 41.007 8.50568C41.5977 6.3824 41.5882 7.68041 41.6769 7.63696C41.8921 7.52961 42.1226 6.36808 42.1478 6.32289C42.2616 6.13766 42.2432 6.98584 42.352 7.02444C42.4971 7.06609 42.9849 6.00261 42.9834 6.26645C42.9825 6.645 42.5511 7.6312 42.5467 7.70329C42.5109 8.59058 43.0941 7.48141 43.3251 7.19376C43.3963 7.10617 43.4007 7.51395 43.4323 7.43567C43.9114 6.24187 43.0109 7.07589 43.2213 6.26659C43.4063 5.54495 43.4451 6.52756 43.4624 6.50199C43.4837 6.46894 43.6659 5.59992 43.7691 5.4801C43.828 5.41472 43.8067 7.78214 44.0161 7.72907C44.1243 6.98531 44.228 6.24614 44.3206 5.51745C44.5869 5.50479 44.1978 6.51949 44.2017 6.62969C44.2109 6.85789 44.4591 6.27687 44.5341 6.31695C44.5821 6.34335 44.623 7.09121 44.8253 6.46107C44.8949 6.24046 44.8099 5.74445 45.1361 4.97402C44.8425 7.82166 45.3496 5.91059 45.4577 5.83806C45.5632 5.77269 45.5176 7.16643 45.7907 5.5177C46.2978 5.53678 45.9409 5.58395 45.9394 6.06519C45.9334 6.66294 46.3603 5.36131 45.8203 7.43956C46.0778 7.3663 46.3905 5.67326 46.4215 5.58688C46.4527 5.51196 46.4963 5.91139 46.5599 5.78352C47.2944 4.27493 46.8928 5.33149 47.2605 4.91885C47.2972 4.88211 47.6432 3.38592 47.5014 4.54603C47.2205 6.66177 46.6927 7.46795 47.325 7.9603C47.9506 6.46886 47.8306 4.49003 47.8873 4.01108C47.9832 3.2807 48.0166 4.05653 48.0697 3.9731C48.0885 3.94512 48.1655 3.30971 48.1767 3.30187C48.798 2.92403 47.755 6.12671 47.625 7.13981C47.7588 6.88189 47.8908 6.62918 48.0231 6.36797C47.9555 6.742 47.8868 7.11027 47.8164 7.4796C48.3223 5.75054 47.892 7.42887 48.2329 7.95497C48.3097 8.07446 48.3771 6.88151 48.3797 8.258C48.6385 7.29636 48.6654 7.62397 48.7159 6.71304C48.8886 6.76834 48.6851 8.80444 48.6085 9.59904C49.3698 6.87217 48.4226 8.33449 49.2191 5.97853C49.0866 5.49011 48.9154 6.6556 48.8965 6.55355C48.8318 6.19614 49.1878 5.4307 48.8913 4.3894C48.8413 4.22059 48.5145 4.85099 48.6735 3.86767C48.6927 3.75726 48.9706 3.14884 48.9824 3.15814C49.1261 3.26235 48.9833 3.88652 49.0415 3.92294C49.0997 3.95493 49.1593 3.24435 49.1747 3.24259C49.3696 3.24532 49.1696 3.84409 49.2408 3.76279C49.3986 3.59896 50.1418 1.0443 49.574 4.40998C49.7372 1.58811 49.4371 4.04057 49.3312 5.10398C49.3055 5.37993 49.4081 5.46291 49.3781 5.85695C49.341 6.35569 49.1764 6.91872 49.1484 7.1718C49.1174 7.44568 49.6884 5.96474 49.1686 8.16615C49.6638 7.09679 49.7623 5.03226 50.1071 3.87934C50.8015 1.52803 50.3448 5.61995 50.2734 5.99871C50.2637 6.10998 50.4821 5.77052 50.4784 5.84512C50.4773 5.97536 49.9861 8.14603 50.0655 8.37715C50.1487 8.6153 50.2188 7.58462 50.3624 7.5429C50.4634 7.51874 50.089 10.1496 50.4367 8.75748C50.6803 7.79657 50.6676 5.90605 51.1015 5.64994C50.8745 7.14692 50.6113 8.58352 50.3485 10.0047C50.6549 9.26116 50.9604 8.51268 51.2619 7.74659C50.9872 9.38145 50.5306 10.7135 50.4254 12.2456C51.6464 8.75121 50.5497 13.4907 50.5986 13.5454C50.6286 13.5689 51.3001 12.2465 51.4174 12.0325C51.2931 13.3203 50.5971 17.0725 51.5126 14.9793C51.3246 15.3565 51.3899 16.3678 51.4123 16.3595C51.6404 16.2822 51.9387 14.158 52.0549 14.5371C52.1883 14.9778 51.7809 15.4729 51.6808 16.0865C51.4392 17.5776 51.6022 18.2093 51.7507 18.7974C51.8998 19.5124 52.0518 20.1622 51.5403 21.9966C51.5946 21.9351 51.6489 21.8733 51.7031 21.8113C50.7805 25.6158 49.4189 29.704 47.4183 33.4563C47.3214 33.8053 47.1573 34.2631 46.9415 34.7791C45.7031 37.74 42.3819 40.7984 40.5689 41.8004C40.0933 42.1354 37.7569 43.1555 37.5855 43.1701C37.25 43.271 38.948 42.4176 38.127 42.6981C37.9353 42.8432 34.2374 44.2334 34.5707 44.2664C34.9831 44.1561 36.237 43.5746 36.4683 43.5181C37.3886 43.3298 34.075 44.7494 31.1745 45.4039C28.6615 46.0212 26.4645 46.2282 26.2348 46.3193C26.4845 46.3503 26.7336 46.3798 26.9819 46.4076C26.2892 46.4712 25.6011 46.5194 24.9363 46.555ZM36.5599 21.2918C36.464 20.9543 36.8016 20.2619 36.8618 19.8052C36.9489 19.1764 36.4828 17.9534 37.0859 18.573C36.9306 19.5032 36.7567 20.4123 36.5599 21.2918ZM31.7334 29.1351C32.1417 29.0293 32.0654 29.5382 31.6585 29.5524C31.6093 29.554 31.162 29.273 31.7334 29.1351ZM34.0415 27.3161C34.0375 27.3304 33.9493 27.49 33.8735 27.62C33.8592 27.6405 33.8456 27.6574 33.8425 27.6576C33.7571 27.6631 33.7511 27.6086 33.771 27.5639C33.9026 27.3132 34.1075 27.0206 34.0415 27.3161ZM6.96513 32.2987C7.74351 32.2656 7.1747 31.9083 6.68903 32.0698C6.65858 32.0801 6.91399 32.3006 6.96513 32.2987ZM7.52433 32.2973C8.14617 32.615 9.3583 31.922 8.38083 32.0087C8.28983 32.0173 7.49737 32.2817 7.52433 32.2973ZM32.9293 28.581C32.9816 28.7025 32.6621 28.856 32.5045 28.9173C32.4504 28.8174 32.8353 28.6741 32.9293 28.581ZM19.2923 31.7737C19.2822 31.8792 21.6596 31.7413 21.8 31.5918C21.4455 31.6798 19.3281 31.6868 19.2923 31.7737ZM12.9169 32.1127C12.9853 32.1285 13.858 32.0822 13.8276 31.995C13.407 31.89 12.6248 32.0414 12.9169 32.1127ZM-2.57137 32.9113C-2.81266 33.0108 -2.57006 32.9175 -2.2315 32.8227C-1.8907 32.7267 -1.52661 32.6621 -1.27581 32.6395C-1.00673 32.6387 -0.894061 32.6864 -0.972665 32.7467C-0.995583 32.7625 -1.03447 32.7801 -1.09967 32.8019C-1.14461 32.8152 -1.13101 32.8169 -1.25733 32.8459C-1.37918 32.8749 -1.53061 32.9106 -1.75522 32.9747C-1.98371 33.0427 -2.27347 33.1234 -2.78306 33.3475C-3.28762 33.6167 -4.08184 33.8312 -5.39648 35.3482C-5.78412 35.6225 -7.49349 38.6464 -6.82253 41.1147C-6.26927 43.5922 -4.99552 44.6301 -4.34285 45.1924C-3.63992 45.7482 -3.14798 45.9688 -2.87081 46.1021C-2.74913 46.158 -2.6384 46.205 -2.53617 46.2462C-2.12869 46.4089 -1.84879 46.4911 -1.60119 46.5632C-1.36742 46.6295 -1.2916 46.6531 -1.13755 46.6978C-0.829001 46.7853 -0.636932 46.8523 -0.36735 46.9465C-0.210454 47.0007 -0.426318 47.0154 -0.668559 47.0167C-0.851749 47.0316 -1.35907 46.9641 -1.25248 46.997C-0.854917 47.1243 -0.709735 47.1658 -0.549311 47.1989C-0.686932 47.1799 -0.784118 47.1676 -0.967216 47.136C-1.15334 47.1034 -1.34562 47.0668 -1.58417 47.0106C-1.75805 46.9679 -1.99917 46.9069 -2.34202 46.7897C-2.51729 46.7289 -2.72455 46.6529 -3.0047 46.5273C-3.01179 46.5245 -3.30131 46.3941 -3.57206 46.2418C-3.85724 46.081 -4.20839 45.8713 -4.67449 45.4927C-5.13361 45.1073 -5.74572 44.5609 -6.37959 43.4999C-7.00406 42.4743 -7.58526 40.7036 -7.34546 38.8636C-7.23865 37.959 -6.95614 37.1041 -6.60517 36.4122C-6.51764 36.2385 -6.42614 36.074 -6.33242 35.9186C-6.27093 35.8168 -6.21534 35.7296 -6.15593 35.6402C-6.03833 35.4635 -5.91894 35.3005 -5.80003 35.15C-5.32224 34.5482 -4.86474 34.1468 -4.47481 33.8477C-3.68957 33.2595 -3.15301 33.034 -2.74376 32.8613C-1.94247 32.5463 -1.5439 32.4873 -1.26028 32.4271C-1.0013 32.3777 -0.819485 32.3532 -0.66373 32.3337C-0.00849759 32.2615 0.0570934 32.2721 0.250709 32.2624C0.41177 32.2578 0.516016 32.2603 0.54799 32.2679C0.567255 32.2725 0.584066 32.277 0.598558 32.2814C0.660983 32.3138 0.651286 32.3361 0.600276 32.3515C0.462322 32.3772 0.170187 32.3876 -0.135919 32.4064C-0.383118 32.4221 -0.668345 32.4464 -0.980406 32.4931C-0.992127 32.4629 -2.41108 32.8078 -2.57137 32.9113ZM5.7541 47.613C5.90923 47.5422 6.85228 47.7213 7.05472 47.7877C7.09054 47.7999 6.89708 48.0144 7.32238 48.0559C7.66392 48.0889 7.19405 47.7751 7.84537 47.9066C8.50089 48.0394 7.59311 48.0871 7.64985 48.1078C7.72234 48.1342 8.76543 48.172 8.71334 48.3089C8.67149 48.4091 7.59173 48.1829 7.30892 48.1664C6.95468 48.146 7.35336 48.3792 6.77629 48.2607C6.41571 48.1868 6.65996 47.9084 6.58537 47.8822C6.51573 47.8595 5.20893 47.8601 5.75595 47.6143C5.75533 47.6139 5.75472 47.6134 5.7541 47.613ZM-0.267128 47.2342C-0.347302 47.2312 -0.439538 47.221 -0.549311 47.1989C-0.455011 47.2116 -0.361039 47.223 -0.267128 47.2342ZM36.1706 22.9726C35.9821 23.2293 36.1583 22.3373 36.3787 22.04C36.4785 22.0674 36.203 22.9332 36.1706 22.9726ZM0.553719 47.1103C1.71043 47.358 0.889176 47.3557 -0.267128 47.2342C0.0900739 47.2349 0.161138 47.0237 0.553719 47.1103ZM27.3625 31.0856C27.325 31.0707 27.2963 31.0405 27.2803 30.9835C27.3795 31.0267 27.3951 31.0585 27.3625 31.0856ZM25.4448 31.3432C24.7816 31.6253 26.1833 31.4047 26.1431 31.2733C26.1325 31.2277 25.4771 31.3331 25.4448 31.3432ZM5.95147 32.3017C6.03436 32.3176 4.80719 32.8865 6.59639 32.4419C5.62985 32.3974 6.64829 32.3175 6.63076 32.2703C6.58558 32.1342 4.98384 32.2986 4.62046 32.2474C4.34171 32.4981 5.69698 32.2487 5.94945 32.3017C5.95013 32.3017 5.95079 32.3017 5.95147 32.3017ZM17.3098 49.6477C17.0953 49.7453 16.5241 49.5734 16.1062 49.4809C16.3352 49.3804 16.9166 49.5488 17.3098 49.6477ZM60.2308 38.2672C63.2051 38.7502 63.5016 39.3929 60.8156 38.6165C60.7625 38.6012 60.0401 38.2873 60.2308 38.2672ZM61.15 55.77C60.8627 55.5394 61.7339 55.4208 62.3451 55.4868C62.4796 55.5012 63.0024 55.726 62.4311 55.8138C62.4316 55.5036 61.5333 55.4483 61.15 55.77ZM1.2375 47.0467C1.58103 46.9257 2.58081 47.187 3.07501 47.2799C2.76774 47.3793 1.69405 47.1673 1.2375 47.0467ZM70.3773 40.5303C70.7257 40.6203 71.0088 40.4532 70.9518 40.4225C70.6939 40.2821 70.0041 40.3265 70.3773 40.5303ZM0.670877 32.7542C0.677942 32.7691 0.655329 32.7845 0.611243 32.7993C0.505409 32.8218 0.33211 32.8437 0.118541 32.8661C0.0026345 32.8783 -0.0715311 32.8849 -0.333965 32.9098C-0.450174 32.9215 -0.578486 32.9354 -0.734226 32.9563C-0.812245 32.9669 -0.89734 32.9793 -0.993377 32.9951C-1.04142 33.003 -1.09222 33.0118 -1.14651 33.0218C-1.23881 33.0388 -1.40965 33.0731 -1.58536 33.1171C-1.95582 33.2221 -2.42527 33.3084 -3.3879 33.8434C-3.86689 34.1284 -4.514 34.5388 -5.25753 35.4306C-5.44078 35.6543 -5.62627 35.9095 -5.80368 36.2C-6.07666 36.6443 -6.35624 37.2334 -6.5376 37.8722C-6.92519 39.1584 -6.85562 40.6981 -6.48121 41.8163C-5.67447 44.1019 -4.57528 44.786 -4.00942 45.2573C-3.41602 45.691 -2.96097 45.894 -2.79326 45.9745C-2.58488 46.0715 -2.42449 46.1361 -2.28809 46.1888C-2.01748 46.2922 -1.83881 46.3488 -1.68842 46.3969C-1.53595 46.445 -1.42847 46.4771 -1.37815 46.496C-1.13297 46.5818 -1.00226 46.6456 -0.972292 46.7068C-1.03261 46.6922 -1.11187 46.674 -1.21266 46.6501C-1.26314 46.6381 -1.31913 46.6246 -1.38217 46.6089C-1.44282 46.5936 -1.51463 46.5762 -1.6677 46.5339C-1.80953 46.4942 -1.97573 46.446 -2.21269 46.3629C-2.33186 46.3207 -2.46946 46.2695 -2.64127 46.1971C-2.68427 46.1789 -2.72949 46.1594 -2.77731 46.138C-2.80122 46.1273 -2.82578 46.1162 -2.85105 46.1046C-2.86431 46.0985 -2.92882 46.069 -3.01487 46.0269C-3.3433 45.8588 -3.77003 45.6542 -4.45601 45.0898C-5.07922 44.5205 -6.328 43.4959 -6.84175 40.9603C-7.07488 39.7315 -6.909 38.2541 -6.43782 37.1341C-5.86806 35.8446 -5.59877 35.635 -5.23078 35.171C-3.78501 33.6242 -2.92105 33.4529 -2.37142 33.2031C-1.81618 33.002 -1.49629 32.9395 -1.23483 32.8857C-1.0696 32.854 -1.01742 32.8463 -0.923597 32.8315C-0.589111 32.7811 -0.371474 32.764 -0.174192 32.7497C-0.00708147 32.7385 0.0647418 32.7363 0.168167 32.7329C0.358721 32.7272 0.512864 32.7286 0.609674 32.7353C0.644726 32.7398 0.666417 32.746 0.670877 32.7542ZM16.5757 49.4093C16.4113 49.321 17.3356 49.4241 17.57 49.5342C17.5367 49.6352 16.68 49.4634 16.5757 49.4093ZM72.269 55.1709C71.9693 55.1631 71.209 55.1857 71.1319 55.2782C71.03 55.3941 72.1387 55.3143 72.269 55.1709ZM55.9666 11.7248C56.0088 11.6859 56.2608 12.9216 56.1608 13.4801C55.9762 14.5325 55.945 11.7525 55.9666 11.7248ZM67.1227 40.0239C66.2202 39.6431 67.2274 40.0365 67.2272 39.8109C66.5899 39.6849 65.0383 39.3884 66.0693 39.8C66.2697 39.8798 66.8301 39.9552 67.1227 40.0239ZM67.9843 40.2596C68.0991 40.2077 68.8326 40.1155 68.2322 40.0189C67.9545 39.9747 67.468 40.1402 67.9843 40.2596ZM55.5482 19.2261C55.2844 20.0112 55.6918 16.3515 55.7519 16.2548C55.7756 16.2012 55.7963 16.1667 55.8129 16.1476C55.7887 16.0773 55.7918 15.8691 55.8224 15.6717C55.83 15.6269 55.8369 15.4905 55.8429 15.4454C55.8697 15.2066 55.9212 14.9746 56.0024 14.9337C55.9894 15.0446 55.975 15.2575 55.9603 15.454C55.9542 15.4999 55.9472 15.6387 55.9395 15.6843C55.9187 15.874 55.8998 16.0537 55.8868 16.088C55.8765 16.1154 55.8674 16.1357 55.8588 16.1494C55.9611 16.4044 55.5888 19.0723 55.5482 19.2261ZM55.06 25.3166C54.7897 24.3883 55.2903 24.2401 55.3031 24.3197C55.478 25.3226 55.1322 24.6629 55.1142 24.6931C55.0835 24.7611 55.2368 25.4775 55.0601 25.3137C55.06 25.3146 55.06 25.3156 55.06 25.3166ZM55.382 20.4686C55.3773 20.4305 55.4439 19.6607 55.4545 19.6298C55.6617 19.0106 55.4751 21.1855 55.382 20.4686ZM10.8078 47.99C11.3608 48.1247 10.784 48.2188 10.4206 48.0981C10.3909 48.0872 10.3191 47.8717 10.8078 47.99ZM68.4643 40.3001C68.5712 40.3435 72.1602 41.2016 72.0254 40.9084C71.6573 40.8377 67.6366 39.9147 68.4643 40.3001ZM55.1331 56.6206C55.8577 56.4307 55.1272 56.8946 54.7331 56.8913C54.5862 56.8909 54.9534 56.6675 55.1331 56.6206ZM2.42606 32.9472C3.06353 32.7908 2.9427 33.2695 2.38252 33.1192C2.36046 33.1133 2.40095 32.9533 2.42606 32.9472ZM59.2093 55.7778C57.691 56.203 57.788 55.293 60.0766 55.2773C60.0077 55.3218 59.9402 55.3664 59.8739 55.4111C62.6008 55.2586 60.0228 55.4333 59.4345 55.5715C59.2029 55.6212 59.4163 55.7291 59.211 55.7786C59.2104 55.7783 59.2099 55.7781 59.2093 55.7778ZM51.7587 57.3813C49.7519 57.2243 53.3872 56.8385 54.7641 56.4114C53.5965 56.9485 52.1411 57.227 54.2275 57.0047C51.2869 57.7202 52.5177 57.198 52.3716 57.214C52.2363 57.2215 51.8441 57.3879 51.7587 57.3813ZM57.2191 56.0038C57.2918 55.9639 57.916 55.9355 58.1406 55.8744C57.8544 56.1223 56.7386 56.2517 57.2191 56.0038ZM55.2684 31.6483C55.1102 31.5849 54.9863 31.4315 55.0201 30.7759C55.1053 30.9763 55.1891 31.3842 55.2684 31.6483ZM37.5048 20.9605C37.629 20.562 37.8947 19.7518 37.6719 19.9641C37.6528 19.9923 37.419 20.9353 37.5048 20.9605ZM69.4232 54.936C69.3156 54.9203 66.6895 55.007 67.6045 55.144C67.8731 55.1849 70.2749 55.074 69.4232 54.936ZM64.8597 39.7405C65.0729 39.7819 65.9575 39.9152 65.9839 39.8826C66.0652 39.7684 64.9742 39.6382 64.8597 39.7405ZM38.1874 18.9116C38.2193 18.8613 38.4773 17.548 38.3708 17.6751C38.1756 17.9237 38.0907 19.0901 38.1874 18.9116ZM12.8931 47.9526C13.0102 47.9661 13.1339 48.158 13.1742 48.1667C13.2783 48.1819 15.3769 48.4903 14.5412 48.561C14.4122 48.5649 11.3771 47.9766 10.9655 47.8996C10.8468 47.646 12.1311 48.0693 12.4546 48.0993C12.5113 48.104 12.5793 47.9183 12.892 47.9534C12.8924 47.9531 12.8927 47.9528 12.8931 47.9526ZM55.0131 28.2685C54.8574 28.1764 54.7723 25.6834 54.9571 25.7133C54.9655 26.5691 54.9838 27.419 55.0131 28.2685ZM55.0076 29.5259C54.9148 30.0556 54.8531 28.817 54.8977 28.4541C54.9956 28.4483 55.0198 29.4508 55.0076 29.5259ZM69.7565 41.2188C70.0357 41.2371 69.2397 40.8613 69.4348 40.8571C69.5602 40.8547 70.1555 41.0546 70.3661 41.0292C70.425 41.019 69.8368 40.6946 69.6567 40.6687C69.3985 40.63 69.6154 40.8345 69.3372 40.7814C68.416 40.6062 67.6347 40.3462 66.7972 40.1942C66.7215 40.1808 67.2876 40.3996 66.6426 40.279C66.5438 40.2606 65.9756 39.9861 65.213 39.8705C63.4485 40.0694 62.3321 39.3476 60.2708 39.1046C60.3334 39.1704 61.8338 39.6115 61.9271 39.6327C63.6243 40.0623 66.8008 40.6387 68.748 41.0121C69.2453 41.1079 69.0251 40.954 69.2405 40.9915C69.4108 41.0217 69.1697 41.181 69.7565 41.2188ZM37.5532 21.2045C37.8034 21.0694 37.8655 20.3515 37.9858 19.9097C37.77 20.0223 37.7168 20.7969 37.5532 21.2045ZM55.9444 39.4831C55.9667 39.5403 55.9941 39.6601 56.012 39.7228C56.0317 39.7904 56.0368 39.7985 56.0636 39.7843C56.1 39.767 56.1307 39.7606 56.1047 39.6807C56.081 39.6074 56.0136 39.4741 55.9444 39.4831ZM19.7046 49.6072C19.7109 49.6037 19.7869 49.7781 19.7858 49.7946C19.7529 49.9201 19.6735 49.8187 19.6375 49.7365C19.6018 49.6542 19.6048 49.5751 19.7046 49.6072ZM21.3145 62.1267C21.4406 62.7538 21.628 63.3263 21.5089 63.5531C21.4493 63.1949 21.1853 62.0769 21.3145 62.1267ZM24.5428 81.3884C24.6358 81.3466 24.6682 81.5744 24.6722 81.8732C24.674 81.9671 24.6759 82.0697 24.6861 82.2384C24.6888 82.2811 24.6921 82.3287 24.6968 82.3843C24.6986 82.3957 24.7103 82.5975 24.7663 82.9268C24.7979 83.1015 24.836 83.3195 24.9511 83.6996C25.0965 84.0889 25.1794 84.6221 26.0457 85.7557C26.5276 86.3155 27.1479 87.0514 28.7082 87.6621C30.5189 88.4123 32.969 87.8837 34.0413 87.1283C36.2259 85.5778 36.1467 84.8204 36.4436 84.3806C36.6375 83.9348 36.6949 83.7143 36.7479 83.535C36.8044 83.3289 36.8021 83.3271 36.8138 83.2811C36.8325 83.203 36.8464 83.1395 36.858 83.0839C36.8811 82.9734 36.8956 82.8935 36.9078 82.8239C36.9351 82.6632 36.937 82.6511 36.9486 82.5795C36.989 82.3191 37.0045 82.2277 37.0273 82.0872C37.0672 81.8497 37.0994 81.6735 37.1132 81.5888C37.1388 81.6319 37.1559 81.7865 37.1533 82.0456C37.153 82.1628 37.1493 82.3034 37.1259 82.5422C37.1195 82.6051 37.1123 82.67 37.1014 82.7516C37.0797 82.8906 37.0667 83.021 36.9762 83.4009C36.9396 83.5431 36.8937 83.7343 36.7652 84.0862C36.5767 84.4625 36.6011 84.9231 35.3546 86.3175C34.7226 86.9577 33.2979 88.1737 30.8954 88.2258C29.7783 88.2657 28.4762 87.8407 27.8743 87.4972C27.2184 87.151 26.7363 86.7555 26.3768 86.4018C25.0193 84.948 24.9874 84.2778 24.7914 83.8223C24.3748 82.2469 24.5446 82.4594 24.4981 82.2993C24.4831 82.0947 24.4805 81.9818 24.4779 81.8769C24.4698 81.6208 24.4845 81.4151 24.5428 81.3884ZM54.597 31.7755C54.5729 30.9742 54.2551 31.1548 54.3839 30.6349C54.4067 30.5522 55.0745 30.2552 54.8537 31.152C54.8151 31.3124 54.6253 30.6989 54.597 31.7755ZM60.4565 55.2433C60.6252 55.0817 61.2391 55.067 61.6582 55.047C61.5691 55.1588 60.7323 55.2025 60.4565 55.2433ZM38.8519 16.5654C38.8908 16.5176 38.9279 16.4403 38.9624 16.3434C39.1768 15.7102 39.3153 14.368 39.1247 14.7438C39.0996 14.7956 38.9692 15.8071 38.8914 16.3298C38.8756 16.4377 38.8619 16.5212 38.8519 16.5654ZM3.56145 46.7134C4.35518 46.6613 2.77635 46.3976 2.22822 46.477C2.46301 46.4999 3.50278 46.7161 3.56145 46.7134ZM24.4162 76.8661C24.4262 76.8939 24.4714 77.6461 24.4649 77.6795C24.3484 78.2979 24.2211 76.1991 24.4162 76.8661ZM21.1182 56.6953C21.27 56.9603 21.2891 58.8685 21.1865 59.3195C20.9702 58.9006 20.9326 56.3431 21.1182 56.6953ZM54.9241 35.0067C54.8628 34.4628 54.8585 33.9304 54.8775 33.4079C54.991 33.5163 54.9957 34.9445 54.9241 35.0067ZM24.6112 79.6156C24.6123 79.6574 24.6016 79.6951 24.602 79.7334C24.6048 79.6933 24.6084 79.6557 24.6112 79.6156ZM57.9671 38.8362C58.4594 38.9952 58.4039 38.7757 58.3728 38.7621C58.0031 38.6092 57.4179 38.658 57.9671 38.8362ZM37.9789 20.7851C38.1967 20.6802 38.2556 19.8954 38.4016 19.4662C38.2331 19.5603 38.0554 20.4378 37.9789 20.7851ZM49.7597 57.4672C49.1508 57.4107 51.3512 56.6414 51.9698 56.6481C51.9952 56.7617 49.8003 57.4709 49.7597 57.4672ZM1.16423 46.1034C1.14369 46.0285 0.830402 45.99 0.560763 45.982C0.251605 45.9682 0.00403556 45.9871 0.129376 46.0419C0.311063 46.117 1.17929 46.1958 1.16423 46.1034ZM53.3212 56.435C53.5668 56.3361 54.2272 56.325 54.0261 56.4602C53.7642 56.635 53.2563 56.4624 53.3212 56.435ZM73.8636 42.2768C73.9033 42.2938 74.0537 42.3292 74.3075 42.3946C74.4353 42.4279 74.5898 42.4686 74.796 42.533C75.0128 42.6054 75.2375 42.6646 75.7599 42.92C76.0381 43.0772 76.3579 43.18 77.1579 43.8955C77.3863 44.1106 77.6558 44.3939 77.9362 44.7871C78.2461 45.2233 78.6508 45.9167 78.8744 46.8583C79.5516 49.1184 78.0688 51.8264 77.3434 52.3845C76.5091 53.2041 76.1032 53.3612 75.7538 53.5617C75.3778 53.7517 75.2502 53.7975 75.0639 53.8719C74.7053 54.0065 74.602 54.0355 74.4681 54.0804C74.2349 54.1554 74.2232 54.1728 74.337 54.166C74.4023 54.1596 74.5358 54.1394 74.773 54.0778C74.8747 54.0517 75.089 53.9895 75.3469 53.8892C75.4756 53.8386 75.6361 53.774 75.8866 53.6468C76.0068 53.5853 76.1389 53.5131 76.2854 53.4238C76.4332 53.3326 76.5818 53.2397 76.834 53.0465C77.1589 52.7951 77.521 52.4659 77.8795 52.0166C78.3218 51.466 78.7687 50.6802 79.0047 49.7777C79.2605 48.8457 79.2611 47.7769 79.076 46.9427C78.9027 46.1469 78.6516 45.6134 78.395 45.1583C77.4144 43.6106 76.9765 43.5063 76.6324 43.1999C76.034 42.7777 75.8142 42.697 75.6242 42.601C75.2608 42.4344 75.1166 42.4025 74.9847 42.3713C74.7388 42.3204 74.6457 42.3453 74.5434 42.3112C74.4054 42.26 73.7029 42.0067 73.3133 41.893C72.8955 41.7666 72.6268 41.712 73.2814 42.0205C73.4221 42.0846 73.6027 42.164 73.8636 42.2768ZM40.7254 63.3862C40.9564 63.0241 41.3554 62.6726 41.6713 62.3355C41.5977 62.5317 40.9237 63.3211 40.7254 63.3862ZM5.46965 46.6594C5.3604 46.5864 1.71508 46.0554 3.77164 46.5144C3.88013 46.5392 5.84876 46.8869 5.46965 46.6594ZM54.597 31.7755C54.6003 31.8774 54.5993 31.9948 54.5924 32.1302C54.5909 31.9962 54.5946 31.8784 54.597 31.7755ZM55.6615 39.7462C55.535 39.7143 55.6651 40.1033 55.6615 39.957C55.7132 39.9181 55.761 39.9646 55.7423 39.9121C55.7261 39.8647 55.6706 39.7508 55.6615 39.7462ZM41.591 62.2104C41.7323 61.9748 42.1238 61.6693 42.3626 61.4311C42.3842 61.5386 41.7375 62.192 41.591 62.2104ZM36.7726 80.4613C36.8905 79.7944 36.9351 78.9848 36.819 78.9612C36.8386 78.949 36.8609 78.9185 36.8852 78.8663C36.9095 78.8127 36.9167 78.1068 36.9838 77.8051C37.3919 75.9546 36.4741 85.007 36.623 79.7019C36.6728 79.9573 36.7241 80.1959 36.7726 80.4613ZM21.1912 54.228C21.3025 53.8695 21.0147 52.9858 20.9868 53.2283C20.9716 53.384 21.0824 54.5761 21.1912 54.228ZM23.6808 69.1584C23.6851 69.0594 23.356 68.1708 23.2743 68.1631C23.3382 68.7134 23.6733 69.6337 23.6808 69.1584ZM21.0358 51.7822C21.0249 51.5961 20.7539 51.4208 20.7481 51.4437C20.7012 51.6293 20.9625 52.1095 21.0358 51.7822ZM54.074 33.4676C54.029 33.8002 54.2837 34.8029 54.459 34.9982C54.4337 35.0421 54.4063 35.1575 54.3815 35.3615C54.3815 35.3609 54.3814 35.3603 54.3813 35.3597C54.3588 35.4899 54.5679 37.5961 54.8481 38.7203C54.9826 39.2965 55.102 39.6077 55.134 39.599C55.17 39.5764 55.1033 39.3048 54.9423 38.1086C54.9243 37.957 54.8248 38.197 54.7394 37.5636C54.7342 37.5219 54.8411 37.4837 54.8255 37.3532C54.7799 37.0626 54.6384 35.3851 54.5216 35.035C54.5419 35.0299 54.5593 35.0053 54.5725 34.9551C54.6878 34.5285 54.1054 33.2178 54.074 33.4676ZM24.0993 70.9312C24.1051 70.7475 23.9418 70.1777 23.8324 70.1447C23.85 70.4339 24.0897 71.3684 24.0993 70.9312ZM5.41179 46.2425C5.01211 46.106 3.93194 46.1127 4.24104 46.2361C4.43926 46.313 5.87576 46.3998 5.41179 46.2425ZM22.5172 64.8947C23.0664 67.4058 22.6851 65.4911 22.9264 65.8335C22.7909 65.5308 22.6545 65.2205 22.5172 64.8947ZM54.3403 22.9507C54.2925 23.3158 54.0233 22.8725 54.1963 22.4774C54.2511 22.3537 54.3666 22.7466 54.3403 22.9507ZM55.0713 5.44472C54.8166 5.77319 54.9717 4.16148 55.1432 4.79016C55.1491 4.81921 55.0811 5.42086 55.0713 5.44472ZM54.4581 17.9739C54.6096 18.2355 54.6152 18.3976 54.5202 19.0907C54.5513 18.0561 54.3231 19 54.4581 17.9739ZM36.7999 78.9667C36.8072 78.9631 36.8127 78.9599 36.819 78.9612C36.8123 78.9653 36.8061 78.9669 36.7999 78.9667ZM20.634 50.2561C20.7209 50.027 20.5536 49.6214 20.4631 49.7974C20.4552 49.8066 20.5093 50.2075 20.634 50.2561ZM54.459 34.9982C54.4815 34.9591 54.5001 34.9761 54.5216 35.035C54.5024 35.0397 54.4825 35.026 54.459 34.9982ZM21.3749 53.6615C21.2663 53.6433 21.3396 54.8 21.3547 54.8561C21.603 55.519 21.4373 54.1199 21.3749 53.6615ZM2.10113 34.2139C2.16468 34.201 1.73688 33.9293 1.47593 34.0458C1.27504 34.1362 1.85624 34.2628 2.10113 34.2139ZM54.6135 15.6086C54.6158 15.587 54.6182 15.5649 54.6207 15.5424C54.6269 15.5057 54.6325 15.3941 54.6374 15.3572C54.6714 14.9076 54.7096 14.3533 54.8414 14.249C54.8124 14.4895 54.7586 15.1374 54.6833 15.3606C54.6783 15.3977 54.6727 15.5103 54.6664 15.5473C54.649 15.5888 54.6312 15.6119 54.6135 15.6086ZM54.8844 6.07713C55.039 6.56378 55.03 7.67914 54.995 8.39344C54.7891 8.40372 54.9317 6.53262 54.8844 6.07713ZM54.0853 32.4412C54.0771 32.4729 54.0765 33.4237 54.2068 33.2828C54.3951 33.0877 54.1447 32.1693 54.0853 32.4412ZM-0.350703 34.1564C-0.603551 34.1993 -0.775862 34.253 -0.764576 34.2759C-0.758049 34.2999 -0.586266 34.2983 -0.391403 34.3025C0.0911516 34.3042 0.274369 34.347 0.649066 34.3437C0.847301 34.3462 1.04946 34.3206 1.19602 34.2479C1.33653 34.1783 0.988317 34.1379 0.643582 34.1198C0.441816 34.1147 0.251164 34.1154 0.0945801 34.1211C-0.0122771 34.1225 -0.316766 34.1481 -0.350703 34.1564ZM20.3418 49.085C20.1806 48.9777 20.2885 49.4213 20.462 49.4747C20.423 49.3577 20.4002 49.1207 20.3418 49.085ZM23.6559 67.547C23.5797 65.6685 23.1053 66.8328 23.2565 67.1314C23.2791 67.1769 23.6578 67.5915 23.6559 67.547ZM40.6102 12.0401C40.6085 11.7624 40.197 12.7106 40.3057 12.871C40.3745 12.9656 40.6101 12.2211 40.6102 12.0401ZM37.547 69.8794C37.5398 69.9567 37.5326 70.0347 37.5255 70.1106C37.5249 70.0533 37.531 69.9768 37.547 69.8794ZM19.2311 47.9043C19.6557 48.3297 19.8326 48.4301 19.9246 48.4187C20.027 48.4121 20.0606 48.3045 20.0939 48.3177C20.2195 48.3585 20.5217 48.6935 20.2297 48.5011C20.3869 48.6357 20.3286 48.6288 20.2279 48.6254C20.1331 48.6215 19.9667 48.5948 19.7955 48.573C19.8377 48.5964 20.0006 48.6694 20.1144 48.7362C20.2149 48.7843 20.3806 48.9429 19.9271 48.6704C20.0805 48.8471 20.1695 49.0716 20.2348 49.0693C20.3625 49.0071 20.156 48.8091 20.1634 48.8083C20.1709 48.7912 20.4142 48.4977 20.4019 48.4659C20.3948 48.4485 20.3285 48.3721 20.2091 48.276C20.4471 48.436 20.4603 48.4145 20.389 48.3803C20.3061 48.3376 20.1771 48.2802 20.0054 48.2128C19.7029 48.0915 19.3416 47.9669 19.2311 47.9043ZM22.5351 63.5129C22.5711 63.878 22.4494 64.0092 22.523 64.1627C22.5481 64.2137 22.6891 64.1891 22.77 64.362C22.691 64.0898 22.6113 63.8037 22.5351 63.5129ZM17.0772 47.9304C16.7838 47.6855 18.2502 48.0786 18.2886 48.1153C18.5062 48.2878 17.3348 48.1268 17.0772 47.9304ZM21.4346 53.0867C21.442 53.0242 21.3375 51.933 21.2397 51.9697C21.2202 52.2366 21.3876 53.732 21.4346 53.0867ZM22.8356 64.583C22.9454 65.0891 23.044 65.9968 23.2239 65.8373C23.2237 65.8366 23.2236 65.8359 23.2234 65.8353C23.0958 65.4355 22.9648 65.018 22.8356 64.583ZM0.444888 45.0809C-0.484847 44.5761 -0.0552528 45.0954 0.756366 45.3333C1.01378 45.2167 0.605765 45.1636 0.444888 45.0809ZM1.28505 34.7948C1.52151 34.8502 3.95409 34.7276 3.58086 34.5546C3.44878 34.4926 2.0491 34.6875 1.98302 34.6767C1.88533 34.6604 2.32473 34.4491 1.5837 34.5063C1.62927 34.5733 1.20362 34.7761 1.28505 34.7948ZM-0.358977 44.7182C-0.721183 44.5678 -0.792916 44.5869 -1.69131 44.2747C-1.74683 44.2534 -1.80603 44.2298 -1.86989 44.2027C-1.90183 44.1891 -1.93494 44.1747 -1.96936 44.1593C-2.0091 44.1418 -2.15638 44.072 -2.27451 44.0073C-2.52832 43.8649 -2.85912 43.6809 -3.32876 43.239C-3.77099 42.8043 -4.49081 42.0038 -4.75303 40.5533C-5.08768 39.1577 -4.26012 37.2762 -3.91588 36.9267C-3.53497 36.3985 -3.17224 36.0879 -2.8819 35.866C-2.29617 35.4353 -1.94906 35.3083 -1.6883 35.1979C-1.18154 35.0038 -0.977505 34.9694 -0.804273 34.9222C-0.731146 34.8986 -0.686056 34.8806 -0.649801 34.8636C-0.518291 34.7996 -0.5394 34.7463 -0.808036 34.7516C-0.908643 34.7626 -1.15321 34.786 -1.62608 34.9376C-1.8757 35.0256 -2.20138 35.1279 -2.7678 35.4856C-3.05029 35.671 -3.40443 35.9272 -3.8139 36.3868C-3.91561 36.502 -4.01985 36.6305 -4.12402 36.7748C-4.24002 36.9416 -4.29078 37.0005 -4.48476 37.3526C-4.80501 37.9433 -5.05771 38.7445 -5.08289 39.5751C-5.14546 41.2991 -4.32113 42.5726 -3.78959 43.1552C-3.22533 43.774 -2.8177 44.0102 -2.51686 44.1934C-2.3655 44.2813 -2.23789 44.3462 -2.12563 44.3999C-2.05717 44.4326 -2.04106 44.4401 -2.00086 44.4586C-1.93001 44.4909 -1.86451 44.5191 -1.80318 44.5443C-1.55853 44.6441 -1.37679 44.7014 -1.21344 44.7481C-0.493169 44.9396 -0.236133 44.7745 -0.358977 44.7182ZM3.29993 45.3116C3.02053 45.2274 2.20618 45.0485 1.60692 45.1237C2.39369 45.2505 3.09905 45.3602 3.86062 45.4778C3.96126 45.3999 3.55484 45.387 3.29792 45.3114C3.29859 45.3115 3.29926 45.3115 3.29993 45.3116ZM53.6622 0.984062C53.5257 1.65381 53.4735 0.110807 53.507 0.0456309C53.6183 -0.148064 53.7233 0.684463 53.6622 0.984062ZM45.9606 7.81863C46.0513 7.64549 46.2506 7.56543 46.2388 7.14602C46.0289 7.52262 45.8182 7.8945 45.6054 8.27193C45.8374 8.64572 45.8624 8.00103 45.9606 7.81863ZM47.3514 6.49647C47.3471 6.55598 47.8665 6.32807 47.4165 7.01086C47.1178 7.46492 47.4346 4.72223 47.7007 4.25975C47.7131 4.81938 47.3891 5.99472 47.3514 6.49647ZM50.0598 1.82806C50.1055 1.79987 50.0582 2.95616 50.0109 3.07796C49.7965 3.74434 49.8641 2.01779 50.0598 1.82806ZM49.519 5.35604C49.695 4.86699 49.5606 5.99228 49.4465 6.30756C49.3566 6.32279 49.4943 5.43075 49.519 5.35604ZM46.8932 7.73492C46.5711 8.26001 47.2465 8.73819 47.1187 7.92506C47.1127 7.88539 46.9089 7.71277 46.8932 7.73492ZM50.4266 3.00086C50.2762 3.5254 50.3539 2.3405 50.4243 1.96941C50.5177 1.94088 50.4528 2.92938 50.4266 3.00086ZM46.1352 8.0981C45.8991 8.79336 46.6661 8.55812 46.6982 8.47054C46.8251 8.11251 46.5367 6.87057 46.4634 6.61772C46.5627 8.47165 46.2456 7.76918 46.1352 8.0981ZM46.5345 11.3175C46.5986 11.9615 46.7988 10.3231 46.5897 10.0013C46.5942 10.3236 46.5166 11.1325 46.5345 11.3175ZM46.0975 15.05C46.0314 15.4078 45.864 16.475 45.9689 16.666C45.981 16.2697 46.2036 15.2148 46.0975 15.05ZM45.657 15.8323C45.4405 16.3823 45.9022 16.5614 45.8224 15.8977C45.8194 15.8719 45.6681 15.8125 45.657 15.8323ZM45.2221 19C45.0074 19.3594 45.4399 19.8134 45.4923 19.213C45.5073 19.0346 45.2465 18.9622 45.2221 19ZM45.3016 8.95987C45.2126 9.46636 45.5315 10.1283 45.5856 9.04231C45.6303 9.4237 45.674 9.80871 45.7166 10.1882C45.9289 8.77156 45.4661 8.865 45.4912 8.45712C45.5251 7.88505 45.9021 7.93329 46.0196 8.05044C45.7948 7.57733 45.8061 5.57268 45.7642 4.40814C45.6645 5.43072 45.4865 7.08432 45.4127 8.08376C45.3916 8.36759 45.4916 8.6475 45.4765 8.89007C45.4515 9.27982 45.3075 8.93137 45.3016 8.95786C45.3016 8.95853 45.3016 8.9592 45.3016 8.95987ZM44.995 23.1895C44.7443 24.2768 45.2286 23.5984 45.1688 22.9799C45.1634 22.9532 45.0012 23.1625 44.995 23.1895ZM51.9582 1.47238C51.6393 3.17259 51.5557 2.00866 51.463 5.28744C51.4032 3.91277 51.2801 5.1825 51.2115 4.90495C51.1588 4.68761 51.3456 3.90818 51.1036 4.33952C51.4139 3.81163 51.601 0.960203 51.5819 0.759592C51.5819 0.760888 51.5819 0.762184 51.5819 0.763481C51.5988 0.676376 52.0417 0.899 51.9582 1.47238ZM44.8925 14.9302C44.2959 15.2399 45.1674 15.4737 44.6363 16.1482C45.0025 16.7855 45.0015 15.5955 45.1189 14.5198L45.1063 14.6596C45.1482 14.0944 45.2142 13.5362 45.436 13.3948C45.1664 16.9423 46.1241 11.0583 45.1406 13.515C45.5429 11.4559 45.0648 12.8322 44.9702 12.5083C44.8693 12.1621 45.0296 10.9753 44.818 11.0274C44.818 11.028 44.8179 11.0287 44.8179 11.0294C44.8135 11.763 44.8041 12.4854 44.7855 13.1988C45.2685 12.5176 45.0679 13.9827 44.6644 14.4224C44.6921 14.4938 44.7197 14.5641 44.7472 14.6333L44.7609 14.4813C44.8045 14.631 44.8483 14.7807 44.8925 14.9302ZM45.51 11.0126C45.5002 11.0889 45.5117 12.6768 45.6039 12.5756C45.675 12.3731 45.6661 10.1034 45.51 11.0126ZM45.4892 3.88466C45.4869 4.47104 45.3953 5.37431 45.5637 5.69441C45.568 5.11 45.6589 4.20408 45.4892 3.88466ZM44.7905 34.4967C44.9869 35.2763 44.8554 32.8408 44.7397 33.5552C44.7329 33.5893 44.7796 34.4568 44.7905 34.4967ZM44.8077 16.7032C44.5685 17.4766 45.1443 17.1506 45.0542 16.5556C45.0488 16.521 44.8187 16.6674 44.8077 16.7032ZM51.923 2.86665C52.0662 2.9666 51.6573 5.23596 51.5809 5.59889C51.51 5.38168 51.7965 2.81493 51.923 2.86665ZM44.9899 2.85178C44.5076 4.01811 45.0573 5.59755 45.0438 5.77025C45.0304 5.94135 44.8214 5.67171 44.8155 5.71069C44.8042 5.8016 44.8083 7.62538 44.8209 7.71361C44.8317 7.77663 45.1309 7.45114 45.2202 7.82671C45.0636 7.09534 45.1822 3.74538 45.148 3.5689C45.122 3.4335 44.8098 4.45165 44.9899 2.85381C44.9899 2.85313 44.9899 2.85246 44.9899 2.85178ZM44.9768 6.20181C45.1037 5.74589 45.1111 7.02735 45.0619 7.3347C44.9535 8.02171 44.9627 6.26115 44.9768 6.20181ZM44.83 9.26676C44.8009 9.41438 44.7496 10.7109 44.8836 10.8253C45.0789 10.2173 44.9002 8.93913 44.83 9.26676ZM44.0224 24.0205C44.0286 24.3791 43.902 25.3686 44.0225 25.4267C44.0098 25.0662 44.1406 24.08 44.0224 24.0205ZM51.6698 10.4231C51.8876 9.87475 51.652 11.203 51.5244 11.5721C51.4409 11.5787 51.6509 10.4723 51.6698 10.4231ZM43.6469 16.7366C43.573 16.9475 43.3664 21.3155 43.4157 21.9295C43.5138 21.3338 43.8144 17.0209 43.8053 16.8209C43.797 16.7626 43.6551 16.7099 43.6469 16.7366ZM44.0138 8.10866C43.8406 7.72858 44.0558 7.48683 44.0589 7.43824C44.0909 6.97266 44.057 5.99971 44.2267 6.21421C44.154 7.04278 44.3578 8.86152 44.0138 8.10866ZM43.2105 24.308C43.2386 25.7925 43.5008 22.9485 43.3078 23.3174C43.2952 23.3394 43.2068 24.1553 43.2105 24.308ZM43.6389 16.2442C43.5933 16.1073 43.6507 15.3141 43.7557 14.3731L43.7388 14.5595C43.8314 13.3952 43.9238 11.8068 43.9347 11.4228C44.1821 12.0071 43.9662 12.4676 43.9446 13.2199C43.9389 13.4212 44.0513 13.3743 44.0505 13.3958C44.0376 13.7455 43.9242 13.4766 43.9108 13.6912C43.9076 13.7405 43.9067 14.1292 43.8905 14.5706L43.9069 14.3894C43.8325 15.3362 43.7416 16.5518 43.6389 16.2442ZM43.8932 7.89197C43.7962 7.66314 43.7695 5.08516 43.7954 4.97879C44.0012 4.2027 43.9347 7.69802 43.8932 7.89197ZM43.3685 16.6245C43.0987 16.126 43.5242 13.9681 43.5274 15.4734C43.5271 15.6164 43.3371 16.2048 43.3685 16.6245ZM42.9219 24.1416C42.9085 24.2127 42.8152 25.7664 42.915 25.7947C42.9508 25.5719 43.043 23.3112 42.9219 24.1416ZM42.6157 23.3258C42.617 23.3636 42.8169 23.005 42.7696 23.7331C42.7661 23.7939 42.5478 23.9008 42.6043 24.8197C42.6161 25.0069 42.7511 25.2977 42.7602 25.2769C43.102 24.3309 42.5759 21.4432 42.6157 23.3258ZM43.7218 7.84286C43.6308 7.97975 43.3687 7.64594 43.5061 7.34451C43.5653 7.21545 43.7228 7.46025 43.7218 7.84286ZM42.8026 29.0776C42.6243 28.1651 42.6485 31.038 42.705 31.1806C42.7975 31.0855 42.8154 29.1701 42.8026 29.0776ZM52.6086 12.0063C52.6087 12.0056 52.6089 12.005 52.609 12.0043C52.424 12.7052 52.3853 12.2385 52.3741 12.2713C51.8647 13.7345 52.2466 13.3967 52.2324 13.6382C52.2031 14.1574 51.8583 13.9991 51.8338 14.8725C51.9016 13.433 51.73 14.7249 51.5941 14.7341C51.0351 14.7849 52.2269 12.9281 52.2662 12.201C52.2717 12.0991 51.9518 12.7878 51.9571 12.5263C51.9741 11.6827 53.3209 9.29548 52.6086 12.0063ZM43.4847 7.11269C43.3319 6.78375 43.4961 4.26416 43.6227 4.93265C43.6447 5.04205 43.7114 7.60234 43.4847 7.11269ZM25.028 77.6931C24.9457 77.0743 24.6613 78.4753 24.7444 78.7363C24.7855 78.8719 25.0634 77.9731 25.028 77.6931ZM37.207 74.9742C37.1026 74.1882 36.4368 73.3918 36.6361 74.3832C36.6584 74.494 37.1375 75.0692 37.207 74.9742ZM50.024 44.4745C49.2531 44.4355 49.3723 44.7955 49.9114 44.6722C50.0987 44.6292 50.0476 44.4758 50.024 44.4745ZM25.6364 68.7433C25.6143 68.8195 25.5419 69.7259 25.6322 69.7002C25.7175 69.376 25.7822 68.2439 25.6364 68.7433ZM50.2385 44.3721C49.8291 44.5318 50.6285 44.637 51.0392 44.2669C50.8056 44.3444 50.282 44.3556 50.2385 44.3721ZM42.4038 18.2033C42.5276 18.6117 42.405 19.7294 42.3961 20.3759C42.1892 20.4336 42.4021 18.6665 42.4038 18.2033ZM37.2323 78.3575C37.0509 77.6234 37.0201 79.222 37.1977 79.0709C37.2074 79.0493 37.2405 78.3845 37.2323 78.3575ZM69.2892 53.8693C69.7563 53.8499 68.3902 53.3842 68.7315 53.6748C68.7501 53.687 69.2665 53.8704 69.2892 53.8693ZM62.7329 52.5265C63.1073 52.6371 64.6994 52.9173 64.1021 52.6886C64.0103 52.6535 62.7831 52.4245 62.7329 52.5265ZM52.3652 13.7092C52.6083 13.5535 52.32 14.6941 52.2516 14.8488C52.2231 14.9115 52.0473 13.9167 52.3652 13.7092ZM44.6794 45.773C44.2234 45.9339 42.9573 46.3356 42.7724 46.5331C43.3663 46.2615 44.9018 45.9236 44.6794 45.773ZM37.3301 81.2657C37.3637 81.517 37.3729 81.5881 37.3852 81.6326C37.561 80.9624 37.4942 80.012 37.2254 80.2729C37.2787 81.4482 37.4792 80.1655 37.3626 81.633C37.3571 81.5899 37.3568 81.5345 37.3301 81.2657ZM52.2576 43.6316C52.0348 43.6772 51.922 43.9967 51.9522 44.0027C52.2486 44.0557 52.5028 43.6747 52.2576 43.6316ZM28.9413 58.2533C28.8235 58.1977 28.1557 59.4042 28.3203 59.2887C28.3702 59.2408 29.0308 58.283 28.9413 58.2533ZM42.0955 32.2156C42.0085 32.7217 41.8321 31.1976 41.95 30.7504C42.1251 30.5246 42.1017 32.1546 42.0955 32.2156ZM62.3182 42.0737C62.3652 41.8891 60.6672 42.104 61.3517 42.2058C61.5206 42.2303 62.3058 42.1335 62.3182 42.0737ZM67.3047 53.825C68.3546 53.808 64.1603 52.8543 65.221 53.3265C65.3057 53.3595 67.2271 53.8246 67.3047 53.825ZM60.2156 52.3572C60.3961 52.4157 60.1923 52.9881 59.4624 52.6087C59.3669 52.5594 59.8718 52.4974 59.7959 52.4455C59.7538 52.4183 58.0819 51.9953 57.9986 51.9896C57.9112 51.9875 57.9711 52.1963 57.8811 52.1995C57.78 52.2037 56.7647 51.8154 56.2098 51.6871C55.8897 51.6141 55.653 51.574 55.4763 51.5538C55.1104 51.516 55.0215 51.5744 54.9662 51.5619C54.7307 51.5081 54.3556 51.3047 53.8496 51.1835C52.3319 50.8192 50.0844 50.2996 47.9358 49.3784C46.9193 49.0312 45.1605 47.348 44.5602 46.4572C43.2126 43.9494 43.1458 42.707 42.9879 41.6297C43.2539 42.9864 43.5101 44.2571 44.7253 46.3598C45.3092 47.2262 47.0198 48.8634 48.0085 49.201C48.8714 49.5269 49.7193 49.7863 50.5477 50.0261C49.8884 50.1931 53.492 50.604 51.3818 50.4094C51.8258 50.5074 53.8071 50.9825 55.5237 51.3502C57.6974 51.8356 59.8981 52.2546 60.2136 52.3568C60.2143 52.3569 60.2149 52.3571 60.2156 52.3572ZM36.9889 71.7791C37.2732 72.2533 36.8232 69.6893 36.5365 69.5213C36.5739 69.8574 36.9654 71.7318 36.9889 71.7791ZM23.5857 79.7811C23.5691 79.5757 23.189 79.3528 23.4889 78.268C23.489 78.267 23.4891 78.266 23.4891 78.265C23.5774 77.9396 23.6411 78.3253 23.6811 78.2675C23.6976 78.2426 23.9844 77.2561 23.9424 78.0954C23.8783 79.3726 23.6359 78.1854 23.5706 78.8695C23.5638 78.9501 23.6633 80.2309 23.7179 80.146C23.7235 80.1466 23.7133 79.7682 23.7383 79.7118C23.834 79.4823 23.9479 79.6075 23.9569 79.5748C23.9821 79.481 23.9509 77.4211 24.1624 77.1357C24.2305 77.0507 24.0716 80.4176 24.0282 80.4609C24.002 80.5248 23.6595 80.4667 23.6183 80.5324C23.6129 80.5428 23.6109 80.6122 23.6105 80.6982C23.6123 80.7265 23.6099 80.7821 23.63 80.6869C23.6343 80.6698 23.6462 80.5965 23.6748 80.4565C23.6899 80.3831 23.7095 80.2887 23.7473 80.1369C23.7464 80.1412 23.7912 79.956 23.8482 79.7696C23.9123 79.5666 23.9877 79.3091 24.2081 78.8257C24.4958 78.3407 24.61 77.5884 26.3952 76.0999C27.2866 75.3991 29.0451 74.4901 31.1988 74.6112C32.227 74.6519 33.3269 74.9914 34.0011 75.3301C34.6253 75.6325 35.1275 75.9841 35.5258 76.3199C37.0763 77.711 37.3103 78.5919 37.5778 79.1464C37.8018 79.7084 37.8737 80.0295 37.9331 80.2813C38.0389 80.7684 38.0525 80.9729 38.0712 81.1392C38.0852 81.2928 38.0866 81.3418 38.09 81.409C38.0952 81.5287 38.0943 81.5847 38.0934 81.6192C38.0599 81.2183 38.0251 80.8136 38.0382 80.7198C38.0459 80.6647 38.0546 80.6226 38.0619 80.5916C37.9629 80.8213 37.9255 79.4821 38.046 79.5196C38.0954 79.5362 38.101 80.4735 38.0923 80.4962C38.0892 80.5105 38.0847 80.5229 38.0817 80.5345C38.1373 80.4498 38.1862 81.0069 38.2313 81.6166C38.2318 81.5837 38.2323 81.5313 38.228 81.4259C38.2257 81.3725 38.2222 81.3055 38.2147 81.2109C38.2132 81.1962 38.2029 81.0402 38.1645 80.778C38.1087 80.4919 38.1103 80.1783 37.7284 79.1554C37.4913 78.6323 37.2591 77.8528 36.0078 76.5732C35.6858 76.2598 35.2837 75.9228 34.7723 75.6015C34.5169 75.4412 34.2345 75.2857 33.9256 75.1438C33.5669 74.9775 33.0957 74.8033 32.6276 74.6876C30.6974 74.1598 28.473 74.6629 27.263 75.3741C24.8127 76.8767 24.6162 77.9064 24.2381 78.4567C23.943 79.033 23.8493 79.335 23.7677 79.5725C23.6923 79.8036 23.6525 79.9574 23.6236 80.0709C23.6136 80.1103 23.605 80.1458 23.5972 80.1783C23.5818 80.2433 23.5699 80.2964 23.5601 80.3421C23.522 80.5215 23.5096 80.5982 23.5 80.6493C23.477 80.7673 23.4795 80.7156 23.4769 80.6829C23.4753 80.5933 23.4755 80.4647 23.4694 80.3738C23.4583 80.181 23.4298 80.0726 23.3602 80.2315C23.3274 79.4584 23.6335 80.3777 23.5857 79.7811ZM23.7251 75.8083C23.754 75.8955 23.7823 75.988 23.811 76.0775C23.8519 74.6094 24.1801 72.9282 24.3472 71.219C24.3902 70.7846 24.1186 71.2621 24.236 70.699C24.3304 70.2454 24.5887 69.7605 24.6088 70.0147C24.6138 70.0755 24.3852 70.9937 24.3541 71.4586C24.2623 72.8302 24.4873 72.5011 24.4844 72.5819C24.4814 72.67 24.2668 73.5161 24.2304 73.981C24.1387 75.1543 24.2077 75.7022 23.915 77.2738C23.8702 76.3482 23.553 76.8255 23.7251 75.8083ZM69.1108 41.2375C69.164 41.115 70.1152 41.1867 70.4634 41.1561C70.4124 41.2787 69.4622 41.2068 69.1108 41.2375ZM19.9129 46.5857C20.2096 46.3772 17.9252 46.4214 18.533 46.5611C18.6637 46.5933 19.6292 46.5981 19.9129 46.5857ZM9.87075 46.7443C9.57518 46.8049 10.7706 46.9232 10.762 46.7704C10.7626 46.7214 9.90528 46.7366 9.87075 46.7443ZM31.0672 53.9757C31.1078 53.9153 31.8247 53.199 31.8549 53.1865C32.4543 52.8261 30.137 55.2269 31.0672 53.9757ZM3.26654 32.7371C2.28582 32.728 5.18129 33.195 4.3127 32.9057C4.27048 32.8923 3.29254 32.7354 3.26654 32.7371ZM7.44837 33.2762C7.19121 33.248 6.12759 33.0387 6.10054 33.0958C6.0702 33.1898 7.29171 33.4228 7.44837 33.2762ZM52.1912 42.8741C52.1405 42.8047 52.2391 42.746 52.3798 42.6958C52.9444 42.5037 53.8866 42.3151 54.2991 42.202C54.4678 42.3452 53.2296 42.5649 52.4148 42.8075C52.3296 42.8292 52.2499 42.8513 52.1912 42.8741ZM42.8947 45.1409C46.7251 43.7318 47.8477 43.7518 47.6663 43.8254C47.4452 43.983 45.7756 44.289 42.471 45.4168C42.4096 45.2884 42.4095 45.333 42.8947 45.1409ZM51.2209 42.9904C51.087 43.1712 50.5041 43.2643 50.0714 43.3478C50.1341 43.2333 50.9764 43.0792 51.2209 42.9904ZM22.7207 46.7321C22.3121 46.9456 20.5058 46.8235 20.8201 46.7309C20.8945 46.7151 22.8535 46.6276 22.7207 46.7321ZM31.3552 53.3732C31.0684 53.3447 32.7162 51.7647 32.8797 51.6972C33.5062 51.3439 31.4355 53.1779 31.3552 53.3732ZM62.3222 41.0648C62.6547 40.8747 63.6287 40.9105 64.2288 40.8857C63.9612 41.0425 62.8549 41.0354 62.3222 41.0648ZM57.5052 41.3674C57.5511 41.3517 58.539 41.2458 58.5797 41.2518C59.4006 41.3176 56.6171 41.621 57.5052 41.3674ZM54.4096 11.353C54.4098 11.3789 54.2696 11.9932 54.2596 12.0097C53.9858 12.5209 54.4037 10.6938 54.4096 11.353Z" fill="#0037FF"/>
</g>
<use xlink:href="#pattern0_339_224_inner" transform="translate(182.825 102.371)"/>
</pattern></defs>
</svg>
