<svg width="708" height="421" viewBox="0 0 708 421" fill="none" xmlns="http://www.w3.org/2000/svg" xmlns:xlink="http://www.w3.org/1999/xlink">
<rect width="708" height="421" rx="15" fill="#F5F5F5"/>
<rect width="708" height="421" rx="15" fill="url(#pattern0_348_263)" fill-opacity="0.1"/>
<defs>
<pattern id="pattern0_348_263" patternUnits="userSpaceOnUse" patternTransform="matrix(167.933 0 0 73.3649 334.15 193.42)" preserveAspectRatio="none" viewBox="-3.7561 -2.2251 671.733 293.459" width="1" height="1">
<use xlink:href="#pattern0_348_263_inner" transform="translate(0 -293.459)"/>
<use xlink:href="#pattern0_348_263_inner" transform="translate(335.866 -146.73)"/>
<g id="pattern0_348_263_inner">
<path d="M37.3048 40.9448C37.6614 40.8962 38.0061 40.9241 38.4344 40.9664C38.4347 40.9664 38.4349 40.9663 38.4351 40.9663C38.4964 40.9724 38.5596 40.9789 38.6249 40.9854C39.151 41.0384 39.826 41.0992 40.8282 41.1156C41.9372 41.1349 42.8139 41.4052 43.3418 41.6717C43.4404 41.7216 43.5422 41.7486 43.7979 41.775C43.965 41.7925 44.1933 41.8092 44.5202 41.8373C44.6945 41.8523 44.8945 41.8704 45.1326 41.8945C45.9149 41.9726 47.1447 42.0219 48.2801 42.1182C48.9656 42.1747 49.6207 42.246 50.1204 42.3238C50.8408 42.436 51.5446 42.6028 52.2919 42.8083C52.986 42.9995 53.7247 43.222 54.5901 43.5043C55.2619 43.7246 55.8605 44.141 56.432 44.6263C56.5054 44.6885 56.5825 44.7535 56.6555 44.818C57.1523 45.263 57.6504 45.7461 58.1976 46.3063C58.2285 46.3385 58.2589 46.3704 58.2888 46.4022C58.3218 46.4213 58.3978 46.5061 58.4277 46.5296C58.9791 47.3808 59.6265 47.8937 60.3469 48.4432C60.6387 48.6654 60.944 48.8938 61.2653 49.1546C61.7732 49.5679 62.4728 50.1992 63.1864 50.8474C63.2473 50.9028 63.3074 50.9573 63.3686 51.0131C63.3689 51.0133 63.3693 51.0136 63.3696 51.0139C64.0228 51.6088 64.6672 52.2092 65.156 52.6499C65.3403 52.8156 65.5001 52.9576 65.639 53.0785L65.6046 53.0453C66.0176 53.3751 66.2608 53.5056 66.4736 53.626C66.5789 53.6851 66.6778 53.7407 66.7907 53.8164C67.1971 54.0866 67.764 54.6241 68.2871 55.1833C68.2891 55.1854 68.2912 55.1875 68.2932 55.1896C68.3812 55.2831 68.2879 55.5125 68.088 55.7035C67.8871 55.8935 67.6581 55.9759 67.5735 55.8861C67.3053 55.6004 67.035 55.3264 66.781 55.0944C66.6049 55.2549 66.4157 55.3238 66.3373 55.2491C66.159 55.0706 65.5242 54.729 64.5527 54.1687C64.4574 54.1084 64.3578 54.0461 64.2563 53.9842C64.2886 54.0762 64.3121 54.1585 64.3294 54.2321C64.3409 54.2805 64.3497 54.3235 64.3569 54.3623C64.3582 54.364 64.3632 54.368 64.3645 54.3696C64.372 54.4007 64.3785 54.4291 64.3844 54.4555C64.413 54.5806 64.4331 54.6638 64.5026 54.7744C64.691 55.0006 65.0297 55.307 65.3714 55.6223C65.4579 55.7024 65.3765 55.9329 65.1905 56.1373C65.0043 56.3416 64.787 56.445 64.703 56.3674C64.7013 56.3659 64.6996 56.3644 64.6979 56.3629C64.3692 56.0594 64.0109 55.7359 63.8061 55.4907C63.7542 55.4288 63.7116 55.3722 63.6812 55.3283C63.6565 55.2928 63.6275 55.2487 63.6172 55.2169C63.6159 55.2127 63.6135 55.2044 63.6116 55.1936C63.6116 55.1933 63.6116 55.1931 63.6116 55.1929C63.6112 55.1906 63.6101 55.1849 63.6094 55.1761C63.6037 55.1688 63.5818 55.1514 63.5762 55.144C63.5765 55.1302 63.5783 55.1082 63.5857 55.0797C63.5881 55.0705 63.5937 55.0502 63.6059 55.0206C63.6053 55.0168 63.6047 55.013 63.6041 55.0092C63.5953 54.9559 63.5861 54.9014 63.5732 54.8448C63.5231 54.6246 63.4154 54.3014 63.0539 53.7435C62.7222 53.2295 62.0128 52.506 61.0632 51.6614C61.1135 51.7339 61.1648 51.8064 61.216 51.8777C61.3454 52.0576 61.4785 52.2349 61.612 52.4101C61.6634 52.4772 61.7143 52.5437 61.766 52.6105C61.8492 52.7182 61.9334 52.8263 62.0171 52.9335C62.074 53.0063 62.1305 53.0784 62.187 53.1508C62.1871 53.1509 62.1873 53.1511 62.1874 53.1512C62.2664 53.2522 62.3437 53.3522 62.4224 53.4547C62.4494 53.4908 62.4761 53.5262 62.5026 53.5612C62.6088 53.7011 62.7123 53.8381 62.8131 54.0137C62.8235 54.0369 62.8333 54.0637 62.84 54.0846C62.8474 54.1069 62.854 54.1289 62.8596 54.1502C62.8646 54.1689 62.8688 54.1873 62.8731 54.2047C62.8736 54.2071 62.8742 54.2094 62.8748 54.2117C62.8795 54.2312 62.8843 54.2495 62.8889 54.267C62.8936 54.2845 62.898 54.3013 62.9031 54.317C62.9032 54.3171 62.9033 54.3172 62.9034 54.3173C62.9088 54.3337 62.9129 54.3459 62.9198 54.3622C62.9285 54.3825 62.9365 54.3994 62.9472 54.4188C62.9576 54.4375 62.969 54.4564 62.981 54.4747C62.993 54.4931 63.0057 54.5113 63.0188 54.5294C63.032 54.5475 63.0456 54.5656 63.0595 54.5835C63.0736 54.6015 63.0882 54.6195 63.1028 54.6375C63.1174 54.6555 63.1321 54.6737 63.1469 54.6919C63.1811 54.7337 63.1792 54.8089 63.1408 54.9028C63.1025 54.9967 63.0306 55.1005 62.9406 55.1929C62.8507 55.2852 62.7494 55.3596 62.6581 55.4005C62.5669 55.4415 62.494 55.4461 62.4531 55.4134C62.442 55.4045 62.4307 55.3957 62.4195 55.3866C62.4128 55.3813 62.4062 55.3757 62.3995 55.3703C62.3816 55.3557 62.3631 55.341 62.3452 55.326C62.3273 55.3109 62.3096 55.2954 62.2918 55.2794C62.274 55.2633 62.2562 55.2467 62.2387 55.2292C62.2213 55.2117 62.2039 55.1931 62.1871 55.1733C62.1706 55.1539 62.1532 55.131 62.1387 55.1091C62.128 55.0932 62.1161 55.0721 62.1064 55.0542C62.0964 55.0354 62.0871 55.0163 62.0784 54.9974C62.0698 54.9784 62.0619 54.9595 62.0543 54.9416C62.0534 54.9397 62.0526 54.9378 62.0517 54.9359C62.045 54.92 62.0384 54.9045 62.0322 54.8904C62.0251 54.8745 62.0179 54.86 62.0107 54.8466C62.0028 54.8317 61.9972 54.8235 61.9902 54.8136C61.8856 54.695 61.7392 54.5655 61.5985 54.4419C61.5808 54.4263 61.5632 54.4107 61.5458 54.3954C61.4521 54.3137 61.3594 54.2341 61.2646 54.1529C61.1964 54.0945 61.1277 54.0359 61.0584 53.9765C60.9574 53.89 60.8547 53.8014 60.7536 53.7136C60.6906 53.6588 60.6281 53.604 60.5655 53.5489C60.4016 53.4043 60.2371 53.2565 60.0754 53.1047C59.9135 52.9528 59.7528 52.7958 59.5973 52.633C59.4416 52.4701 59.2854 52.2944 59.1444 52.1129C59.0407 51.9787 58.9494 51.8251 58.8688 51.6784C58.8256 51.5996 58.784 51.5214 58.7431 51.4438C58.743 51.4435 58.7429 51.4432 58.7428 51.4429C58.7074 51.3751 58.6724 51.308 58.6368 51.2419C58.5603 51.0998 58.4837 50.9647 58.401 50.8334C58.3195 50.7033 58.2325 50.5772 58.1413 50.4568C58.0502 50.3367 57.953 50.2196 57.8525 50.1078C57.751 49.995 57.6487 49.8896 57.5365 49.7805C57.3898 49.6384 57.2385 49.5013 57.0829 49.3604C56.9285 49.2209 56.7712 49.0805 56.6146 48.9387C56.5598 48.8891 56.5049 48.8387 56.4503 48.7888C56.4501 48.7886 56.4499 48.7884 56.4497 48.7882C56.3809 48.7254 56.3121 48.6621 56.2432 48.5982L56.4155 48.7563C56.3938 48.7427 56.3713 48.7288 56.3478 48.7147C56.2343 48.646 56.1033 48.5742 55.9668 48.5047C55.8229 48.4308 55.6849 48.3653 55.5277 48.2902C55.3705 48.2152 55.2184 48.1435 55.049 48.0537C54.9048 47.9771 54.7588 47.8988 54.6048 47.8211C54.5637 47.8005 54.5243 47.7808 54.4854 47.7614C54.3014 47.67 54.1002 47.5826 53.9098 47.5185C53.7193 47.4538 53.5066 47.401 53.3033 47.3663C53.0996 47.3314 52.8764 47.3057 52.6613 47.2923C52.4453 47.2787 52.2209 47.2723 51.9973 47.2734C51.7777 47.2752 51.5515 47.2819 51.3208 47.2935C51.196 47.3005 51.063 47.3041 50.9367 47.3054C50.8095 47.3069 50.6811 47.306 50.5565 47.3049C50.5067 47.3046 50.457 47.3041 50.4076 47.3038C50.3354 47.3034 50.2636 47.3029 50.1925 47.3034C50.0725 47.3043 49.9543 47.3074 49.8383 47.3152C49.7237 47.3232 49.6137 47.3366 49.5047 47.3571C49.3922 47.3785 49.2981 47.4036 49.1842 47.4426C48.9077 47.5105 48.7504 47.5235 48.5669 47.5379C48.531 47.5408 48.4942 47.544 48.4559 47.5476C48.2358 47.5628 48.0209 47.5701 47.808 47.5719C47.5936 47.5736 47.3781 47.5694 47.1673 47.5608C46.9566 47.5522 46.7435 47.5383 46.53 47.5201C46.3198 47.5021 46.1092 47.4798 45.8969 47.4528C45.6836 47.4258 45.4697 47.3938 45.2618 47.3588C45.1418 47.3386 45.0141 47.3136 44.895 47.2888C44.8087 47.2709 44.7253 47.2526 44.6425 47.2347C44.6087 47.2275 44.5752 47.2203 44.5419 47.2132C44.4271 47.1891 44.3152 47.1669 44.2067 47.15C44.0984 47.1331 43.9924 47.1211 43.8901 47.1163C43.7873 47.1115 43.6866 47.1139 43.5858 47.1234C43.4813 47.1337 43.3945 47.1479 43.2836 47.1741C43.2114 47.1914 43.1407 47.209 43.0703 47.2268C42.9653 47.2534 42.8612 47.2809 42.7564 47.3098C42.6519 47.3387 42.5487 47.3685 42.4453 47.3999C42.4121 47.41 42.377 47.4208 42.3437 47.4312C42.2407 47.4636 42.1394 47.4972 42.0385 47.5329C41.9378 47.5685 41.8383 47.6059 41.7395 47.6457C41.6404 47.6857 41.5433 47.7274 41.4447 47.7727C41.2772 47.8498 41.116 47.8906 40.9747 47.9203C40.8318 47.9498 40.6982 47.9701 40.5683 47.9902C40.544 47.9939 40.5197 47.9977 40.4954 48.0015C40.3905 48.0177 40.2874 48.0336 40.1863 48.0515C40.0617 48.0736 39.9399 48.0984 39.8183 48.1266C39.6979 48.1545 39.5766 48.1861 39.4577 48.2217C39.3377 48.2577 39.2238 48.2956 39.1021 48.3409C38.9816 48.3855 38.8619 48.4404 38.7294 48.5011C38.5986 48.5613 38.4622 48.6242 38.3245 48.6824C38.1867 48.7407 38.0486 48.7944 37.9083 48.8418C37.7686 48.8893 37.6285 48.931 37.4905 48.9671C37.3518 49.0034 37.2144 49.0342 37.0754 49.0616C36.9372 49.0889 36.7948 49.1131 36.6617 49.1325C36.4474 49.1637 36.2298 49.1947 36.0163 49.2263C35.8041 49.2575 35.5919 49.2899 35.38 49.3242C35.1685 49.3584 34.9633 49.3931 34.7528 49.4314C34.5437 49.4694 34.3404 49.5083 34.1359 49.5506C34.0904 49.56 34.0451 49.5695 34.0001 49.5792C33.8414 49.613 33.685 49.6481 33.5319 49.6846C33.5308 49.6848 33.5297 49.6849 33.5287 49.6851C33.5251 49.686 33.5216 49.6868 33.518 49.6877C33.3324 49.7315 33.1412 49.7814 32.9475 49.8377C32.8736 49.8593 32.8057 49.8796 32.7346 49.9022C32.6637 49.9247 32.5929 49.9483 32.5221 49.9731C32.4524 49.9975 32.3826 50.0233 32.3136 50.0505C32.2439 50.0779 32.1753 50.1065 32.1088 50.1368C32.0472 50.1647 31.9865 50.1949 31.9196 50.2282C31.9135 50.2312 31.9074 50.2343 31.9013 50.2373C31.827 50.2742 31.745 50.3125 31.664 50.3438C31.4484 50.4264 31.2422 50.5121 31.0304 50.607C30.8204 50.7011 30.6104 50.8019 30.3998 50.907C30.3168 50.9483 30.2352 50.99 30.1527 51.032C30.0245 51.0974 29.8945 51.1644 29.7655 51.2307C29.5515 51.3406 29.3373 51.4494 29.1174 51.5566C28.9 51.6626 28.6768 51.7669 28.4531 51.8658C28.2286 51.9652 28.0005 52.0609 27.7714 52.1521C27.5167 52.2533 27.2615 52.3531 27.0049 52.4538C26.7485 52.5544 26.4915 52.6553 26.235 52.7567C25.9781 52.8583 25.721 52.9606 25.4638 53.0637C25.2066 53.1668 24.9487 53.271 24.692 53.3753C24.5373 53.4384 24.3835 53.5011 24.2296 53.5642C24.1672 53.6298 24.1079 53.693 24.0511 53.7535C23.6311 54.2015 23.3332 54.5271 22.9073 54.8979C22.8686 54.9374 22.8414 54.9757 22.8084 55.0221C22.8021 55.0309 22.7953 55.0401 22.7884 55.0496C22.745 55.11 22.6954 55.176 22.6125 55.2518C22.447 55.4032 22.1655 55.5802 21.6759 55.6318C21.5526 55.6446 21.3448 55.4641 21.2109 55.2284C21.117 55.0631 21.0853 54.914 21.1184 54.8346C20.991 54.8829 20.8621 54.931 20.7341 54.9795C20.6831 54.9987 20.6072 54.9759 20.5219 54.915C20.4366 54.8541 20.349 54.7605 20.2775 54.6534C20.206 54.5463 20.1562 54.4338 20.1385 54.3388C20.1208 54.244 20.1369 54.1747 20.1827 54.1455C20.3049 54.0674 20.4255 53.9914 20.5464 53.9138C20.6686 53.8353 20.7872 53.7579 20.9074 53.6787C21.0285 53.5989 21.1467 53.52 21.2667 53.4393C21.3869 53.3585 21.5054 53.2786 21.625 53.1973C21.7459 53.1153 21.8632 53.0349 21.983 52.9532C22.0547 52.9043 22.1287 52.8541 22.1996 52.8056C22.2261 52.7876 22.2517 52.7697 22.2777 52.752C22.2988 52.7375 22.3202 52.7231 22.3423 52.7082C22.5746 52.5496 22.8077 52.3913 23.0403 52.2341C23.274 52.0763 23.5075 51.9198 23.7431 51.7632C23.9772 51.6074 24.213 51.4515 24.4491 51.2972C24.6852 51.1428 24.922 50.9893 25.1594 50.8367C25.3963 50.6842 25.6346 50.5326 25.8729 50.3814C26.0572 50.2645 26.2398 50.1486 26.423 50.0325C26.4857 49.9693 26.5483 49.908 26.6105 49.848C26.7924 49.6732 26.9645 49.4808 27.1366 49.2911C26.7781 49.5275 26.5088 49.7499 26.2538 49.9631C26.2196 49.9917 26.1857 50.0202 26.1518 50.0485C25.8066 50.3374 25.4709 50.6091 24.9652 50.8788C23.5277 51.649 22.7091 52.1265 22.1756 52.3855C21.6435 52.6462 21.3792 52.7059 21.0775 52.6765C20.6489 52.6361 20.0241 52.8715 19.7509 53.0536C19.6536 53.118 19.4435 52.9889 19.2867 52.7613C19.1288 52.5343 19.0857 52.2931 19.1851 52.2273C19.4792 52.031 20.1607 51.761 20.6745 51.8077C20.9039 51.8281 21.1263 51.7911 21.6576 51.5299C22.1903 51.2705 23.0118 50.7902 24.4717 50.0074C24.9658 49.7435 25.2942 49.4797 25.6413 49.1906C25.6753 49.1623 25.7096 49.1334 25.7442 49.1046C25.7445 49.1044 25.7447 49.1043 25.745 49.1042C26.0641 48.8387 26.4147 48.5505 26.9302 48.2412C28.1133 47.5204 29.7483 46.5942 30.128 46.3378C30.2 46.2868 30.2726 46.2332 30.3468 46.1782C30.6328 45.9697 30.9743 45.7071 31.8601 45.3303C31.9295 45.3012 32.0031 45.272 32.0802 45.2429C32.219 45.1906 32.372 45.1378 32.5358 45.0856C32.884 44.8397 33.2227 44.6173 33.5374 44.4601C33.8085 44.3246 34.0401 44.148 34.2714 43.9631C34.3377 43.9099 34.4046 43.8552 34.4718 43.8008C34.6313 43.6703 34.7931 43.541 34.9567 43.4343C35.0869 43.3494 35.224 43.2522 35.3679 43.1508C35.8891 42.7823 36.5409 42.3479 37.4518 42.2256C38.4181 42.0967 39.2467 42.0801 39.9606 42.0849C39.4343 42.0576 39.0254 42.0169 38.6806 41.9814C38.6158 41.9747 38.5536 41.9683 38.4936 41.9622C38.0715 41.9192 37.7591 41.8931 37.4355 41.9372C35.8859 42.1561 35.319 42.3651 34.7119 42.7347C34.5526 42.8332 34.3851 42.9567 34.2007 43.0926C33.8331 43.3641 33.4282 43.6792 32.9703 43.929C32.6293 44.1166 32.2525 44.3593 31.8806 44.6259C31.7945 44.6872 31.7073 44.7503 31.6189 44.8149C31.6187 44.815 31.6185 44.8151 31.6183 44.8151C31.5243 44.8834 31.4351 44.9512 31.343 45.0208C30.7828 45.445 30.2255 45.8987 29.6712 46.284C29.6125 46.325 29.543 46.3767 29.4632 46.4367C29.0006 46.7832 28.215 47.3964 27.0877 47.8017C26.84 47.8907 26.5668 47.9533 26.2545 48.0275C26.1592 48.0502 26.0609 48.0734 25.9583 48.0992C25.5157 48.2109 24.9855 48.3652 24.3243 48.6568C23.7787 48.8974 23.1377 49.2353 22.4783 49.5968C22.1526 49.7753 21.823 49.9589 21.4973 50.139C20.5138 50.6836 19.599 51.1746 18.6954 51.6906C18.6952 51.6907 18.6951 51.6909 18.6949 51.691C18.5868 51.7529 18.375 51.6168 18.2205 51.3877C18.0661 51.1587 18.0289 50.9217 18.1393 50.8582C19.0593 50.3313 19.9838 49.8345 20.9773 49.2836C21.3022 49.1037 21.6336 48.9189 21.9621 48.7386C22.6334 48.3701 23.2917 48.0226 23.8497 47.7758C24.5311 47.4745 25.078 47.314 25.533 47.1978C25.6425 47.1699 25.7457 47.145 25.8442 47.1212C26.1571 47.046 26.4179 46.9858 26.6564 46.8998C27.7658 46.4989 28.5396 45.8998 29.0163 45.5461C29.1007 45.4833 29.1749 45.4288 29.2388 45.3846C29.7966 44.9999 30.3627 44.5447 30.9459 44.1105C31.0413 44.0398 31.1339 43.971 31.2302 43.9017C31.2304 43.9015 31.2306 43.9013 31.2307 43.901C31.3446 43.8194 31.4574 43.7398 31.569 43.6627C31.938 43.4051 32.3164 43.1679 32.6572 42.983C33.1134 42.7374 33.4932 42.4472 33.8571 42.1804C34.0537 42.0371 34.2413 41.902 34.4323 41.7852C35.0943 41.3875 35.7132 41.1693 37.3048 40.9448ZM21.317 54.7578C21.6122 54.7091 21.815 54.606 21.9484 54.5076C21.8147 54.5619 21.6812 54.615 21.546 54.6685C21.4693 54.6989 21.3935 54.7283 21.317 54.7578ZM32.8585 46.0333C32.8186 46.0623 32.7787 46.0916 32.7389 46.1211C32.8599 46.0758 32.9822 46.0318 33.1053 45.9886C33.257 45.9354 33.404 45.8856 33.5555 45.8361C33.3119 45.8982 33.0769 45.9643 32.8585 46.0333ZM37.5823 43.2186C36.7441 43.3314 36.162 43.7245 35.6575 44.0852C35.5132 44.1891 35.3709 44.2912 35.2311 44.3838C35.1731 44.4223 35.1159 44.4636 35.0589 44.5068C35.4314 44.4463 35.7733 44.3998 36.0534 44.3649C36.8912 44.2617 37.377 44.2851 37.7992 44.3058C37.9218 44.3121 38.0396 44.3185 38.1596 44.3231C38.2531 44.2782 38.351 44.2334 38.4496 44.1931C38.5879 44.1361 38.7388 44.0803 38.8835 44.032C39.0285 43.9834 39.1776 43.9389 39.3236 43.9002C39.4708 43.8611 39.6175 43.8272 39.7641 43.7969C39.902 43.7684 40.0399 43.7432 40.1736 43.7195C40.1813 43.7181 40.189 43.7168 40.1966 43.7154C40.3376 43.6903 40.4749 43.6667 40.6009 43.6388C40.7292 43.6102 40.8356 43.5797 40.9294 43.5376C41.0466 43.485 41.1673 43.4347 41.2871 43.388C41.4071 43.3412 41.5269 43.2977 41.6468 43.2572C41.7669 43.2166 41.8861 43.1789 42.006 43.1434C42.0447 43.132 42.0852 43.1202 42.1238 43.1092C42.1416 43.1042 42.1593 43.0991 42.177 43.0941C41.9401 43.097 41.6946 43.0998 41.4401 43.1022C41.0728 43.1057 40.6788 43.0935 40.2439 43.0867C39.5008 43.0759 38.6369 43.0781 37.5823 43.2186ZM45.7665 43.0399C45.6638 43.0377 45.5132 43.0389 45.3182 43.0418C45.2721 43.0425 45.2234 43.0436 45.1724 43.0444C45.1735 43.0447 45.1748 43.0448 45.176 43.0451C45.3013 43.0749 45.4167 43.1015 45.541 43.1273C45.7622 43.173 45.9771 43.2148 46.1953 43.2537C46.414 43.2926 46.6299 43.3281 46.8471 43.3605C47.0665 43.3931 47.2855 43.4223 47.5014 43.4478C47.7178 43.4733 47.9378 43.496 48.1562 43.5136C48.2259 43.5193 48.2957 43.5244 48.3655 43.5291C48.2129 43.4882 48.0529 43.4518 47.8826 43.4143C47.7458 43.3843 47.6063 43.3538 47.4583 43.3198C47.4017 43.3068 47.3333 43.2885 47.2532 43.2673C46.9341 43.1833 46.4364 43.0539 45.7665 43.0399ZM50.1468 43.4698C50.1985 43.4706 50.2497 43.472 50.3 43.4745C50.4423 43.4813 50.5873 43.4955 50.7244 43.5111C50.8212 43.5221 50.9162 43.5345 51.0096 43.5468C51.0489 43.552 51.0882 43.557 51.127 43.5622C51.1919 43.5708 51.2567 43.5791 51.3229 43.5878C50.8807 43.4792 50.4345 43.3857 49.9798 43.3149C49.9737 43.314 49.9676 43.3133 49.9615 43.3124C50.0252 43.3659 50.0869 43.4184 50.1468 43.4698Z" fill="#0037FF"/>
<path d="M113.985 40.9448C113.629 40.8962 113.284 40.9241 112.856 40.9664C112.856 40.9664 112.855 40.9663 112.855 40.9663C112.794 40.9724 112.731 40.9789 112.665 40.9854C112.139 41.0384 111.464 41.0992 110.462 41.1156C109.353 41.1349 108.476 41.4052 107.948 41.6717C107.85 41.7216 107.748 41.7486 107.492 41.775C107.325 41.7925 107.097 41.8092 106.77 41.8373C106.596 41.8523 106.396 41.8704 106.158 41.8945C105.375 41.9726 104.146 42.0219 103.01 42.1182C102.325 42.1747 101.67 42.246 101.17 42.3238C100.449 42.436 99.7457 42.6028 98.9983 42.8083C98.3043 42.9995 97.5656 43.222 96.7002 43.5043C96.0283 43.7246 95.4298 44.141 94.8582 44.6263C94.7848 44.6885 94.7078 44.7535 94.6348 44.818C94.138 45.263 93.6399 45.7461 93.0926 46.3063C93.0617 46.3385 93.0313 46.3704 93.0015 46.4022C92.9685 46.4213 92.8925 46.5061 92.8626 46.5296C92.3112 47.3808 91.6638 47.8937 90.9434 48.4432C90.6516 48.6654 90.3463 48.8938 90.025 49.1546C89.5171 49.5679 88.8175 50.1992 88.1039 50.8474C88.043 50.9028 87.9828 50.9573 87.9217 51.0131C87.9213 51.0133 87.921 51.0136 87.9207 51.0139C87.2675 51.6088 86.6231 52.2092 86.1343 52.6499C85.95 52.8156 85.7902 52.9576 85.6513 53.0785L85.6857 53.0453C85.2727 53.3751 85.0295 53.5056 84.8167 53.626C84.7114 53.6851 84.6125 53.7407 84.4995 53.8164C84.0932 54.0866 83.5263 54.6241 83.0032 55.1833C83.0012 55.1854 82.9991 55.1875 82.9971 55.1896C82.9091 55.2831 83.0023 55.5125 83.2022 55.7035C83.4031 55.8935 83.6322 55.9759 83.7167 55.8861C83.985 55.6004 84.2553 55.3264 84.5093 55.0944C84.6854 55.2549 84.8746 55.3238 84.953 55.2491C85.1313 55.0706 85.7661 54.729 86.7376 54.1687C86.8329 54.1084 86.9325 54.0461 87.034 53.9842C87.0017 54.0762 86.9782 54.1585 86.9608 54.2321C86.9494 54.2805 86.9406 54.3235 86.9334 54.3623C86.9321 54.364 86.9271 54.368 86.9258 54.3696C86.9183 54.4007 86.9118 54.4291 86.9058 54.4555C86.8772 54.5806 86.8572 54.6638 86.7877 54.7744C86.5993 55.0006 86.2606 55.307 85.9189 55.6223C85.8324 55.7024 85.9137 55.9329 86.0998 56.1373C86.286 56.3416 86.5033 56.445 86.5873 56.3674C86.589 56.3659 86.5907 56.3644 86.5923 56.3629C86.921 56.0594 87.2794 55.7359 87.4842 55.4907C87.536 55.4288 87.5787 55.3722 87.6091 55.3283C87.6338 55.2928 87.6627 55.2487 87.6731 55.2169C87.6744 55.2127 87.6768 55.2044 87.6787 55.1936C87.6787 55.1933 87.6787 55.1931 87.6787 55.1929C87.6791 55.1906 87.6801 55.1849 87.6809 55.1761C87.6866 55.1688 87.7085 55.1514 87.714 55.144C87.7138 55.1302 87.712 55.1082 87.7046 55.0797C87.7022 55.0705 87.6966 55.0502 87.6844 55.0206C87.685 55.0168 87.6856 55.013 87.6862 55.0092C87.6949 54.9559 87.7042 54.9014 87.7171 54.8448C87.7671 54.6246 87.8749 54.3014 88.2364 53.7435C88.5681 53.2295 89.2775 52.506 90.2271 51.6614C90.1768 51.7339 90.1255 51.8064 90.0743 51.8777C89.9449 52.0576 89.8118 52.2349 89.6782 52.4101C89.6269 52.4772 89.5759 52.5437 89.5243 52.6105C89.4411 52.7182 89.3569 52.8263 89.2732 52.9335C89.2163 53.0063 89.1598 53.0784 89.1033 53.1508C89.1032 53.1509 89.103 53.1511 89.1028 53.1512C89.0239 53.2522 88.9466 53.3522 88.8679 53.4547C88.8409 53.4908 88.8142 53.5262 88.7877 53.5612C88.6815 53.7011 88.578 53.8381 88.4772 54.0137C88.4668 54.0369 88.457 54.0637 88.4502 54.0846C88.4429 54.1069 88.4363 54.1289 88.4307 54.1502C88.4257 54.1689 88.4215 54.1873 88.4172 54.2047C88.4167 54.2071 88.4161 54.2094 88.4155 54.2117C88.4107 54.2312 88.406 54.2495 88.4014 54.267C88.3967 54.2845 88.3923 54.3013 88.3872 54.317C88.3871 54.3171 88.387 54.3172 88.3869 54.3173C88.3815 54.3337 88.3774 54.3459 88.3705 54.3622C88.3618 54.3825 88.3537 54.3994 88.343 54.4188C88.3327 54.4375 88.3213 54.4564 88.3093 54.4747C88.2973 54.4931 88.2846 54.5113 88.2714 54.5294C88.2583 54.5475 88.2447 54.5656 88.2308 54.5835C88.2167 54.6015 88.2021 54.6195 88.1875 54.6375C88.1729 54.6555 88.1582 54.6737 88.1433 54.6919C88.1091 54.7337 88.1111 54.8089 88.1494 54.9028C88.1878 54.9967 88.2597 55.1005 88.3496 55.1929C88.4396 55.2852 88.5409 55.3596 88.6322 55.4005C88.7234 55.4415 88.7963 55.4461 88.8372 55.4134C88.8483 55.4045 88.8596 55.3957 88.8708 55.3866C88.8775 55.3813 88.884 55.3757 88.8907 55.3703C88.9087 55.3557 88.9272 55.341 88.9451 55.326C88.9629 55.3109 88.9807 55.2954 88.9984 55.2794C89.0162 55.2633 89.0341 55.2467 89.0516 55.2292C89.069 55.2117 89.0863 55.1931 89.1031 55.1733C89.1197 55.1539 89.137 55.131 89.1516 55.1091C89.1623 55.0932 89.1742 55.0721 89.1839 55.0542C89.1939 55.0354 89.2032 55.0163 89.2118 54.9974C89.2205 54.9784 89.2284 54.9595 89.236 54.9416C89.2369 54.9397 89.2377 54.9378 89.2386 54.9359C89.2453 54.92 89.2518 54.9045 89.2581 54.8904C89.2652 54.8745 89.2724 54.86 89.2796 54.8466C89.2875 54.8317 89.2931 54.8235 89.3001 54.8136C89.4047 54.695 89.5511 54.5655 89.6918 54.4419C89.7095 54.4263 89.727 54.4107 89.7445 54.3954C89.8382 54.3137 89.9308 54.2341 90.0257 54.1529C90.0939 54.0945 90.1626 54.0359 90.2319 53.9765C90.3329 53.89 90.4355 53.8014 90.5367 53.7136C90.5997 53.6588 90.6622 53.604 90.7247 53.5489C90.8887 53.4043 91.0532 53.2565 91.2149 53.1047C91.3768 52.9528 91.5375 52.7958 91.693 52.633C91.8487 52.4701 92.0048 52.2944 92.1459 52.1129C92.2496 51.9787 92.3409 51.8251 92.4215 51.6784C92.4646 51.5996 92.5063 51.5214 92.5471 51.4438C92.5472 51.4435 92.5473 51.4432 92.5474 51.4429C92.5829 51.3751 92.6179 51.308 92.6535 51.2419C92.73 51.0998 92.8066 50.9647 92.8893 50.8334C92.9708 50.7033 93.0578 50.5772 93.149 50.4568C93.2401 50.3367 93.3372 50.2196 93.4378 50.1078C93.5392 49.995 93.6416 49.8896 93.7537 49.7805C93.9005 49.6384 94.0518 49.5013 94.2073 49.3604C94.3618 49.2209 94.5191 49.0805 94.6757 48.9387C94.7305 48.8891 94.7853 48.8387 94.84 48.7888C94.8402 48.7886 94.8404 48.7884 94.8406 48.7882C94.9093 48.7254 94.9782 48.6621 95.0471 48.5982L94.8748 48.7563C94.8965 48.7427 94.919 48.7288 94.9425 48.7147C95.0559 48.646 95.1869 48.5742 95.3235 48.5047C95.4674 48.4308 95.6054 48.3653 95.7626 48.2902C95.9198 48.2152 96.0719 48.1435 96.2413 48.0537C96.3855 47.9771 96.5314 47.8988 96.6855 47.8211C96.7266 47.8005 96.7659 47.7808 96.8049 47.7614C96.9889 47.67 97.1901 47.5826 97.3805 47.5185C97.571 47.4538 97.7837 47.401 97.987 47.3663C98.1907 47.3314 98.4139 47.3057 98.629 47.2923C98.845 47.2787 99.0694 47.2723 99.293 47.2734C99.5126 47.2752 99.7388 47.2819 99.9694 47.2935C100.094 47.3005 100.227 47.3041 100.354 47.3054C100.481 47.3069 100.609 47.306 100.734 47.3049C100.784 47.3046 100.833 47.3041 100.883 47.3038C100.955 47.3034 101.027 47.3029 101.098 47.3034C101.218 47.3043 101.336 47.3074 101.452 47.3152C101.567 47.3232 101.677 47.3366 101.786 47.3571C101.898 47.3785 101.992 47.4036 102.106 47.4426C102.383 47.5105 102.54 47.5235 102.723 47.5379C102.759 47.5408 102.796 47.544 102.834 47.5476C103.054 47.5628 103.269 47.5701 103.482 47.5719C103.697 47.5736 103.912 47.5694 104.123 47.5608C104.334 47.5522 104.547 47.5383 104.76 47.5201C104.97 47.5021 105.181 47.4798 105.393 47.4528C105.607 47.4258 105.821 47.3938 106.028 47.3588C106.148 47.3386 106.276 47.3136 106.395 47.2888C106.482 47.2709 106.565 47.2526 106.648 47.2347C106.682 47.2275 106.715 47.2203 106.748 47.2132C106.863 47.1891 106.975 47.1669 107.084 47.15C107.192 47.1331 107.298 47.1211 107.4 47.1163C107.503 47.1115 107.604 47.1139 107.704 47.1234C107.809 47.1337 107.896 47.1479 108.007 47.1741C108.079 47.1914 108.15 47.209 108.22 47.2268C108.325 47.2534 108.429 47.2809 108.534 47.3098C108.638 47.3387 108.742 47.3685 108.845 47.3999C108.878 47.41 108.913 47.4208 108.947 47.4312C109.05 47.4636 109.151 47.4972 109.252 47.5329C109.353 47.5685 109.452 47.6059 109.551 47.6457C109.65 47.6857 109.747 47.7274 109.846 47.7727C110.013 47.8498 110.174 47.8906 110.316 47.9203C110.458 47.9498 110.592 47.9701 110.722 47.9902C110.746 47.9939 110.771 47.9977 110.795 48.0015C110.9 48.0177 111.003 48.0336 111.104 48.0515C111.229 48.0736 111.35 48.0984 111.472 48.1266C111.592 48.1545 111.714 48.1861 111.833 48.2217C111.953 48.2577 112.066 48.2956 112.188 48.3409C112.309 48.3855 112.428 48.4404 112.561 48.5011C112.692 48.5613 112.828 48.6242 112.966 48.6824C113.104 48.7407 113.242 48.7944 113.382 48.8418C113.522 48.8893 113.662 48.931 113.8 48.9671C113.939 49.0034 114.076 49.0342 114.215 49.0616C114.353 49.0889 114.495 49.1131 114.629 49.1325C114.843 49.1637 115.06 49.1947 115.274 49.2263C115.486 49.2575 115.698 49.2899 115.91 49.3242C116.122 49.3584 116.327 49.3931 116.537 49.4314C116.747 49.4694 116.95 49.5083 117.154 49.5506C117.2 49.56 117.245 49.5695 117.29 49.5792C117.449 49.613 117.605 49.6481 117.758 49.6846C117.759 49.6848 117.761 49.6849 117.762 49.6851C117.765 49.686 117.769 49.6868 117.772 49.6877C117.958 49.7315 118.149 49.7814 118.343 49.8377C118.417 49.8593 118.485 49.8796 118.556 49.9022C118.627 49.9247 118.697 49.9483 118.768 49.9731C118.838 49.9975 118.908 50.0233 118.977 50.0505C119.046 50.0779 119.115 50.1065 119.182 50.1368C119.243 50.1647 119.304 50.1949 119.371 50.2282C119.377 50.2312 119.383 50.2343 119.389 50.2373C119.463 50.2742 119.545 50.3125 119.626 50.3438C119.842 50.4264 120.048 50.5121 120.26 50.607C120.47 50.7011 120.68 50.8019 120.89 50.907C120.973 50.9483 121.055 50.99 121.138 51.032C121.266 51.0974 121.396 51.1644 121.525 51.2307C121.739 51.3406 121.953 51.4494 122.173 51.5566C122.39 51.6626 122.614 51.7669 122.837 51.8658C123.062 51.9652 123.29 52.0609 123.519 52.1521C123.774 52.2533 124.029 52.3531 124.285 52.4538C124.542 52.5544 124.799 52.6553 125.055 52.7567C125.312 52.8583 125.569 52.9606 125.827 53.0637C126.084 53.1668 126.342 53.271 126.598 53.3753C126.753 53.4384 126.907 53.5011 127.061 53.5642C127.123 53.6298 127.182 53.693 127.239 53.7535C127.659 54.2015 127.957 54.5271 128.383 54.8979C128.422 54.9374 128.449 54.9757 128.482 55.0221C128.488 55.0309 128.495 55.0401 128.502 55.0496C128.545 55.11 128.595 55.176 128.678 55.2518C128.843 55.4032 129.125 55.5802 129.614 55.6318C129.738 55.6446 129.945 55.4641 130.079 55.2284C130.173 55.0631 130.205 54.914 130.172 54.8346C130.299 54.8829 130.428 54.931 130.556 54.9795C130.607 54.9987 130.683 54.9759 130.768 54.915C130.854 54.8541 130.941 54.7605 131.013 54.6534C131.084 54.5463 131.134 54.4338 131.152 54.3388C131.169 54.244 131.153 54.1747 131.108 54.1455C130.985 54.0674 130.865 53.9914 130.744 53.9138C130.622 53.8353 130.503 53.7579 130.383 53.6787C130.262 53.5989 130.144 53.52 130.024 53.4393C129.903 53.3585 129.785 53.2786 129.665 53.1973C129.544 53.1153 129.427 53.0349 129.307 52.9532C129.236 52.9043 129.162 52.8541 129.091 52.8056C129.064 52.7876 129.039 52.7697 129.013 52.752C128.991 52.7375 128.97 52.7231 128.948 52.7082C128.716 52.5496 128.483 52.3913 128.25 52.2341C128.016 52.0763 127.783 51.9198 127.547 51.7632C127.313 51.6074 127.077 51.4515 126.841 51.2972C126.605 51.1428 126.368 50.9893 126.131 50.8367C125.894 50.6842 125.656 50.5326 125.417 50.3814C125.233 50.2645 125.05 50.1486 124.867 50.0325C124.805 49.9693 124.742 49.908 124.68 49.848C124.498 49.6732 124.326 49.4808 124.154 49.2911C124.512 49.5275 124.781 49.7499 125.037 49.9631C125.071 49.9917 125.105 50.0202 125.138 50.0485C125.484 50.3374 125.819 50.6091 126.325 50.8788C127.763 51.649 128.581 52.1265 129.115 52.3855C129.647 52.6462 129.911 52.7059 130.213 52.6765C130.641 52.6361 131.266 52.8715 131.539 53.0536C131.637 53.118 131.847 52.9889 132.004 52.7613C132.161 52.5343 132.205 52.2931 132.105 52.2273C131.811 52.031 131.13 51.761 130.616 51.8077C130.386 51.8281 130.164 51.7911 129.633 51.5299C129.1 51.2705 128.278 50.7902 126.819 50.0074C126.324 49.7435 125.996 49.4797 125.649 49.1906C125.615 49.1623 125.581 49.1334 125.546 49.1046C125.546 49.1044 125.546 49.1043 125.545 49.1042C125.226 48.8387 124.876 48.5505 124.36 48.2412C123.177 47.5204 121.542 46.5942 121.162 46.3378C121.09 46.2868 121.018 46.2332 120.944 46.1782C120.658 45.9697 120.316 45.7071 119.43 45.3303C119.361 45.3012 119.287 45.272 119.21 45.2429C119.071 45.1906 118.918 45.1378 118.755 45.0856C118.406 44.8397 118.068 44.6173 117.753 44.4601C117.482 44.3246 117.25 44.148 117.019 43.9631C116.953 43.9099 116.886 43.8552 116.819 43.8008C116.659 43.6703 116.497 43.541 116.334 43.4343C116.203 43.3494 116.066 43.2522 115.922 43.1508C115.401 42.7823 114.749 42.3479 113.838 42.2256C112.872 42.0967 112.044 42.0801 111.33 42.0849C111.856 42.0576 112.265 42.0169 112.61 41.9814C112.675 41.9747 112.737 41.9683 112.797 41.9622C113.219 41.9192 113.531 41.8931 113.855 41.9372C115.404 42.1561 115.971 42.3651 116.578 42.7347C116.738 42.8332 116.905 42.9567 117.09 43.0926C117.457 43.3641 117.862 43.6792 118.32 43.929C118.661 44.1166 119.038 44.3593 119.41 44.6259C119.496 44.6872 119.583 44.7503 119.671 44.8149C119.672 44.815 119.672 44.8151 119.672 44.8151C119.766 44.8834 119.855 44.9512 119.947 45.0208C120.507 45.445 121.065 45.8987 121.619 46.284C121.678 46.325 121.747 46.3767 121.827 46.4367C122.29 46.7832 123.075 47.3964 124.203 47.8017C124.45 47.8907 124.723 47.9533 125.036 48.0275C125.131 48.0502 125.229 48.0734 125.332 48.0992C125.775 48.2109 126.305 48.3652 126.966 48.6568C127.512 48.8974 128.153 49.2353 128.812 49.5968C129.138 49.7753 129.467 49.9589 129.793 50.139C130.776 50.6836 131.691 51.1746 132.595 51.6906C132.595 51.6907 132.595 51.6909 132.595 51.691C132.703 51.7529 132.915 51.6168 133.07 51.3877C133.224 51.1587 133.261 50.9217 133.151 50.8582C132.231 50.3313 131.306 49.8345 130.313 49.2836C129.988 49.1037 129.657 48.9189 129.328 48.7386C128.657 48.3701 127.999 48.0226 127.441 47.7758C126.759 47.4745 126.212 47.314 125.757 47.1978C125.648 47.1699 125.545 47.145 125.446 47.1212C125.133 47.046 124.872 46.9858 124.634 46.8998C123.524 46.4989 122.751 45.8998 122.274 45.5461C122.19 45.4833 122.115 45.4288 122.051 45.3846C121.494 44.9999 120.928 44.5447 120.344 44.1105C120.249 44.0398 120.156 43.971 120.06 43.9017C120.06 43.9015 120.06 43.9013 120.06 43.901C119.946 43.8194 119.833 43.7398 119.721 43.6627C119.352 43.4051 118.974 43.1679 118.633 42.983C118.177 42.7374 117.797 42.4472 117.433 42.1804C117.237 42.0371 117.049 41.902 116.858 41.7852C116.196 41.3875 115.577 41.1693 113.985 40.9448ZM129.973 54.7578C129.678 54.7091 129.475 54.606 129.342 54.5076C129.476 54.5619 129.609 54.615 129.744 54.6685C129.821 54.6989 129.897 54.7283 129.973 54.7578ZM118.432 46.0333C118.472 46.0623 118.512 46.0916 118.551 46.1211C118.43 46.0758 118.308 46.0318 118.185 45.9886C118.033 45.9354 117.886 45.8856 117.735 45.8361C117.978 45.8982 118.213 45.9643 118.432 46.0333ZM113.708 43.2186C114.546 43.3314 115.128 43.7245 115.633 44.0852C115.777 44.1891 115.919 44.2912 116.059 44.3838C116.117 44.4223 116.174 44.4636 116.231 44.5068C115.859 44.4463 115.517 44.3998 115.237 44.3649C114.399 44.2617 113.913 44.2851 113.491 44.3058C113.368 44.3121 113.251 44.3185 113.131 44.3231C113.037 44.2782 112.939 44.2334 112.841 44.1931C112.702 44.1361 112.551 44.0803 112.407 44.032C112.262 43.9834 112.113 43.9389 111.967 43.9002C111.819 43.8611 111.673 43.8272 111.526 43.7969C111.388 43.7684 111.25 43.7432 111.117 43.7195C111.109 43.7181 111.101 43.7168 111.094 43.7154C110.953 43.6903 110.815 43.6667 110.689 43.6388C110.561 43.6102 110.455 43.5797 110.361 43.5376C110.244 43.485 110.123 43.4347 110.003 43.388C109.883 43.3412 109.763 43.2977 109.644 43.2572C109.523 43.2166 109.404 43.1789 109.284 43.1434C109.246 43.132 109.205 43.1202 109.166 43.1092C109.149 43.1042 109.131 43.0991 109.113 43.0941C109.35 43.097 109.596 43.0998 109.85 43.1022C110.218 43.1057 110.611 43.0935 111.046 43.0867C111.79 43.0759 112.653 43.0781 113.708 43.2186ZM105.524 43.0399C105.626 43.0377 105.777 43.0389 105.972 43.0418C106.018 43.0425 106.067 43.0436 106.118 43.0444C106.117 43.0447 106.116 43.0448 106.114 43.0451C105.989 43.0749 105.874 43.1015 105.749 43.1273C105.528 43.173 105.313 43.2148 105.095 43.2537C104.876 43.2926 104.66 43.3281 104.443 43.3605C104.224 43.3931 104.005 43.4223 103.789 43.4478C103.572 43.4733 103.353 43.496 103.134 43.5136C103.064 43.5193 102.995 43.5244 102.925 43.5291C103.077 43.4882 103.237 43.4518 103.408 43.4143C103.544 43.3843 103.684 43.3538 103.832 43.3198C103.889 43.3068 103.957 43.2885 104.037 43.2673C104.356 43.1833 104.854 43.0539 105.524 43.0399ZM101.143 43.4698C101.092 43.4706 101.041 43.472 100.99 43.4745C100.848 43.4813 100.703 43.4955 100.566 43.5111C100.469 43.5221 100.374 43.5345 100.281 43.5468C100.241 43.552 100.202 43.557 100.163 43.5622C100.098 43.5708 100.034 43.5791 99.9674 43.5878C100.41 43.4792 100.856 43.3857 101.31 43.3149C101.317 43.314 101.323 43.3133 101.329 43.3124C101.265 43.3659 101.203 43.4184 101.143 43.4698Z" fill="#0037FF"/>
<path d="M66.499 88.7476C66.8652 88.773 67.2183 88.8669 67.6429 88.9817C67.6431 88.9818 67.6434 88.9818 67.6436 88.9818C67.705 88.9982 67.7685 89.0154 67.8342 89.0326C68.3678 89.171 69.0533 89.3358 70.1195 89.4563C71.2795 89.5881 72.2088 89.8967 72.7744 90.1811C72.8797 90.2341 72.9927 90.2648 73.2699 90.2968C73.4511 90.3177 73.6965 90.3385 74.0538 90.3671C74.2439 90.3823 74.4658 90.3996 74.727 90.4201C75.5776 90.4884 76.9263 90.4824 78.1699 90.4598C78.9175 90.4467 79.6415 90.4288 80.1789 90.4278C80.9729 90.4263 81.7395 90.4596 82.5753 90.4905C83.3428 90.5187 84.161 90.5452 85.1116 90.5364C85.5767 90.532 86.0383 90.5998 86.5038 90.6985L85.8773 90.8216C86.1393 90.8015 86.4012 90.7908 86.6672 90.7802C86.7619 90.7762 86.8568 90.7722 86.9516 90.7682C87.6038 90.7412 88.2777 90.7013 88.9639 90.5473C90.1872 90.2712 91.0603 89.7815 91.9962 89.2201C92.3622 88.9999 92.7411 88.766 93.1509 88.5256C93.8043 88.1435 94.756 87.6296 95.6744 87.0697C95.7515 87.0228 95.8323 86.9728 95.9094 86.925C95.9098 86.9247 95.9102 86.9245 95.9106 86.9242C96.7457 86.4082 97.528 85.8581 98.0346 85.4146C98.7179 84.816 98.915 84.4828 99.0035 84.282C99.0091 84.2729 99.0315 84.2499 99.0374 84.241C99.0719 84.1844 99.1039 84.1315 99.1351 84.08C99.2133 83.9513 99.2866 83.8325 99.3821 83.6987C99.7252 83.2145 100.348 82.5866 100.959 81.9953C100.961 81.993 100.963 81.9907 100.966 81.9884C101.067 81.8898 101.307 81.9696 101.502 82.1656C101.697 82.3616 101.773 82.5997 101.672 82.6978C101.351 83.0107 101.035 83.321 100.762 83.6123C100.919 83.7917 100.975 83.9927 100.887 84.0839C100.75 84.2254 100.488 84.5974 100.142 85.1859C99.9515 85.5441 99.6575 85.9703 99.2871 86.4332C99.3957 86.3974 99.4858 86.3746 99.5733 86.3503C99.6738 86.3237 99.7523 86.3068 99.8192 86.292C99.9649 86.2551 100.056 86.2345 100.192 86.1486C100.338 86.0312 100.518 85.8627 100.705 85.6427L100.693 85.6573C100.848 85.4882 101.017 85.3014 101.195 85.1123C101.289 85.0121 101.53 85.0842 101.732 85.2727C101.934 85.4614 102.023 85.6918 101.933 85.7877C101.932 85.7896 101.93 85.7915 101.928 85.7934C101.763 85.9696 101.602 86.1462 101.454 86.3082L101.487 86.268C101.251 86.5482 101.041 86.7439 100.866 86.887C100.783 86.9536 100.712 87.0037 100.654 87.0421C100.609 87.0725 100.551 87.1089 100.514 87.1203C100.509 87.1219 100.5 87.1248 100.487 87.1271C100.487 87.1271 100.487 87.1271 100.487 87.1271C100.48 87.1285 100.444 87.1355 100.393 87.1274C100.382 87.1258 100.359 87.1219 100.327 87.1111C100.322 87.1123 100.317 87.1135 100.313 87.1147C100.247 87.1311 100.177 87.1502 100.109 87.1674C99.8357 87.2413 99.4378 87.3847 98.6995 87.728C98.0246 88.0406 96.9831 88.6709 95.6741 89.4226C95.7731 89.3894 95.8708 89.3558 95.9677 89.3212C96.2184 89.2302 96.4588 89.1375 96.7051 89.0354C96.7988 88.9966 96.8871 88.9603 96.983 88.9184C97.1359 88.8521 97.2809 88.7889 97.4334 88.7186C97.5356 88.6718 97.6365 88.6247 97.7359 88.578C97.7361 88.5779 97.7363 88.5778 97.7365 88.5776C97.8774 88.5109 98.0195 88.4421 98.1581 88.3748C98.208 88.3509 98.2583 88.3261 98.3071 88.302C98.4994 88.2071 98.692 88.1081 98.921 88.0143C98.9497 88.0055 98.985 87.9954 99.0109 87.9896C99.0389 87.9829 99.0661 87.9771 99.0922 87.9722C99.1153 87.9679 99.1377 87.9643 99.1589 87.9606C99.1617 87.9601 99.1645 87.9596 99.1674 87.9591C99.1911 87.955 99.2135 87.9507 99.2349 87.9466C99.2563 87.9424 99.2769 87.9384 99.2964 87.9335C99.2965 87.9334 99.2967 87.9333 99.2968 87.9332C99.3171 87.9281 99.3325 87.9241 99.353 87.9173C99.3781 87.9093 99.4015 87.8998 99.4274 87.8884C99.4527 87.8771 99.4784 87.8647 99.5036 87.8514C99.5289 87.8382 99.5541 87.8242 99.5792 87.8096C99.6043 87.795 99.6295 87.7799 99.6545 87.7644C99.6797 87.7487 99.7035 87.7334 99.7298 87.7161C99.756 87.699 99.7822 87.6817 99.8082 87.6642C99.8683 87.624 99.9559 87.6237 100.055 87.6642C100.153 87.7048 100.254 87.7824 100.337 87.881C100.42 87.9804 100.477 88.0939 100.496 88.199C100.515 88.304 100.493 88.3917 100.437 88.4434C100.421 88.4574 100.406 88.4717 100.39 88.4858C100.381 88.4942 100.372 88.5026 100.362 88.511C100.337 88.5335 100.314 88.5548 100.289 88.5766C100.264 88.5981 100.238 88.6195 100.212 88.641C100.185 88.6624 100.158 88.6839 100.13 88.7049C100.102 88.7259 100.072 88.7467 100.041 88.7669C100.011 88.7861 99.9778 88.8057 99.946 88.8223C99.9229 88.8345 99.8932 88.848 99.868 88.8588C99.8416 88.8701 99.8151 88.8804 99.7891 88.89C99.763 88.8995 99.7373 88.9082 99.7128 88.9165C99.7102 88.9175 99.7075 88.9184 99.7049 88.9193C99.6832 88.9267 99.6621 88.9337 99.6424 88.9407C99.6208 88.9483 99.6013 88.9554 99.5828 88.9629C99.5624 88.971 99.5507 88.9768 99.5364 88.9842C99.3559 89.0966 99.147 89.2496 98.9435 89.3938C98.9178 89.412 98.8918 89.4302 98.8677 89.4472C98.7385 89.5387 98.6036 89.6332 98.4721 89.7239C98.3777 89.7891 98.2816 89.8547 98.1838 89.9204C98.04 90.0168 97.901 90.108 97.7545 90.2018C97.6633 90.26 97.5789 90.3131 97.4887 90.3689C97.2512 90.5159 97.0196 90.6531 96.7761 90.7888C96.5396 90.9204 96.2911 91.0505 96.0445 91.1681C95.7928 91.2886 95.5374 91.3982 95.2735 91.4939C95.0847 91.5609 94.8768 91.6112 94.6826 91.6511C94.5798 91.6717 94.478 91.6909 94.3771 91.7093C94.3767 91.7093 94.3763 91.7094 94.376 91.7094C94.2873 91.7255 94.1995 91.7414 94.1123 91.758C93.929 91.7917 93.7503 91.8285 93.5728 91.8718C93.3955 91.9149 93.2272 91.9609 93.0559 92.0156C92.885 92.0704 92.7198 92.129 92.5552 92.194C92.3898 92.2593 92.2295 92.3284 92.065 92.4038C91.8476 92.5041 91.6325 92.6104 91.4145 92.718C91.1961 92.8261 90.9776 92.9355 90.7577 93.044C90.6806 93.082 90.6029 93.1198 90.5248 93.1579C90.5245 93.158 90.5242 93.1581 90.5239 93.1583C90.3811 93.2281 90.2388 93.2971 90.0939 93.3661C89.8687 93.4732 89.6482 93.576 89.4201 93.6776C89.1904 93.7798 88.9658 93.876 88.7308 93.9692C88.4947 94.0625 88.258 94.1496 88.0076 94.2246C87.7844 94.2919 87.5634 94.352 87.3417 94.4113C87.2834 94.4269 87.2249 94.4424 87.1664 94.4579C87.1645 94.4584 87.1626 94.4589 87.1607 94.4594C87.0634 94.4805 86.7913 94.5591 86.6921 94.5515C86.413 94.5425 86.1434 94.5371 85.878 94.5456C85.6109 94.5538 85.3451 94.5755 85.0779 94.6082C84.8121 94.6408 84.5383 94.6839 84.2658 94.733C83.9916 94.7824 83.7216 94.8371 83.4467 94.8957C83.1751 94.954 82.8971 95.0156 82.618 95.0797C82.4627 95.1152 82.2976 95.1482 82.1416 95.1766C81.9841 95.2052 81.8278 95.2307 81.6736 95.2545C81.611 95.2642 81.5487 95.2734 81.487 95.2827C81.3973 95.2963 81.3059 95.3095 81.2173 95.3232C81.0674 95.3463 80.9214 95.3706 80.7797 95.3983C80.6382 95.426 80.501 95.4576 80.3687 95.4954C80.2319 95.5346 80.1192 95.574 79.9847 95.6297C79.6584 95.7381 79.4496 95.7724 79.2218 95.8106C79.1768 95.8181 79.1309 95.8261 79.083 95.8344C78.8093 95.8772 78.5365 95.9092 78.2681 95.9332C77.9988 95.9573 77.7264 95.9733 77.4543 95.9824C77.1843 95.9914 76.9133 95.9931 76.6444 95.9884C76.3774 95.9837 76.1057 95.9725 75.8348 95.9545C75.5641 95.9366 75.2891 95.9115 75.0263 95.8812C74.8739 95.8637 74.7154 95.8408 74.563 95.8172C74.4536 95.8003 74.346 95.7825 74.2407 95.7648C74.1978 95.7577 74.1551 95.7505 74.1128 95.7434C73.9671 95.7192 73.8259 95.6964 73.6898 95.6783C73.5536 95.6601 73.4221 95.6464 73.2935 95.6395C73.1644 95.6325 73.0402 95.6322 72.9107 95.6386C72.7777 95.6456 72.6673 95.6567 72.5262 95.6784C72.4343 95.6927 72.3444 95.7072 72.2549 95.7216C72.1208 95.7432 71.988 95.7652 71.8543 95.788C71.7209 95.8108 71.5894 95.834 71.4574 95.8584C71.4155 95.8662 71.3689 95.8744 71.3257 95.8824C71.1915 95.9073 71.0591 95.9329 70.9271 95.9602C70.7952 95.9873 70.6648 96.0159 70.535 96.0464C70.4047 96.077 70.2768 96.109 70.1464 96.1439C69.9257 96.2035 69.7128 96.2257 69.5252 96.238C69.336 96.2501 69.1602 96.253 68.9897 96.2553C68.9578 96.2557 68.9259 96.2561 68.894 96.2565C68.7567 96.2581 68.622 96.259 68.4896 96.2617C68.3277 96.2649 68.1638 96.2702 67.9998 96.278C67.8373 96.2858 67.6736 96.2961 67.5127 96.3099C67.3502 96.3239 67.1952 96.3401 67.0284 96.3611C66.864 96.3818 66.6949 96.4115 66.506 96.443C66.3198 96.4744 66.1251 96.506 65.9292 96.5313C65.7335 96.5567 65.5359 96.5759 65.3413 96.5874C65.145 96.599 64.9421 96.6027 64.7473 96.6004C64.5506 96.598 64.3567 96.5892 64.1653 96.5754C63.9744 96.5617 63.779 96.5424 63.5896 96.5189C63.286 96.4813 62.9871 96.4395 62.6907 96.3954C62.4013 96.352 62.0902 96.3034 61.7937 96.2541C61.4936 96.2043 61.2085 96.1542 60.9034 96.0993C60.6016 96.0449 60.3036 95.9887 60.0097 95.9312C59.9447 95.9185 59.8799 95.9058 59.8153 95.8929C59.5804 95.8467 59.3449 95.7991 59.1144 95.7514C59.1128 95.751 59.1113 95.7506 59.1097 95.7502C58.8117 95.6888 58.5293 95.6284 58.2249 95.5645C58.115 95.5415 58.01 95.5192 57.9037 95.4972C57.7973 95.4752 57.6933 95.4541 57.5888 95.4333C57.4833 95.4123 57.3835 95.3931 57.2761 95.3734C57.1684 95.3538 57.0638 95.3354 56.9585 95.3188C56.8619 95.3034 56.766 95.2902 56.6619 95.2753C56.6524 95.2739 56.6429 95.2726 56.6334 95.2712C56.5195 95.2549 56.3913 95.2332 56.2742 95.2067C55.9597 95.1349 55.6391 95.0629 55.3275 94.9935C55.0226 94.9256 54.684 94.8504 54.3656 94.7772C54.24 94.7484 54.1148 94.7195 53.9906 94.6898C53.7874 94.6412 53.5835 94.5904 53.3833 94.5377C53.0591 94.4526 52.7178 94.3541 52.3812 94.2439C52.0549 94.1371 51.7027 94.0085 51.3675 93.8691C51.0454 93.7348 50.6744 93.5652 50.3465 93.3928C49.9628 93.1926 49.5906 92.9789 49.1884 92.7206C48.7975 92.4678 48.3862 92.1738 47.9892 91.8343C47.567 91.4745 47.1446 91.062 46.7346 90.5131C46.5297 90.2382 46.3175 89.9067 46.1473 89.5602C46.0624 89.3665 45.9818 89.172 45.9045 88.9743C45.8122 88.7382 45.7258 88.4995 45.6452 88.2579C45.5687 88.1458 45.4958 88.0365 45.4272 87.9302C44.9243 87.1421 44.5978 86.5196 44.3064 85.6469C44.2746 85.5644 44.242 85.498 44.2031 85.4172C44.1957 85.4018 44.1881 85.3853 44.1802 85.3686C44.1303 85.2622 44.0763 85.1389 44.0258 84.9613C43.926 84.6095 43.8428 84.0382 44.0282 83.3064C44.0751 83.1212 44.337 82.9963 44.6084 83.0212C44.7989 83.0383 44.9439 83.1208 44.9977 83.2265C45.0166 83.023 45.0416 82.8215 45.0708 82.6219C45.0825 82.5423 45.1439 82.4669 45.2424 82.4142C45.3409 82.3614 45.468 82.3354 45.5967 82.3398C45.7254 82.3443 45.8461 82.3785 45.9344 82.4335C46.0226 82.4886 46.0712 82.56 46.0708 82.6338C46.0697 82.8297 46.0731 83.0253 46.0829 83.2209C46.0926 83.4166 46.1086 83.6112 46.1304 83.8057C46.1523 84.0003 46.1801 84.194 46.2136 84.3874C46.2471 84.5801 46.2857 84.7719 46.33 84.9629C46.3745 85.1552 46.4236 85.3419 46.4781 85.5306C46.5107 85.6434 46.5452 85.7572 46.5811 85.8682C46.5945 85.9097 46.6079 85.9496 46.6214 85.9899C46.6324 86.0227 46.6435 86.0557 46.6551 86.0897C46.778 86.4456 46.919 86.7987 47.0732 87.1391C47.228 87.4816 47.3972 87.8154 47.5789 88.1398C47.6666 88.2966 47.7568 88.4504 47.8503 88.6031C47.9832 88.8261 48.1497 89.0446 48.3106 89.2218C48.6263 89.5701 48.9614 89.8373 49.3077 90.0721C49.6376 90.2939 49.9855 90.4868 50.3276 90.6521C50.6059 90.7868 50.844 90.8869 51.1192 90.9952C51.2377 91.0203 51.339 91.0379 51.4458 91.0579C51.752 91.1141 52.0876 91.1485 52.3866 91.1627C51.8815 91.0252 51.4558 90.9234 51.0388 90.8025C50.9832 90.7863 50.9284 90.7702 50.8742 90.7537C50.3318 90.585 49.7676 90.381 49.1204 89.8544C48.6742 89.486 48.2565 89.027 47.9893 88.5249C47.3955 87.3941 47.145 86.5805 47.0126 86.0198C46.8445 85.2681 46.8793 84.9208 47.004 84.5909C47.1779 84.1219 47.2348 83.3257 47.2264 82.9311C47.2209 82.7865 47.4437 82.6641 47.72 82.6575C47.9965 82.6511 48.2218 82.7512 48.2266 82.8811C48.2341 83.2613 48.174 84.0428 47.9658 84.5637C47.8731 84.7944 47.8238 85.0543 47.9718 85.7361C48.0893 86.2444 48.3141 86.9847 48.8624 88.0342C49.0496 88.3938 49.3699 88.7603 49.7485 89.0743C50.2747 89.5057 50.7686 89.6862 51.2673 89.8356C51.3167 89.8501 51.3671 89.8643 51.4182 89.8786C51.4185 89.8787 51.4188 89.8789 51.4191 89.879C51.8964 90.0125 52.3982 90.1241 53.07 90.315C54.6152 90.7649 56.7637 91.0371 57.2861 91.0361C57.3871 91.0365 57.4858 91.0336 57.5904 91.0306C57.999 91.0188 58.4714 91.0043 59.5392 91.1029C59.769 91.1235 60.0399 91.1557 60.3401 91.1951C60.8016 91.1257 61.2406 91.0585 61.6308 91.0334C61.9623 91.011 62.2668 90.929 62.5718 90.8344C62.6593 90.8072 62.7477 90.7782 62.8362 90.7492C63.0523 90.6797 63.2573 90.6083 63.4594 90.5572C63.6201 90.5164 63.79 90.4645 63.9704 90.4092C64.6324 90.2082 65.4063 89.96 66.3807 90.0314C67.4271 90.1078 68.3111 90.2199 69.0768 90.3181C68.5231 90.2227 68.0782 90.1169 67.7239 90.0241C67.6566 90.0065 67.5923 89.9895 67.5305 89.973C67.0999 89.8572 66.7678 89.7696 66.425 89.7459C64.7738 89.6283 64.15 89.6439 63.4315 89.8156C63.2446 89.8605 63.0321 89.9236 62.8012 89.9904C62.3398 90.1238 61.8285 90.2749 61.2683 90.3223C60.7601 90.3683 60.1703 90.4521 59.5599 90.5337C59.5597 90.5336 59.5595 90.5336 59.5592 90.5336C59.4406 90.5496 59.3198 90.5654 59.1935 90.5799C58.4371 90.671 57.6449 90.7432 56.8887 90.7222C56.8062 90.7197 56.7072 90.719 56.5946 90.7181C55.9678 90.716 54.783 90.6917 53.5409 90.1351C53.2838 90.0175 52.9875 89.8425 52.7058 89.6509C52.6212 89.593 52.5188 89.526 52.4236 89.4604C52.0228 89.1792 51.5105 88.8349 50.9484 88.3979C50.5755 88.1088 50.1554 87.7193 50.0066 87.3911C49.944 87.2692 49.883 87.1458 49.8239 87.0206C49.6578 86.6689 49.508 86.3037 49.3853 85.9385C49.0146 84.8334 48.8967 83.7762 48.9407 82.7443C48.9407 82.7441 48.9407 82.7439 48.9407 82.7437C48.9459 82.6207 49.1773 82.521 49.4536 82.5206C49.7298 82.5202 49.947 82.6071 49.9414 82.7154C49.8945 83.6402 49.9905 84.5828 50.3206 85.5818C50.4287 85.908 50.5626 86.2381 50.7127 86.559C50.7665 86.674 50.8222 86.7877 50.8796 86.9005C50.8728 86.9731 51.1819 87.317 51.4994 87.5626C51.9791 87.9476 52.459 88.2823 52.8401 88.5547C52.9357 88.6215 53.0302 88.6856 53.1118 88.7425C53.3767 88.9255 53.6382 89.0836 53.8721 89.1917C55.0227 89.7125 56.1328 89.7331 56.7506 89.7336C56.8633 89.7342 56.9633 89.7346 57.0484 89.737C57.7753 89.7552 58.5418 89.6831 59.2827 89.5905C59.4035 89.5756 59.5275 89.561 59.6418 89.5445C59.6421 89.5444 59.6423 89.5443 59.6426 89.5441C60.2405 89.4614 60.8366 89.3763 61.3452 89.3286C61.8748 89.282 62.3356 89.1451 62.7729 89.0154C63.0064 88.9456 63.24 88.8788 63.4539 88.8259C64.206 88.6436 64.8579 88.6309 66.499 88.7476ZM44.9736 83.5419C44.8856 83.9686 44.9091 84.3157 44.9588 84.5659C44.9516 84.3471 44.9512 84.1294 44.9571 83.9119C44.9604 83.7882 44.9659 83.665 44.9736 83.5419ZM60.2385 92.1913C60.181 92.1995 60.1233 92.2077 60.0654 92.216C60.2202 92.2307 60.374 92.2454 60.5228 92.2588C60.7073 92.2755 60.8932 92.2923 61.0806 92.3086C60.7837 92.266 60.5056 92.2265 60.2385 92.1913ZM66.3059 91.0301C65.3818 90.9624 64.6565 91.1889 63.9994 91.3887C63.8093 91.4461 63.6257 91.5011 63.4458 91.5461C63.3713 91.5648 63.2966 91.5861 63.2213 91.6091C63.6381 91.6698 64.0325 91.7257 64.3518 91.7699C65.2907 91.8999 65.8405 92.0281 66.3075 92.1395C66.4443 92.1717 66.5764 92.2024 66.712 92.231C66.8277 92.2057 66.9484 92.1809 67.0696 92.1601C67.2356 92.1302 67.4153 92.1027 67.5868 92.0801C67.7589 92.0574 67.9342 92.0381 68.1068 92.0232C68.2801 92.008 68.4563 91.9969 68.6242 91.9879C68.7827 91.9793 68.9411 91.9732 69.095 91.9671C69.1038 91.9667 69.1126 91.9664 69.1214 91.9661C69.2841 91.9594 69.4429 91.9529 69.5897 91.94C69.7391 91.9266 69.8641 91.908 69.9759 91.8761C70.1153 91.8364 70.2535 91.7983 70.3928 91.7632C70.5318 91.728 70.6704 91.6955 70.8089 91.6652C70.9476 91.6348 71.0852 91.6066 71.2234 91.58C71.2681 91.5715 71.3148 91.5626 71.3592 91.5544C71.3796 91.5506 71.4001 91.5467 71.4205 91.543C71.152 91.5296 70.8748 91.5132 70.5905 91.4927C70.1827 91.4633 69.7392 91.4098 69.256 91.3483C68.4384 91.2435 67.4869 91.1162 66.3059 91.0301ZM75.4609 91.5496C75.345 91.5509 75.1754 91.5568 74.9576 91.5638C74.9061 91.5655 74.8518 91.5675 74.795 91.5692C74.7964 91.5695 74.7977 91.5695 74.7991 91.5698C74.9394 91.5974 75.0694 91.6215 75.2101 91.6438C75.4609 91.6835 75.7058 91.7174 75.9543 91.7463C76.2043 91.7752 76.4525 91.7987 76.6989 91.8171C76.9464 91.8355 77.1956 91.8484 77.4435 91.8558C77.6931 91.8632 77.9442 91.8654 78.1894 91.8607C78.2681 91.8592 78.3472 91.8569 78.4263 91.854C78.2489 91.8299 78.0683 91.81 77.872 91.7887C77.7157 91.7717 77.5531 91.7536 77.3826 91.7318C77.3174 91.7235 77.2385 91.7107 77.1466 91.6956C76.7828 91.6358 76.214 91.5411 75.4609 91.5496ZM80.4038 91.5552C80.4612 91.5475 80.5184 91.5405 80.5749 91.5346C80.7359 91.5176 80.8931 91.5066 81.0475 91.4972C81.1559 91.4906 81.2637 91.4852 81.369 91.4796C81.4131 91.4772 81.4573 91.4747 81.501 91.4722C81.5743 91.4681 81.647 91.4635 81.7193 91.4588C81.2146 91.4407 80.7083 91.4278 80.1924 91.4287C80.1856 91.4287 80.1788 91.429 80.1719 91.4291C80.2508 91.472 80.3281 91.5141 80.4038 91.5552Z" fill="#0037FF"/>
<path d="M25.6001 113.369C27.6316 114.816 29.603 116.093 32.2667 117.455C32.2682 117.455 32.2696 117.456 32.2711 117.457C32.6543 117.651 33.0525 117.847 33.4633 118.041C35.4772 119.012 37.7269 119.833 41.2721 121.181C43.3187 122.019 45.8015 122.836 48.7675 123.62C56.8177 125.702 63.5142 126.884 67.5522 127.758C68.3138 127.918 69.0989 128.058 71.0958 128.356C71.6204 128.434 72.222 128.521 72.9067 128.62C73.9511 128.771 75.1645 128.934 76.675 129.096C77.9893 129.235 79.5621 129.377 81.3577 129.458C86.1592 129.679 91.6836 129.397 98.4672 126.035C100.451 125.369 102.451 124.667 104.395 123.957C109.469 122.107 114.185 120.16 117.678 118.552C119.95 117.509 122.152 116.427 124.276 115.24C126.735 113.862 129.094 111.918 131.512 109.724C133.368 108.048 135.234 106.199 137.433 104.284C139.47 102.514 141.341 99.7875 143.028 96.7122C144.995 93.0891 146.695 89.3335 148.112 85.4808C148.4 84.7004 148.639 83.8803 148.835 83.0349C148.974 82.4369 149.092 81.8294 149.191 81.2108C149.856 76.9375 149.742 72.2828 148.965 67.3967C148.68 65.6593 148.322 63.969 147.859 62.4559C146.318 57.5403 144.672 53.147 142.63 48.8896C142.028 47.6504 141.366 46.4271 140.647 45.2051C139.097 42.5724 137.279 39.947 135.204 37.1504C133.982 35.5021 132.525 33.6014 130.919 31.5319C128.437 28.2781 124.322 25.5885 119.798 23.8358C119.184 23.5941 118.56 23.3668 117.935 23.1543C117.932 23.1532 117.929 23.1521 117.925 23.151C116.401 22.6317 114.863 22.2041 113.303 21.8156C108.48 20.5863 104.085 19.0206 100.47 17.6636C99.9839 17.4801 99.505 17.3155 99.0369 17.1662C94.6875 15.8506 91.5806 15.4343 89.3508 14.8744C87.6521 14.477 86.4664 14.2334 85.3618 14.044C84.4162 13.8818 83.5328 13.753 82.4808 13.6199C80.0456 13.307 76.7738 13.0384 73.1393 12.8978C73.133 12.8976 73.1141 12.8965 73.1077 12.8963C71.7993 12.8387 70.2435 12.5912 69.0964 12.4124C68.4117 12.3352 67.3838 12.2302 66.5246 12.0316C66.5002 12.0263 66.4756 12.021 66.4509 12.0155C65.3778 11.775 64.6454 11.3034 64.7261 11.0421C64.8153 10.7773 65.6688 10.8153 66.6834 11.0412C67.5279 11.2378 68.4549 11.3327 69.2224 11.419C70.474 11.6132 71.8824 11.8379 73.1652 11.8965C73.1679 11.8966 73.1761 11.8971 73.1788 11.8971C74.0964 11.9337 74.9859 11.9766 75.8422 12.0259C76.0008 11.7974 76.754 11.661 77.6525 11.731C79.2982 11.8919 83.4782 11.9734 89.7071 13.4495C91.9538 13.9559 94.5066 14.3607 97.299 15.0099C96.5922 14.779 95.9972 14.5927 95.4758 14.4291C94.8637 14.2376 94.3946 14.0913 93.9915 13.9658C93.1515 13.7043 92.5918 13.5348 91.5947 13.2721C91.0765 13.1447 90.4931 13.0012 89.8602 12.8368C87.6499 12.2486 84.7181 11.5661 81.6373 11.1939C80.6316 11.0663 79.8526 10.7662 79.8792 10.4905C79.9148 10.2169 80.7562 10.073 81.7788 10.2028C81.7988 10.2053 81.8188 10.2078 81.8387 10.2103C84.8477 10.5758 87.8469 11.2634 90.1032 11.865C90.8193 12.0509 91.4844 12.2129 92.0734 12.3569C92.6861 12.5065 93.2179 12.6366 93.6179 12.7373C93.9375 12.8176 94.338 12.9196 94.559 12.9859C94.5883 12.9947 94.6442 13.0118 94.7105 13.0336C94.7116 13.034 94.7127 13.0344 94.7138 13.0348C94.7509 13.047 94.9405 13.1088 95.1384 13.1958C95.1783 13.2133 95.2651 13.252 95.364 13.3052C95.3907 13.3137 95.4174 13.3222 95.4441 13.3308C95.8167 13.4495 96.1973 13.5727 96.61 13.7067C97.6391 14.052 99.0792 14.4733 101.326 15.4179C102.531 15.9357 104.003 16.5428 105.834 17.2341C107.874 17.9988 110.554 18.9408 113.807 19.7989C118.072 20.9147 123.382 22.5226 128.33 26.2004C127.757 25.7419 127.161 25.3064 126.553 24.897C125.017 23.8642 123.377 22.9792 121.688 22.2156C121.042 21.924 120.394 21.6517 119.73 21.3918C118.663 20.974 117.57 20.5952 116.478 20.2545C115.737 20.0233 114.984 19.8068 114.248 19.6046C114.246 19.6041 114.244 19.6037 114.243 19.6032C114.117 19.5687 113.996 19.5357 113.881 19.5042C112.99 19.2612 112.1 18.9979 111.206 18.7183C110.853 18.6072 110.503 18.495 110.157 18.3822C108.778 17.9321 107.43 17.4637 105.896 16.873C105.711 16.7986 105.51 16.7153 105.36 16.6518C105.2 16.5839 105.045 16.5174 104.9 16.4538C104.772 16.3975 104.65 16.343 104.533 16.2911C104.517 16.2841 104.502 16.2772 104.486 16.2702C104.355 16.2118 104.23 16.1562 104.11 16.1029C103.989 16.0494 103.874 15.9979 103.76 15.9481C103.759 15.9477 103.758 15.9473 103.756 15.9469C103.637 15.8949 103.546 15.8553 103.42 15.8015C103.26 15.7339 103.123 15.6762 102.957 15.6077C102.795 15.541 102.628 15.4729 102.457 15.4037C102.288 15.3349 102.114 15.265 101.939 15.1944C101.788 15.134 101.634 15.072 101.481 15.0104C101.454 14.9995 101.427 14.9887 101.399 14.9778C101.208 14.9021 101.014 14.8278 100.818 14.7552C100.623 14.6826 100.424 14.6112 100.225 14.5416C99.7653 14.3811 99.3381 14.1918 99.0375 14.0046C98.7372 13.8176 98.5877 13.6468 98.6249 13.5232C98.6623 13.3999 98.8844 13.333 99.2467 13.3434C99.609 13.3539 100.083 13.4433 100.559 13.598C100.689 13.64 100.82 13.683 100.95 13.7272C101.028 13.7534 101.107 13.7804 101.185 13.8075C101.394 13.8802 101.606 13.9559 101.819 14.0353C101.829 14.0389 101.839 14.0425 101.849 14.0461C102.032 14.1145 102.219 14.1845 102.406 14.2543C102.604 14.3282 102.803 14.4024 103.006 14.4788C103.207 14.5545 103.414 14.6327 103.624 14.7125C103.828 14.7904 104.061 14.8804 104.269 14.9617C104.421 15.0212 104.607 15.0959 104.763 15.1584C104.926 15.2238 105.084 15.2883 105.239 15.3511C105.393 15.414 105.542 15.4752 105.684 15.5333C105.699 15.5395 105.714 15.5457 105.73 15.5518C105.855 15.6031 105.977 15.6526 106.092 15.6988C106.22 15.7504 106.342 15.7985 106.459 15.8435C106.586 15.8931 106.664 15.922 106.76 15.9572C108.034 16.4071 109.621 16.9173 111.138 17.3601C111.329 17.416 111.518 17.4706 111.706 17.5243C112.54 17.762 113.377 17.9866 114.209 18.192C114.366 18.2309 114.553 18.2773 114.713 18.3176C115.478 18.5092 116.259 18.7165 117.029 18.9398C118.167 19.269 119.304 19.6382 120.432 20.055C121.129 20.3129 121.813 20.5853 122.5 20.8813C124.293 21.6541 126.055 22.5665 127.733 23.6646C129.406 24.7606 131.005 26.051 132.415 27.5626C132.915 28.0983 133.395 28.6659 133.848 29.2663C134.583 30.2426 135.319 31.2322 136.029 32.2106C136.84 33.3278 137.646 34.4959 138.374 35.5927C138.766 36.1829 139.145 36.7646 139.513 37.3418C139.514 37.3438 139.515 37.3458 139.516 37.3478C139.841 37.856 140.155 38.3581 140.466 38.8622C141.13 39.9406 141.767 41.0136 142.384 42.1016C143 43.1876 143.592 44.2844 144.158 45.4066C144.531 46.1436 144.894 46.8965 145.242 47.6573C145.418 48.0426 145.591 48.4311 145.761 48.8164C146.264 49.9629 146.735 51.092 147.215 52.2822C147.844 53.847 148.442 55.4072 149.03 57.0169C149.578 58.5154 150.109 60.0331 150.618 61.5617C150.652 61.6644 150.686 61.7701 150.721 61.8791C150.912 62.483 151.079 63.0799 151.236 63.6838C151.237 63.6861 151.237 63.6883 151.238 63.6906C151.524 64.7929 151.772 65.9181 151.986 67.0304C152.317 68.7574 152.575 70.5008 152.755 72.2629C152.933 74.0265 153.034 75.8137 153.022 77.6235C153.008 79.4326 152.884 81.3075 152.56 83.1861C152.361 84.3367 152.088 85.493 151.716 86.6246C151.556 87.1094 151.39 87.5942 151.22 88.0732C151.078 88.4736 150.931 88.875 150.782 89.2746C150.072 91.1682 149.316 92.9716 148.511 94.734C147.706 96.4944 146.843 98.2309 145.878 99.9502C144.912 101.662 143.847 103.367 142.567 104.998C141.876 105.875 141.125 106.724 140.265 107.513C139.629 108.099 138.992 108.718 138.354 109.35C136.986 110.707 135.614 112.119 134.157 113.525C133.348 114.307 132.461 115.128 131.586 115.88C130.703 116.639 129.789 117.371 128.837 118.054C128.451 118.331 128.057 118.601 127.659 118.86C127.337 119.069 127.01 119.272 126.681 119.467C126.431 119.615 126.18 119.762 125.928 119.907C124.985 120.45 124.057 120.96 123.152 121.444C122.246 121.928 121.368 122.385 120.515 122.824C119.632 123.278 118.907 123.649 118.038 124.094C115.909 125.146 114.563 125.733 113.067 126.377C112.773 126.503 112.47 126.633 112.156 126.766C110.358 127.523 108.545 128.244 106.752 128.924C104.935 129.613 103.145 130.259 101.317 130.889C100.95 131.016 100.576 131.143 100.215 131.265C99.1322 131.63 97.7014 132.36 96.1502 132.953C94.2014 133.713 92.1236 134.243 90.0765 134.543C88.0242 134.848 85.9716 134.953 84.0034 134.948C82.8926 134.946 81.6702 134.9 80.5915 134.831C79.789 134.781 79.0137 134.717 78.2625 134.646C77.9561 134.616 77.6471 134.585 77.3365 134.553C76.3003 134.443 75.2805 134.318 74.3023 134.189C73.5715 134.093 72.9029 133.999 72.1942 133.898C71.9576 133.864 71.7181 133.83 71.4758 133.797C70.576 133.671 69.6842 133.553 68.7954 133.439C67.8792 133.323 67.1025 133.227 66.1261 133.112C65.4844 133.036 64.8553 132.961 64.2337 132.884C63.2943 132.769 62.3687 132.652 61.4283 132.528C60.4934 132.405 59.5652 132.279 58.637 132.148C58.3368 132.106 58.0221 132.061 57.7219 132.017C56.7934 131.883 55.8777 131.745 54.9599 131.601C54.0448 131.458 53.137 131.31 52.232 131.156C51.3242 131.002 50.429 130.844 49.5159 130.674C47.9636 130.386 46.4837 130.044 45.1887 129.709C43.8783 129.369 42.6555 129.014 41.4663 128.633C41.2423 128.561 41.0198 128.489 40.7987 128.415C40.1047 128.184 39.4198 127.941 38.7493 127.689C38.5437 127.612 38.3155 127.53 38.0871 127.45C37.0732 127.098 35.979 126.745 34.8783 126.365C33.7841 125.989 32.6731 125.586 31.5769 125.155C30.4712 124.721 29.4174 124.275 28.2936 123.758C27.1827 123.245 26.0624 122.695 24.8583 122.037C23.6653 121.386 22.4374 120.649 21.2333 119.841C20.0301 119.035 18.8466 118.156 17.7182 117.228C16.6907 116.383 15.6973 115.49 14.752 114.566C14.6721 114.488 14.5896 114.408 14.5048 114.326C13.5713 113.423 12.5765 112.473 11.6123 111.508C10.6442 110.541 9.64816 109.501 8.7424 108.495C7.27924 106.871 5.86928 105.158 4.56372 103.348C3.26205 101.542 2.05759 99.6311 1.00862 97.6128C-0.0389853 95.5976 -0.932448 93.4715 -1.60786 91.2535C-1.9839 90.0192 -2.2924 88.757 -2.52425 87.4747C-2.69335 86.5366 -2.84678 85.5963 -2.98369 84.6534C-3.05189 84.1838 -3.11666 83.7086 -3.17658 83.2367C-3.38837 81.5691 -3.54737 79.8917 -3.64502 78.21C-3.6456 78.1986 -3.64618 78.1871 -3.64676 78.1757C-3.77081 76.0073 -3.79563 73.8658 -3.68902 71.6786C-3.6494 70.8751 -3.59343 70.0997 -3.51597 69.3086C-3.4397 68.5322 -3.34374 67.757 -3.22024 66.9757C-3.21829 66.9634 -3.21632 66.951 -3.21435 66.9386C-3.10754 66.2613 -3.00152 65.5369 -2.89733 64.8366C-2.7916 64.1238 -2.68655 63.4212 -2.57753 62.7097C-2.47699 62.0549 -2.3768 61.4097 -2.25963 60.6976C-2.24894 60.6326 -2.23816 60.5674 -2.22729 60.502C-2.09816 59.7237 -1.93901 58.8363 -1.77312 58.0113C-1.33201 55.8246 -0.835646 53.6872 -0.194247 51.4993C0.209471 50.1277 0.666814 48.7526 1.2214 47.3713C1.52219 46.6223 1.83184 45.8623 2.1554 45.0968C2.49325 44.297 2.84801 43.4863 3.21148 42.6914C3.78112 41.4452 4.38607 40.2043 5.02702 38.9782C6.08006 36.963 7.23224 34.9842 8.48443 33.0555C9.7345 31.1298 11.0759 29.2663 12.5045 27.468C13.9305 25.6725 15.4459 23.9407 17.0178 22.2989C18.7681 20.4709 20.5947 18.739 22.4978 17.0879C22.9457 16.6996 23.4004 16.3134 23.8648 15.9271C25.3127 14.7242 26.8056 13.5282 28.3789 12.3909C30.4479 10.8915 32.6636 9.51009 34.9736 8.34371C37.2866 7.17148 39.6689 6.21268 42.0695 5.40918C43.5054 4.92841 44.9534 4.50058 46.3948 4.1155C47.1394 3.87804 47.8748 3.65511 48.5652 3.45341C51.5618 2.58352 54.0683 1.97816 56.6315 1.4175C58.4532 1.02047 60.2739 0.634419 62.3152 0.214527C62.7761 0.115088 63.1544 0.0260353 63.6116 -0.0815891C63.6995 -0.102261 63.7924 -0.123878 63.8866 -0.145999C64.4781 -0.285176 65.1722 -0.444925 66.1256 -0.644325C68.0319 -1.04823 70.9685 -1.57867 74.7081 -2.16142C75.6523 -2.31054 76.3018 -2.19123 76.1633 -1.88113C76.0652 -1.6638 75.6002 -1.41127 75.0035 -1.23067C76.1338 -1.4492 77.2542 -1.6788 78.3667 -1.92582C78.8108 -2.02429 79.2393 -2.07192 79.558 -2.0542C79.8764 -2.03635 80.0606 -1.95486 80.0685 -1.82364C80.0766 -1.69253 79.9068 -1.52143 79.5973 -1.34892C79.2866 -1.17619 78.8613 -1.01701 78.4135 -0.906854C77.226 -0.61469 76.0349 -0.343481 74.8401 -0.085363C73.6414 0.17359 72.4463 0.418323 71.2417 0.658343C70.0405 0.897589 68.8275 1.13281 67.6186 1.36543C66.4117 1.59766 65.1983 1.829 63.9829 2.0616C62.7595 2.29559 61.5598 2.52604 60.341 2.76137C59.6106 2.90242 58.8753 3.04476 58.1427 3.18751C57.8729 3.24002 57.6132 3.29103 57.3468 3.34312C57.2366 3.36467 57.1255 3.38635 57.0129 3.40833C56.9025 3.4299 56.7915 3.45167 56.6793 3.47382C54.3106 3.94283 51.923 4.47025 49.5836 5.07506C47.2124 5.68856 44.8761 6.3819 42.5663 7.21785C40.2522 8.05565 37.9901 9.03334 35.8068 10.2075C33.6264 11.3765 31.5528 12.7397 29.5976 14.2276C28.1406 15.334 26.7443 16.5031 25.3757 17.6913C24.905 18.0999 24.4483 18.5054 23.994 18.9178C22.6005 20.1827 21.2568 21.4892 19.9635 22.8399C19.4737 23.3802 18.9815 23.9359 18.518 24.4742C17.1522 26.0584 15.863 27.7174 14.6672 29.3967C16.8888 26.4837 18.8339 24.2638 20.7678 22.2255C21.0251 21.9552 21.2844 21.6864 21.5471 21.4183C22.7773 20.1632 24.0312 18.9641 25.4175 17.7401C27.0177 16.3324 28.7689 14.8453 30.9699 13.3041C43.0029 5.39572 51.6826 5.08371 56.4799 3.88124C56.6841 3.84401 56.8851 3.80787 57.0828 3.77277C61.6086 2.97261 63.6484 2.6897 65.5753 2.50879C68.4156 2.24725 73.824 1.35951 76.4998 0.729479C77.4733 0.507482 78.3091 0.5323 78.3714 0.801835C78.4338 1.07106 77.6904 1.48536 76.708 1.70925C73.8589 2.38095 67.9869 3.34567 64.6122 3.65561C63.1831 3.7898 61.5744 3.99837 57.2714 4.75717C57.0258 4.80064 56.7738 4.84599 56.5154 4.89334C51.8244 6.07304 43.272 6.40101 31.5176 14.1433C29.3691 15.6499 27.6569 17.1042 26.0699 18.502C24.797 19.6273 23.6311 20.7369 22.4734 21.9095C22.2145 22.1716 21.9576 22.4361 21.7023 22.7023C21.7007 22.7039 21.699 22.7055 21.6974 22.7071C19.343 25.1787 16.8814 27.9769 13.9679 32.0354C10.4071 36.934 7.11539 43.3419 5.02898 48.9102C3.13856 53.9075 2.51073 58.308 2.21013 60.0123C2.09849 60.7222 1.99959 61.4143 1.90139 62.1427C1.69808 63.6318 1.51329 65.276 1.2033 67.6633C0.934838 69.7001 0.761353 72.3273 0.904694 75.8845C0.973189 77.5455 1.11814 79.4869 1.37735 81.5989C1.65667 83.3076 1.99084 84.9713 2.35093 86.5585C2.64914 87.8675 3.0274 89.0995 3.43844 90.2304C4.21298 92.3568 5.21153 94.2096 6.31289 95.9093C6.62952 96.397 6.96226 96.8822 7.30469 97.3591C8.12958 98.5081 9.01524 99.6137 9.90748 100.667C10.619 101.507 11.3992 102.359 12.2535 103.235C14.2105 105.257 16.5434 107.301 19.389 109.925C20.949 111.384 22.7023 112.866 24.7418 114.34C30.2346 118.335 35.6143 120.203 40.907 122.123C41.214 122.246 41.5278 122.367 41.8382 122.483C41.519 122.362 41.2065 122.238 40.9095 122.117C37.3086 120.751 34.8658 119.851 32.7757 118.827C32.3435 118.62 31.941 118.419 31.5534 118.219C28.8175 116.796 26.972 115.57 25.0328 114.194C22.826 112.611 21.0993 111.074 19.6589 109.655C14.6825 104.886 12.4273 102.514 10.0454 99.626C9.23342 98.6323 8.36749 97.5156 7.51483 96.2611C5.81393 93.7598 4.15301 90.6727 3.26002 87.0796C3.2058 86.8618 3.15357 86.6409 3.10355 86.4171C2.36437 83.0812 1.71776 79.349 1.4561 75.3767C1.45606 75.3751 1.45602 75.3734 1.45598 75.3717C1.40187 74.5422 1.36526 73.6992 1.35031 72.8516C1.32106 71.1602 1.3744 69.4253 1.56996 67.7203C1.97232 64.0683 2.3785 60.4151 3.08133 56.8646C3.19226 56.3005 3.32857 55.6243 3.50019 54.8533C3.85842 53.2643 4.34994 51.2443 5.20313 48.9805C6.74745 44.8593 9.02322 39.7284 12.6196 34.532C13.849 32.7516 15.2158 30.9899 16.8936 29.0562C17.3992 28.4746 17.9424 27.8683 18.5121 27.2532C20.6255 24.9771 23.2459 22.3788 26.8328 19.3928C27.4462 18.8831 28.075 18.367 28.74 17.8361C32.4882 14.7736 37.4128 11.6377 43.1867 9.66009C46.0113 8.65686 48.9632 7.85217 51.9215 7.17345C53.8023 6.74246 55.665 6.36716 57.5148 6.02709C64.4707 4.72626 71.0659 3.69281 77.6726 2.22283C77.6743 2.22242 77.676 2.22202 77.6777 2.22162C78.6645 1.99832 79.4911 2.02634 79.5251 2.3031C79.5588 2.57936 78.7798 3.00089 77.7836 3.22523C71.1427 4.6957 64.603 5.72078 57.7032 7.01079C55.8432 7.35258 53.9717 7.72991 52.0859 8.16316C49.1975 8.8275 46.3048 9.61628 43.5392 10.5976C37.8316 12.5509 33.0068 15.6339 29.2641 18.7001C28.6477 19.1938 28.0605 19.6761 27.485 20.1544C23.8102 23.2147 21.1557 25.8661 19.0205 28.1866C18.4317 28.8283 17.8867 29.4434 17.3734 30.0415C15.7546 31.9301 14.4914 33.5784 13.3489 35.2403C9.84147 40.3374 7.64619 45.3172 6.13428 49.3569C5.37678 51.3712 4.91082 53.2118 4.56515 54.7071C4.3868 55.4858 4.24434 56.1745 4.12605 56.7636C3.40021 60.3559 2.98586 64.0743 2.56877 67.8755C2.40135 69.3548 2.34386 70.869 2.35531 72.3696C2.36184 73.1895 2.38969 74.01 2.43545 74.8204C2.43564 74.822 2.43583 74.8236 2.43601 74.8253C2.66692 78.8837 3.3284 82.7714 4.09429 86.2309C4.11528 86.3246 4.13668 86.4178 4.15845 86.5105C4.95082 89.8475 6.34276 92.5695 7.87603 94.9551C8.70381 96.2366 9.58219 97.4232 10.4983 98.5716C12.9521 101.614 15.2616 104.055 20.3666 108.947C21.7825 110.341 23.4669 111.838 25.6001 113.369ZM73.2516 -0.900968C70.902 -0.535449 68.9837 -0.196172 67.5529 0.087848C68.7721 -0.116892 69.9877 -0.322495 71.1942 -0.533379C71.8822 -0.653677 72.5693 -0.776076 73.2516 -0.900968ZM0.420101 82.013C0.355391 81.6255 0.29361 81.2376 0.23469 80.8467C0.359672 81.9298 0.509074 83.0109 0.680781 84.0862C0.82465 84.9871 0.984173 85.8858 1.15861 86.7826C1.24028 87.2025 1.33036 87.6159 1.42975 88.0291C1.33293 87.6123 1.24613 87.198 1.16816 86.7808C0.860136 85.1326 0.611785 83.531 0.420101 82.013ZM24.1682 115.161C22.0534 113.633 20.2657 112.12 18.6768 110.638C16.1738 108.331 14.0199 106.464 12.1095 104.544C11.1931 103.628 10.3318 102.714 9.51888 101.776C9.18155 101.387 8.84718 100.994 8.5174 100.596C10.2867 103.037 12.1442 105.128 13.7156 106.789C15.3588 108.526 16.8246 109.944 18.0836 111.232C20.3764 113.57 22.2497 115.102 24.0242 116.416C24.8134 116.996 25.5998 117.536 26.4132 118.054C27.1073 118.438 27.8524 118.829 28.5988 119.197C29.6504 119.718 30.8069 120.242 31.9215 120.702C33.0398 121.165 34.1898 121.598 35.3348 122.001C36.4837 122.405 37.6354 122.779 38.8029 123.168C39.3023 123.335 39.7992 123.504 40.2996 123.69C40.8634 123.899 41.4345 124.099 41.9988 124.287C42.0582 124.306 42.1184 124.326 42.1766 124.345C43.2691 124.704 44.3416 125.02 45.3393 125.288C46.357 125.56 47.2037 125.759 47.9662 125.917C48.9146 126.113 49.8946 126.303 50.8618 126.482C51.8321 126.661 52.7988 126.83 53.7654 126.993C54.7335 127.155 55.6939 127.309 56.6579 127.457C56.9691 127.505 57.2965 127.554 57.6054 127.601C57.748 127.622 57.8897 127.643 58.0325 127.664C56.1556 127.323 54.2139 126.941 52.2218 126.499C49.3469 125.857 46.2966 125.083 43.0554 123.983C42.2297 123.701 41.3849 123.393 40.5449 123.057C35.3892 121.179 29.8549 119.292 24.1682 115.161ZM86.5882 130.507C85.7812 130.567 84.6059 130.633 83.0719 130.634C82.6952 130.635 82.3367 130.632 81.9248 130.624C81.9343 130.624 81.9442 130.625 81.9537 130.625C82.9431 130.675 83.8647 130.699 84.8534 130.691C86.6098 130.674 88.306 130.56 89.9896 130.29C91.6722 130.022 93.2975 129.587 94.8856 128.968C96.1579 128.486 97.4135 127.843 98.9041 127.342C99.241 127.231 99.5935 127.115 99.9348 127C101.626 126.435 103.298 125.851 104.961 125.242C105.495 125.046 106.027 124.848 106.556 124.649C105.358 125.068 104.118 125.496 102.798 125.939C101.746 126.292 100.641 126.655 99.4864 127.021C99.2921 127.083 99.0818 127.149 98.8623 127.217C98.5275 127.322 98.1679 127.449 97.7952 127.592C95.2211 128.644 91.83 130.188 86.5882 130.507ZM119.485 118.954C119.85 118.772 120.214 118.59 120.572 118.409C121.591 117.892 122.575 117.378 123.526 116.856C123.954 116.622 124.38 116.383 124.792 116.146C125.013 116.019 125.233 115.887 125.449 115.753C125.705 115.595 125.957 115.431 126.206 115.265C126.623 114.986 127.03 114.696 127.431 114.398C126.56 115.026 125.676 115.604 124.771 116.11C122.626 117.309 120.403 118.403 118.082 119.468C118.038 119.488 117.993 119.509 117.949 119.529C118.474 119.336 118.985 119.145 119.485 118.954Z" fill="#0037FF"/>
</g>
<use xlink:href="#pattern0_348_263_inner" transform="translate(335.866 146.73)"/>
</pattern></defs>
</svg>
