<svg width="192" height="240" viewBox="0 0 192 240" fill="none" xmlns="http://www.w3.org/2000/svg">
<g clip-path="url(#clip0_390_5)">
<path d="M127.159 219.741C118.423 181.725 106.21 105.691 127.247 105.675C148.284 105.659 171.581 149.357 180.601 171.208" stroke="#0037FF" stroke-width="10"/>
<path d="M50.8827 217.572C42.9704 182.691 24.0659 106.59 53.0266 112.436C81.9871 118.281 95.8723 151.898 104.354 171.876" stroke="#0037FF" stroke-width="10"/>
<path d="M102.427 121.991C95.3157 133.602 38.203 131.192 36.2649 131.226C34.327 131.261 36.5057 113.594 75.831 102.669C84.2878 100.061 85.3039 91.5395 82.4956 67.59C77.6794 67.1669 74.5787 65.8373 74.512 63.2287C74.204 51.1788 68.9406 28.8105 69.6949 22.5422C70.4493 16.274 131.343 9.17778 133.645 10.5023C135.947 11.8268 139.672 48.4377 139.766 54.2366C139.779 55.0671 138.457 56.0912 136.179 57.2014C140.198 71.2921 146.095 99.4756 137.529 99.4822C136.56 99.4992 124.988 89.012 75.831 102.669C36.5057 113.594 34.327 131.261 36.2649 131.226C38.203 131.192 95.3157 133.602 102.427 121.991C109.538 110.379 138.498 99.4652 137.529 99.4822C146.095 99.4756 140.198 71.2921 136.179 57.2014C125.999 62.1639 96.7413 68.8412 82.4956 67.59C85.3039 91.5395 84.2878 100.061 75.831 102.669C124.988 89.012 136.56 99.4992 137.529 99.4822C138.498 99.4652 109.538 110.379 102.427 121.991Z" fill="#0037FF"/>
<path d="M137.529 99.4822C138.498 99.4652 109.538 110.379 102.427 121.991C95.3157 133.602 38.203 131.192 36.2649 131.226C34.327 131.261 36.5057 113.594 75.831 102.669M137.529 99.4822C136.56 99.4992 124.988 89.012 75.831 102.669M137.529 99.4822C146.095 99.4756 140.198 71.2921 136.179 57.2014M75.831 102.669C84.2878 100.061 85.3039 91.5395 82.4956 67.59M136.179 57.2014C138.457 56.0912 139.779 55.0671 139.766 54.2366C139.672 48.4377 135.947 11.8268 133.645 10.5023C131.343 9.17778 70.4493 16.274 69.6949 22.5422C68.9406 28.8105 74.204 51.1788 74.512 63.2287C74.5787 65.8373 77.6794 67.1669 82.4956 67.59M136.179 57.2014C125.999 62.1639 96.7413 68.8412 82.4956 67.59" stroke="#0037FF" stroke-width="10"/>
<path d="M98.8645 114.813L39.2874 118.769L40.0804 130.932L99.6575 126.976L98.8645 114.813Z" fill="#0037FF"/>
<path d="M103.708 111.089L44.1309 115.045L44.9239 127.208L104.501 123.252L103.708 111.089Z" fill="#0037FF"/>
<path d="M108.62 103.22L57.447 106.617L58.3095 119.844L109.482 116.447L108.62 103.22Z" fill="#0037FF"/>
<path d="M113.643 99.1834L71.0352 102.012L71.8976 115.239L114.505 112.411L113.643 99.1834Z" fill="#0037FF"/>
<path d="M131.325 95.8219L89.1121 98.6244L89.6169 106.367L131.83 103.564L131.325 95.8219Z" fill="#0037FF"/>
<path d="M123.295 100.885L81.0815 103.688L81.5864 111.43L123.8 108.628L123.295 100.885Z" fill="#0037FF"/>
</g>
<defs>
<clipPath id="clip0_390_5">
<rect width="142" height="210" fill="white" transform="translate(0 36.7523) rotate(-15)"/>
</clipPath>
</defs>
</svg>
