<svg width="105" height="5" viewBox="0 0 105 5" fill="none" xmlns="http://www.w3.org/2000/svg">
<path d="M1.08304 0.00393969C1.70392 -0.0220133 2.4984 0.0869885 3.09865 0.216134C3.28691 0.256342 3.18111 0.353494 3.31024 0.386316C3.56245 0.450656 3.80667 0.422558 4.05577 0.498903C4.1383 0.524786 4.01529 0.680276 4.10188 0.703607C4.5754 0.830789 5.03809 0.84608 5.53486 0.962435C5.74594 1.01217 5.95818 1.06453 6.17613 1.12324C7.8901 1.53333 10.1406 1.57277 12.2213 1.6161C12.9867 1.62742 13.9247 1.74926 14.7108 1.64261C14.8028 1.63003 14.7402 1.48559 14.7571 1.47257C15.0216 1.27261 14.9448 1.57456 15.1274 1.60407C15.5527 1.67256 16.0037 1.68546 16.4395 1.6582C16.7421 1.63909 17.047 1.60229 17.3306 1.55691C17.6277 1.50922 17.3044 1.24041 17.6185 1.38129C17.6398 1.39081 17.5771 1.55251 17.6589 1.56309C17.8473 1.58642 18.1959 1.5335 18.3419 1.53612C18.6202 1.54206 18.666 1.53753 18.9283 1.52288C19.287 1.50437 19.7166 1.55822 20.1003 1.50391C20.1818 1.49188 20.0655 1.33688 20.1947 1.30329C20.3257 1.26952 20.6731 1.26763 20.7918 1.30074C20.9113 1.33369 20.8663 1.46178 20.8881 1.48982C21.0661 1.72653 21.457 1.37435 21.5072 1.3645C22.0937 1.25587 22.6306 1.28494 23.1679 1.32052C23.4767 1.34205 23.7967 1.36154 24.125 1.35337C24.7921 1.33615 25.4975 1.25362 26.1327 1.246C26.8841 1.23761 27.5281 1.30845 28.2612 1.27615C28.3394 1.27291 28.2431 1.08647 28.3389 1.08213C29.3382 1.03665 30.345 1.03557 31.3428 1.14384C31.4428 1.15487 31.3174 1.32294 31.4176 1.34386C32.0343 1.46807 33.0118 1.7784 33.3619 1.05166C33.7811 1.07309 34.2854 1.09469 34.6573 1.23493C34.898 1.32518 34.6673 1.50881 34.9617 1.4278C35.0284 1.40975 34.9392 1.2529 35.0394 1.23778C35.4557 1.17437 35.917 1.2201 36.3299 1.13383C36.4145 1.1159 36.3898 0.974566 36.4136 0.948801C36.6158 0.74002 36.9486 1.07796 37.0233 1.10204C37.5819 1.28144 37.9881 1.2051 38.5026 1.20566C38.6228 1.20588 38.4792 1.01675 38.595 1.01013C38.9501 0.99155 39.2996 0.988212 39.6585 1.00491C39.9123 1.01678 40.153 1.03793 40.398 1.06982C40.5253 1.08735 40.4104 1.25093 40.4718 1.26757C40.7482 1.33867 40.8004 1.0317 41.0635 1.09245C41.1184 1.10483 41.0906 1.24416 41.1009 1.25917C41.2638 1.49484 41.3907 1.15261 41.432 1.14404C41.9372 1.02824 42.2773 1.36943 42.7711 1.29872C42.8301 1.28987 42.6891 1.12018 42.8553 1.10601C43.9634 1.00736 45.1635 1.00949 46.2753 1.1321C46.4455 1.15071 46.3265 1.28465 46.3374 1.30071C46.4292 1.42951 46.504 1.40206 46.563 1.34298C46.6179 1.28701 46.6579 1.20263 46.6852 1.19597C47.1284 1.09686 47.5422 1.37606 47.8385 0.96643C49.7126 1.07962 51.5714 0.828606 53.4331 1.16958C53.4565 1.17351 53.4167 1.34156 53.4633 1.34868C54.0357 1.43598 53.9188 1.17692 54.2914 0.853988C54.3867 0.772879 54.6781 1.15403 54.7032 1.18193C54.7961 1.28472 54.7039 1.53512 54.7349 1.55487C54.99 1.70984 54.9448 0.885876 55.289 0.881545C55.2998 0.882792 55.2564 1.03507 55.2854 1.04981C55.3764 1.09611 55.461 1.0348 55.5529 1.08595C55.7592 1.20438 55.8352 1.60412 56.1392 1.3673C56.178 1.33656 56.1141 0.869657 56.4241 0.887985C56.5435 0.895758 57.0961 0.880895 57.2433 0.909298C57.3989 0.937583 57.2943 1.08964 57.3054 1.09602C57.7233 1.28993 57.5662 1.37455 57.774 1.66687C57.9861 1.95799 57.9195 1.25778 58.0029 1.17841C58.0875 1.09925 58.3857 1.25953 58.4645 1.31555C58.54 1.37166 58.4483 1.46875 58.5151 1.50015C58.9535 1.7052 58.6981 1.14948 58.8419 1.03607C59.1806 0.767475 59.4528 1.28303 59.7608 1.32855C59.8469 1.34077 59.775 1.22364 59.8507 1.2112C60.1444 1.16353 60.3266 1.32232 60.6612 1.16613C60.7157 1.14071 60.9815 0.821864 61.1598 1.04642C61.1854 1.07881 61.1179 1.21028 61.2442 1.23583C61.441 1.27403 61.7671 1.29193 61.9752 1.23957C62.1175 1.20125 61.9386 0.99569 62.1322 1.05308C62.2154 1.07859 62.0711 1.21089 62.2252 1.24834C62.3499 1.27747 62.6401 1.26646 62.7876 1.23795C62.8358 1.22835 62.8784 1.22012 62.91 1.21407C63.0646 1.18546 62.9566 1.03864 62.9672 1.02583C63.0368 0.950304 63.3368 0.839664 63.3649 0.83861C64.7088 0.721092 65.8951 0.988482 67.1645 0.858912C67.263 0.849466 67.1928 0.680494 67.2078 0.677293C67.5485 0.596783 67.2942 1.05761 67.5319 1.2034C67.4881 0.85791 67.631 0.916931 67.8697 0.872667C67.9831 0.851095 67.9176 0.71859 67.9276 0.704588C68.0921 0.496418 68.2239 0.756276 68.2531 0.809378C68.3693 1.00448 68.4875 0.767243 68.5699 0.897519C68.6511 1.02684 68.4796 1.22624 68.7074 1.21774C68.7676 1.09206 68.591 0.772459 68.7616 0.715402C69.0986 0.605829 69.5678 0.608934 70.0377 0.639562C70.4837 0.669687 70.9271 0.729296 71.1844 0.737539C71.7199 0.754153 71.8856 0.72917 72.1949 0.769569C72.753 0.843211 72.5472 0.605457 72.8903 0.491322C73.2377 0.377426 73.0749 0.971024 73.1263 1.09768C73.1776 1.2243 73.2288 1.09287 73.2898 1.16216C73.3506 1.23144 73.2212 1.31922 73.363 1.34406C73.5044 1.36883 73.8957 1.13919 73.9433 1.00583C74.0479 0.723192 73.8687 0.428782 74.2488 0.529788C74.2707 0.535792 74.2009 0.691913 74.2848 0.707015C74.9454 0.821918 75.6322 0.825832 76.2933 0.929334C76.3836 0.943813 76.3035 1.1172 76.3561 1.12759C76.905 1.23642 76.7098 0.94525 77.0092 0.620142C76.9431 1.05182 77.109 1.31524 77.5275 1.31686C77.7777 1.31801 77.7342 1.12966 77.8962 0.99654C77.9448 0.95641 78.1227 1.0855 78.1549 0.996833C78.2607 0.706981 78.0927 0.382896 78.5231 0.511445C78.5419 0.517558 78.482 0.676209 78.5473 0.68573C78.9695 0.748092 79.0191 0.445028 79.4752 0.408014C79.8324 0.378972 80.4683 0.563572 80.8746 0.593619C80.8661 1.07872 81.2508 0.967626 81.406 0.633172C81.6705 0.64688 81.9551 0.628003 82.2102 0.674259C82.2983 0.690028 82.2404 0.830472 82.2516 0.845649C82.4218 1.08372 82.5363 0.758333 82.5931 0.74558C83.2114 0.621606 83.713 0.868213 84.3032 0.626874C84.324 0.61818 84.358 0.281202 84.5149 0.527134C84.525 0.544086 84.3318 0.697534 84.6071 0.709196C84.8861 0.720887 85.4096 0.900963 85.7916 0.744076C85.884 0.706318 86.1225 0.432283 86.3095 0.64552C86.3345 0.674477 86.3075 0.77119 86.3436 0.824874C86.4597 0.995925 86.5264 0.65515 86.6651 0.944067C86.8024 1.23296 87.0954 1.44873 87.4782 1.24728C87.489 1.24142 87.583 0.971025 87.7053 0.974637C87.8991 0.980661 88.1781 1.03516 88.3802 1.03188C88.4764 1.03022 88.4135 0.863058 88.4302 0.859866C88.6263 0.829947 88.813 0.822171 88.9824 0.827552C89.3878 0.828574 89.7628 0.900905 90.2515 0.92767C90.3846 0.934865 90.738 0.692703 90.9981 0.863606C91.2784 1.05084 91.0256 1.88412 91.6496 1.66391C91.8977 1.57586 92.1805 0.520104 92.6554 1.04274C93.5352 0.873862 94.3614 1.11755 95.239 0.887437C95.2796 0.877165 95.3873 0.580732 95.4845 0.580334C95.6257 0.580449 95.7024 0.713272 95.8056 0.717509C96.223 0.739321 96.598 0.604492 96.9985 0.601467C97.1472 0.600128 97.107 0.74336 97.2866 0.741377C97.4694 0.738936 97.5789 0.547053 97.8294 0.621479C98.0162 0.678351 98.2299 1.0445 98.4807 1.071C98.4634 0.697293 98.6329 0.693644 98.9258 0.570985C98.982 0.547192 98.9095 0.42255 98.9355 0.404608C99.0393 0.328828 99.1511 0.427484 99.2503 0.345305C99.2741 0.325555 99.2638 0.19829 99.2825 0.174969C99.2895 0.166022 99.2967 0.157972 99.3042 0.150762C99.308 0.150265 99.3195 0.149797 99.3234 0.149492C99.5003 0.00080952 99.7827 0.257318 99.8329 0.303894C100.033 0.48857 100.118 0.320733 100.269 0.392499C100.419 0.464439 100.199 0.562077 100.373 0.604204C100.734 0.691407 101.195 0.66572 101.56 0.668921C101.705 0.669408 101.605 0.499715 101.626 0.495827C101.927 0.450429 102.232 0.630422 102.398 0.290348C102.61 1.16741 102.58 0.204457 103.011 0.379273C103.045 0.393424 103.089 0.80842 102.959 0.869607C102.829 0.930743 102.632 0.801471 102.451 0.897096C102.409 0.919507 102.165 1.30946 102.132 1.33321C101.872 1.51861 101.832 0.89869 101.817 0.864681C101.658 0.497913 101.362 0.919327 101.284 0.949084C100.926 1.08512 100.62 1.00198 100.321 1.10233C100.126 1.16736 100.116 1.57406 99.9645 1.5653C99.7123 1.55119 99.5396 1.40603 99.3717 1.32719L99.4116 1.32455C99.2304 1.2545 99.0615 1.24924 98.8329 1.51438C98.734 1.62691 98.8737 2.06256 98.4672 1.74158C98.4402 1.72153 98.1407 1.42175 97.9907 1.63344C97.9722 1.66013 97.9809 1.78926 97.9549 1.80177C97.7769 1.88325 97.6521 1.78733 97.4604 1.84766C97.2681 1.90799 97.0364 1.99413 96.812 1.96161C96.6753 1.94233 96.4938 1.70986 96.4258 1.65406C96.2375 1.49299 96.0543 1.78075 95.9356 1.5801C95.813 1.37857 96.0203 1.05437 95.7163 0.934474C95.7209 1.27086 95.712 1.61675 95.71 1.95535C95.0614 1.97295 94.4204 1.89108 93.7721 1.93239C93.6911 1.93786 93.7816 2.1151 93.6945 2.12564C93.334 2.16901 93.0094 2.05298 92.6342 2.11911C92.3434 2.171 92.0321 2.37466 91.7272 2.43468C91.5275 2.05736 91.0817 2.20518 90.7466 2.18274C90.633 2.1749 90.6365 2.07193 90.5539 2.04152C90.2399 1.92935 90.3973 2.26364 90.3139 2.32034C89.9601 2.56226 89.8982 1.79445 89.4716 1.82953C89.4498 1.8311 89.1876 2.25146 89.1491 2.27846C89.0837 2.32635 89.0502 2.33766 89.0333 2.32826C89.0261 2.32825 89.0045 2.32931 88.9973 2.32911C88.9546 2.30277 89.0289 2.13233 88.9197 2.11134C88.6427 2.05855 88.4472 1.96216 88.1199 2.0845C88.0195 2.12076 87.8015 2.37777 87.6115 2.18095C87.5867 2.15518 87.5996 2.01952 87.5797 2.01168C87.2253 1.88103 87.2196 2.30703 87.0147 2.45214C86.8138 2.59719 86.5003 2.30401 86.4346 2.21941C86.2669 2.00057 86.5631 2.12534 86.5723 2.10378C86.6792 1.84736 86.4449 1.89217 86.275 1.87095C86.2493 1.45327 86.0059 1.4789 86.0949 1.85063C86.1052 1.89123 86.2403 1.85195 86.275 1.87095C86.1255 2.28121 85.8523 2.33431 85.5594 1.95175C85.4211 1.77244 85.5503 1.56299 85.1305 1.64009C84.9408 1.67487 85.0146 1.96244 84.8461 2.04102C84.4604 2.22032 83.9618 1.95222 83.5655 1.99456C83.421 2.00993 83.5618 2.16737 83.463 2.1833C83.2026 2.22606 82.9729 2.10793 82.7102 2.16843C82.6866 2.17412 82.7443 2.33894 82.6632 2.34104C82.0457 2.36014 81.5086 2.25447 80.8639 2.25157C80.553 2.25024 79.996 2.34127 79.6738 2.32318C79.1148 2.29274 78.4277 2.0538 77.9502 2.1129C77.639 2.15074 77.7077 2.31549 77.575 2.42808C77.317 2.64633 76.863 2.25758 76.8004 2.19741C76.7989 2.19541 77.0659 2.15577 76.9233 2.07156C76.8399 1.89547 76.8033 2.19664 76.8004 2.19741C76.7587 2.15848 76.2267 2.12286 76.1189 2.15486C76.0611 2.17231 76.0941 2.32838 76.064 2.33453C75.3503 2.4772 74.636 2.5209 73.9109 2.45389C73.8982 2.45084 73.9158 2.27598 73.886 2.27099C73.4643 2.19689 73.2011 2.41328 72.8555 2.54409C72.5163 2.67482 72.2372 2.63614 72.0314 2.33919C71.7685 2.38073 71.3957 2.25438 71.1795 2.17807C70.9678 2.10164 70.9396 2.44249 70.9218 2.44956C70.5987 2.57578 70.3447 2.57495 70.0892 2.54683C69.8685 2.52479 69.6612 2.48441 69.3792 2.47845C69.0948 2.47106 68.5034 2.536 68.1942 2.5813C67.9412 2.6179 67.7917 2.54208 67.5621 2.59908C67.5316 2.60668 67.5666 2.75725 67.5574 2.76332C67.3078 2.95109 67.4186 2.57788 67.3641 2.51317C67.1651 2.27789 67.041 2.15304 66.7182 2.27476C66.6392 2.30277 66.4389 2.84133 66.2979 2.87636C66.1217 2.92075 66.1834 2.72791 65.9957 2.77942C65.98 2.78365 65.9858 2.90139 65.8725 2.89938C65.332 2.89232 64.745 2.84045 64.21 2.87699C64.1362 2.88167 64.2383 3.0639 64.1346 3.07373C63.7598 3.10938 63.3921 3.13491 63.1456 3.14232C62.8183 3.18431 62.7414 3.16384 62.5777 3.15739C62.4392 3.14436 62.5169 3.00803 62.4848 2.97117C62.2802 2.74851 62.0575 3.09967 62.0175 3.10783C61.0552 3.30886 60.3444 3.01 59.3943 3.17391C59.3378 3.18353 58.9529 3.55595 58.7681 3.24444C58.756 3.22372 58.5789 2.90489 58.4242 3.12685C58.4145 3.14073 58.528 3.30462 58.3339 3.29049C58.1501 3.27625 57.8345 3.39104 57.5766 3.21256C57.4944 3.15636 57.2882 2.83838 57.0493 3.09698C57.0353 3.11501 56.6546 3.69769 56.518 3.30059C56.4948 3.23523 56.5148 2.81303 56.2201 3.03294C56.1635 3.07557 56.2686 3.16842 56.1185 3.229C55.899 3.32223 55.5861 3.21293 55.3152 3.40411C55.2674 3.43795 55.064 3.72676 54.8922 3.5114C54.8657 3.47766 54.9126 3.33624 54.826 3.32149C54.4109 3.25075 53.9756 3.3501 53.5462 3.25773C53.3971 3.22526 53.4707 2.99664 53.3146 2.93747C53.1599 2.8783 52.8363 2.8235 52.6785 2.92948C52.5169 3.03556 52.6997 3.3963 52.4551 3.42832C51.3902 3.56743 50.3312 3.36799 49.2665 3.35145C49.1079 3.34899 49.2399 3.47704 49.0077 3.48273C48.3653 3.49885 47.3717 3.58382 46.5968 3.51363C46.34 3.49035 46.1164 3.45056 45.9304 3.38582C45.3375 3.17805 46.0766 2.99289 45.6219 2.91343C45.4045 2.87568 45.18 3.30423 45.1287 3.31905C44.6237 3.46904 44.2633 3.29578 43.8038 3.3724C43.7086 3.38833 43.8096 3.55524 43.7288 3.56691C43.4529 3.60832 43.1547 3.54524 42.8849 3.57059C42.7635 3.58235 42.7916 3.71192 42.6789 3.70644C42.4093 3.69474 42.1676 3.64876 41.9 3.53479C41.8756 3.5244 42.033 3.35685 41.8319 3.35714C41.5092 3.35791 41.1052 3.24685 40.7357 3.37758C40.6292 3.41679 40.6248 3.71562 40.3878 3.51252C40.3384 3.47001 40.3948 3.11109 40.1252 3.42366C40.0942 3.45818 39.8845 3.65603 39.6739 3.70588C39.5704 3.73107 39.469 3.71871 39.3935 3.62877C39.3342 3.55825 39.1821 3.26587 39.0533 3.31284C39.0359 3.32031 39.1071 3.48019 39.0003 3.49655C38.6199 3.55148 38.2274 3.53742 37.8347 3.59108C37.7306 3.60573 37.8872 3.77028 37.7322 3.78682C37.3095 3.83251 36.776 3.79564 36.3576 3.74842C36.2034 3.73069 36.3083 3.59205 36.2969 3.57721C36.114 3.33597 36.0125 3.6656 35.9535 3.68545C35.5817 3.80455 35.3018 3.65384 34.9573 3.6993C34.8627 3.71143 34.932 3.86709 34.9134 3.88131C34.7201 4.02038 34.8615 3.73722 34.7378 3.70792C34.3957 3.62487 34.0051 3.6432 33.6579 3.66864C33.5287 3.67824 33.6767 3.85751 33.561 3.86403C32.8828 3.90599 32.1711 3.90102 31.504 3.8136C31.3788 3.79681 31.4547 3.65553 31.4281 3.6241C31.2469 3.4041 30.9849 3.71405 30.9256 3.74427C30.6542 3.88226 30.543 3.76087 30.2995 3.78901C29.1124 3.92843 27.6422 3.88161 26.5154 3.86006C25.3015 3.83665 24.3202 3.76716 23.2047 3.77316C22.9749 3.77364 22.7431 3.77892 22.5016 3.79057C22.4142 3.79464 22.5066 3.9785 22.4316 3.98441C21.4629 4.0526 20.505 4.01886 19.5365 4.12782C19.4563 4.1365 19.5819 4.30588 19.4543 4.32573C19.194 4.36763 18.862 4.37889 18.5934 4.3407C18.4635 4.32233 18.6254 4.15967 18.4941 4.14435C18.1853 4.10862 17.8608 4.11991 17.549 4.1726C17.4184 4.19526 17.6322 4.35939 17.4589 4.37508C17.1954 4.39982 16.9347 4.42616 16.6625 4.45024C15.7042 4.53406 14.7592 4.56194 13.7915 4.41619C13.7061 4.40323 13.6186 4.0397 13.4419 4.11579C13.4316 4.21789 13.4362 4.33745 13.4338 4.4463C11.6511 4.55959 9.89585 4.44541 8.08104 4.35057C8.00474 4.34638 8.12802 4.54632 7.98027 4.5391C7.19964 4.4932 6.49975 4.51481 5.54004 4.21131C5.46518 4.17934 5.38483 4.14444 5.30379 4.10698C5.23245 4.07521 5.33372 3.74505 5.0992 3.75835C5.05789 3.76033 4.7081 3.75315 4.60671 3.81472C4.5931 3.82414 4.6338 3.9907 4.52248 3.98005C3.87139 3.91562 3.1755 3.80939 2.51167 3.65863C2.40475 3.63408 2.5336 3.47392 2.45705 3.45496C1.91271 3.32184 1.30488 3.41416 0.79002 3.23997C0.444319 3.12361 0.583943 2.83506 0.403761 2.54105C0.377643 2.49934 0.158472 2.48906 0.149596 2.32118C0.123698 1.89812 0.239775 1.43661 0.199885 0.985501C0.193274 0.887683 -0.130913 0.991275 0.0601962 0.757243C0.0749386 0.741217 0.310876 0.666127 0.368144 0.588121C0.409704 0.533982 0.339879 0.361467 0.424866 0.292893C0.507354 0.224421 0.593993 0.370012 0.73009 0.291787C0.866063 0.212836 0.816312 0.01584 1.08304 0.00393969ZM70.2052 1.83992C70.1399 1.78846 70.095 1.81713 70.0711 1.8741C70.04 1.94346 70.0414 2.05469 70.0775 2.11449C70.1016 2.15667 70.1418 2.17334 70.1998 2.13191C70.2098 2.12402 70.2155 1.84767 70.2052 1.83992ZM94.4035 1.43986C94.1356 1.18699 93.9673 1.58217 94.1629 1.77804C94.3557 1.97378 94.487 1.5164 94.4035 1.43986ZM97.1079 1.12153C96.7936 0.929855 96.7866 1.77958 97.107 1.59099C97.1252 1.58032 97.1264 1.13263 97.1079 1.12153ZM1.2864 2.49316C1.28413 2.48501 1.12513 2.46941 1.12066 2.47716C1.02711 2.66278 1.34396 2.69371 1.2864 2.49316ZM99.7746 0.742204C99.6764 0.629926 99.4077 0.771954 99.5303 0.91042C99.6283 1.02157 99.8964 0.881542 99.7746 0.742204ZM59.7746 1.62034C59.77 1.61151 59.6552 1.60549 59.6587 1.65582C59.6678 1.81799 59.8305 1.76931 59.7746 1.62034ZM104.34 0.697101C103.665 0.665243 103.254 -0.0350469 103.99 0.0436038C104.124 0.0578597 103.703 0.267165 103.873 0.330268C104.183 0.445232 104.389 0.00528637 104.706 0.241037C104.763 0.284187 104.379 0.70047 104.339 0.698077C104.339 0.697752 104.34 0.697426 104.34 0.697101ZM70.0735 1.12463C70.0726 1.12286 70.0638 1.12132 70.0507 1.12009C70.0037 1.11599 69.9057 1.11552 69.903 1.12166C69.8453 1.25585 69.987 1.29949 70.0541 1.24698C70.0815 1.22432 70.0952 1.1837 70.0735 1.12463ZM53.0066 1.33826C52.9966 1.32152 52.6242 1.31024 52.613 1.32591C52.4226 1.63878 53.1754 1.6625 53.0066 1.33826ZM80.881 0.606558C81.0565 0.415499 81.266 0.39301 81.4052 0.632928C81.2316 0.620183 81.0564 0.618304 80.881 0.606558Z" fill="#0037FF"/>
</svg>
