<svg width="102" height="7" viewBox="0 0 102 7" fill="none" xmlns="http://www.w3.org/2000/svg">
<path d="M56.618 1.10917C58.8548 1.51337 60.6255 -0.240964 63.3552 0.0282667C66.0757 0.298537 66.4842 1.23828 69.6029 1.05636C71.1052 0.968988 72.6046 1.07805 73.9026 1.1707C75.3247 1.27078 76.5141 1.36166 77.2402 1.17244C78.6444 0.809538 78.7671 1.97119 80.7514 1.75862C82.7449 1.54977 83.9379 1.74539 85.6505 2.18824C86.3653 2.37221 87.6986 2.57726 89.1482 2.6872C89.1581 2.68678 89.1876 2.6894 89.1975 2.68961C91.2118 2.97004 93.4708 3.13116 94.6162 2.95966C96.3216 2.69961 98.1736 3.43442 99.4627 3.94368L99.4303 3.93913C99.6187 4.00256 99.8125 4.05364 99.9977 4.10289C100.435 4.21165 100.784 4.42636 100.967 4.63685C101.048 4.72601 101.045 4.81802 101.004 4.87873C101.004 4.87877 101.004 4.87881 101.004 4.87885C100.95 4.95468 100.843 4.98788 100.732 4.94047C100.402 4.78848 99.9605 4.79954 99.3307 4.86686C99.3251 4.86593 99.3084 4.86425 99.3029 4.86296C98.9075 4.87592 98.4687 4.91654 97.9999 4.99084C95.8203 5.35919 95.6559 4.66199 92.7272 4.74756C91.3337 4.79248 90.1937 4.93387 89.0116 4.98824L89.1091 4.993C87.7983 5.13641 86.4407 5.15504 84.657 4.87048C81.2493 4.33728 80.4401 6.04288 75.6305 4.999C74.9778 4.8584 74.4056 4.7717 73.8777 4.72677C70.5807 4.44017 69.6068 5.81039 65.4394 5.9832C60.609 6.17999 54.5377 5.15883 51.6332 5.2596C48.7324 5.35788 44.8399 5.59501 40.7617 5.50559C40.3575 5.49653 39.9162 5.49924 39.4983 5.50983C35.6309 5.61233 31.1506 6.28614 27.0781 6.18789C25.766 6.15535 24.3325 6.14267 22.8007 6.13951C19.0527 6.10808 15.1688 5.97447 13.0405 5.84991C10.0516 5.67269 9.32037 5.63192 6.48786 6.06559C4.86007 6.31725 2.6102 6.39424 0.660419 6.15723C-0.3225 6.0402 -0.151917 5.68738 0.799254 5.41673C2.19141 5.02456 3.37062 5.06965 4.06623 4.59622C5.45765 3.65325 6.06839 3.28943 7.95202 3.6315C9.83223 3.97722 10.632 2.84551 11.7164 2.90219C12.7971 2.95793 12.8298 3.60485 18.2388 2.76972C19.8627 2.51527 21.2605 2.29876 22.4737 2.1086C25.306 1.64357 27.2577 1.4271 28.6978 1.25183C30.7728 0.996946 35.1327 1.31414 38.5006 0.957602C38.7401 0.931904 39.0013 0.907247 39.283 0.883392C42.8937 0.564446 49.0206 0.638692 51.5959 0.327953C54.3734 -0.0089035 54.3789 0.707294 56.618 1.10917Z" fill="#0037FF"/>
</svg>
