<svg width="458" height="128" viewBox="0 0 458 128" fill="none" xmlns="http://www.w3.org/2000/svg">
<path d="M43.9907 43.2614C43.718 40.5114 42.5475 38.375 40.4793 36.8523C38.4111 35.3295 35.6043 34.5682 32.0589 34.5682C29.6498 34.5682 27.6157 34.9091 25.9566 35.5909C24.2975 36.25 23.0248 37.1705 22.1384 38.3523C21.2748 39.5341 20.843 40.875 20.843 42.375C20.7975 43.625 21.0589 44.7159 21.627 45.6477C22.218 46.5795 23.0248 47.3864 24.0475 48.0682C25.0702 48.7273 26.252 49.3068 27.593 49.8068C28.9339 50.2841 30.3657 50.6932 31.8884 51.0341L38.1611 52.5341C41.2066 53.2159 44.002 54.125 46.5475 55.2614C49.093 56.3977 51.2975 57.7955 53.1611 59.4545C55.0248 61.1136 56.468 63.0682 57.4907 65.3182C58.5361 67.5682 59.0702 70.1477 59.093 73.0568C59.0702 77.3295 57.9793 81.0341 55.8202 84.1705C53.6839 87.2841 50.593 89.7045 46.5475 91.4318C42.5248 93.1364 37.6725 93.9886 31.9907 93.9886C26.3543 93.9886 21.4452 93.125 17.2634 91.3977C13.1043 89.6705 9.85432 87.1136 7.51341 83.7273C5.19523 80.3182 3.97932 76.1023 3.86568 71.0795H18.1498C18.3089 73.4205 18.9793 75.375 20.1611 76.9432C21.3657 78.4886 22.968 79.6591 24.968 80.4545C26.9907 81.2273 29.2748 81.6136 31.8202 81.6136C34.3202 81.6136 36.4907 81.25 38.3316 80.5227C40.1952 79.7955 41.6384 78.7841 42.6611 77.4886C43.6839 76.1932 44.1952 74.7045 44.1952 73.0227C44.1952 71.4545 43.7293 70.1364 42.7975 69.0682C41.8884 68 40.5475 67.0909 38.7748 66.3409C37.0248 65.5909 34.877 64.9091 32.3316 64.2955L24.7293 62.3864C18.843 60.9545 14.1952 58.7159 10.7861 55.6705C7.37705 52.625 5.68386 48.5227 5.70659 43.3636C5.68386 39.1364 6.80886 35.4432 9.08159 32.2841C11.377 29.125 14.5248 26.6591 18.5248 24.8864C22.5248 23.1136 27.0702 22.2273 32.1611 22.2273C37.343 22.2273 41.8657 23.1136 45.7293 24.8864C49.6157 26.6591 52.6384 29.125 54.7975 32.2841C56.9566 35.4432 58.0702 39.1023 58.1384 43.2614H43.9907ZM79.841 93.9886C76.5001 93.9886 73.5228 93.4091 70.9092 92.25C68.2956 91.0682 66.2274 89.3295 64.7047 87.0341C63.2047 84.7159 62.4547 81.8295 62.4547 78.375C62.4547 75.4659 62.9888 73.0227 64.0569 71.0455C65.1251 69.0682 66.5797 67.4773 68.4206 66.2727C70.2615 65.0682 72.3524 64.1591 74.6933 63.5455C77.0569 62.9318 79.5342 62.5 82.1251 62.25C85.1706 61.9318 87.6251 61.6364 89.4888 61.3636C91.3524 61.0682 92.7047 60.6364 93.5456 60.0682C94.3865 59.5 94.8069 58.6591 94.8069 57.5455V57.3409C94.8069 55.1818 94.1251 53.5114 92.7615 52.3295C91.4206 51.1477 89.5115 50.5568 87.0342 50.5568C84.4206 50.5568 82.341 51.1364 80.7956 52.2955C79.2501 53.4318 78.2274 54.8636 77.7274 56.5909L64.2956 55.5C64.9774 52.3182 66.3183 49.5682 68.3183 47.25C70.3183 44.9091 72.8978 43.1136 76.0569 41.8636C79.2388 40.5909 82.9206 39.9545 87.1024 39.9545C90.0115 39.9545 92.7956 40.2955 95.4547 40.9773C98.1365 41.6591 100.511 42.7159 102.58 44.1477C104.671 45.5795 106.318 47.4205 107.523 49.6705C108.727 51.8977 109.33 54.5682 109.33 57.6818V93H95.5569V85.7386H95.1478C94.3069 87.375 93.1819 88.8182 91.7728 90.0682C90.3638 91.2955 88.6706 92.2614 86.6933 92.9659C84.716 93.6477 82.4319 93.9886 79.841 93.9886ZM84.0001 83.9659C86.1365 83.9659 88.0228 83.5455 89.6592 82.7045C91.2956 81.8409 92.5797 80.6818 93.5115 79.2273C94.4433 77.7727 94.9092 76.125 94.9092 74.2841V68.7273C94.4547 69.0227 93.8297 69.2955 93.0342 69.5455C92.2615 69.7727 91.3865 69.9886 90.4092 70.1932C89.4319 70.375 88.4547 70.5455 87.4774 70.7045C86.5001 70.8409 85.6138 70.9659 84.8183 71.0795C83.1138 71.3295 81.6251 71.7273 80.3524 72.2727C79.0797 72.8182 78.091 73.5568 77.3865 74.4886C76.6819 75.3977 76.3297 76.5341 76.3297 77.8977C76.3297 79.875 77.0456 81.3864 78.4774 82.4318C79.9319 83.4545 81.7728 83.9659 84.0001 83.9659ZM116.757 93V40.6364H130.836V49.7727H131.382C132.336 46.5227 133.939 44.0682 136.189 42.4091C138.439 40.7273 141.029 39.8864 143.961 39.8864C144.689 39.8864 145.473 39.9318 146.314 40.0227C147.154 40.1136 147.893 40.2386 148.529 40.3977V53.2841C147.848 53.0795 146.904 52.8977 145.7 52.7386C144.495 52.5795 143.393 52.5 142.393 52.5C140.257 52.5 138.348 52.9659 136.666 53.8977C135.007 54.8068 133.689 56.0795 132.711 57.7159C131.757 59.3523 131.279 61.2386 131.279 63.375V93H116.757ZM152.198 112.636V40.6364H166.516V49.4318H167.164C167.8 48.0227 168.721 46.5909 169.925 45.1364C171.152 43.6591 172.743 42.4318 174.698 41.4545C176.675 40.4545 179.13 39.9545 182.062 39.9545C185.88 39.9545 189.402 40.9545 192.63 42.9545C195.857 44.9318 198.437 47.9205 200.368 51.9205C202.3 55.8977 203.266 60.8864 203.266 66.8864C203.266 72.7273 202.323 77.6591 200.437 81.6818C198.573 85.6818 196.027 88.7159 192.8 90.7841C189.596 92.8295 186.005 93.8523 182.027 93.8523C179.209 93.8523 176.812 93.3864 174.834 92.4545C172.88 91.5227 171.277 90.3523 170.027 88.9432C168.777 87.5114 167.823 86.0682 167.164 84.6136H166.721V112.636H152.198ZM166.414 66.8182C166.414 69.9318 166.846 72.6477 167.709 74.9659C168.573 77.2841 169.823 79.0909 171.459 80.3864C173.096 81.6591 175.084 82.2955 177.425 82.2955C179.789 82.2955 181.789 81.6477 183.425 80.3523C185.062 79.0341 186.3 77.2159 187.141 74.8977C188.005 72.5568 188.437 69.8636 188.437 66.8182C188.437 63.7955 188.016 61.1364 187.175 58.8409C186.334 56.5455 185.096 54.75 183.459 53.4545C181.823 52.1591 179.812 51.5114 177.425 51.5114C175.062 51.5114 173.062 52.1364 171.425 53.3864C169.812 54.6364 168.573 56.4091 167.709 58.7045C166.846 61 166.414 63.7045 166.414 66.8182ZM209.108 93V40.6364H223.188V49.7727H223.733C224.688 46.5227 226.29 44.0682 228.54 42.4091C230.79 40.7273 233.381 39.8864 236.312 39.8864C237.04 39.8864 237.824 39.9318 238.665 40.0227C239.506 40.1136 240.244 40.2386 240.881 40.3977V53.2841C240.199 53.0795 239.256 52.8977 238.051 52.7386C236.847 52.5795 235.744 52.5 234.744 52.5C232.608 52.5 230.699 52.9659 229.017 53.8977C227.358 54.8068 226.04 56.0795 225.062 57.7159C224.108 59.3523 223.631 61.2386 223.631 63.375V93H209.108ZM257.981 93.9886C254.64 93.9886 251.663 93.4091 249.049 92.25C246.436 91.0682 244.367 89.3295 242.845 87.0341C241.345 84.7159 240.595 81.8295 240.595 78.375C240.595 75.4659 241.129 73.0227 242.197 71.0455C243.265 69.0682 244.72 67.4773 246.561 66.2727C248.401 65.0682 250.492 64.1591 252.833 63.5455C255.197 62.9318 257.674 62.5 260.265 62.25C263.311 61.9318 265.765 61.6364 267.629 61.3636C269.492 61.0682 270.845 60.6364 271.686 60.0682C272.526 59.5 272.947 58.6591 272.947 57.5455V57.3409C272.947 55.1818 272.265 53.5114 270.901 52.3295C269.561 51.1477 267.651 50.5568 265.174 50.5568C262.561 50.5568 260.481 51.1364 258.936 52.2955C257.39 53.4318 256.367 54.8636 255.867 56.5909L242.436 55.5C243.117 52.3182 244.458 49.5682 246.458 47.25C248.458 44.9091 251.038 43.1136 254.197 41.8636C257.379 40.5909 261.061 39.9545 265.242 39.9545C268.151 39.9545 270.936 40.2955 273.595 40.9773C276.276 41.6591 278.651 42.7159 280.72 44.1477C282.811 45.5795 284.458 47.4205 285.663 49.6705C286.867 51.8977 287.47 54.5682 287.47 57.6818V93H273.697V85.7386H273.288C272.447 87.375 271.322 88.8182 269.913 90.0682C268.504 91.2955 266.811 92.2614 264.833 92.9659C262.856 93.6477 260.572 93.9886 257.981 93.9886ZM262.14 83.9659C264.276 83.9659 266.163 83.5455 267.799 82.7045C269.436 81.8409 270.72 80.6818 271.651 79.2273C272.583 77.7727 273.049 76.125 273.049 74.2841V68.7273C272.595 69.0227 271.97 69.2955 271.174 69.5455C270.401 69.7727 269.526 69.9886 268.549 70.1932C267.572 70.375 266.595 70.5455 265.617 70.7045C264.64 70.8409 263.754 70.9659 262.958 71.0795C261.254 71.3295 259.765 71.7273 258.492 72.2727C257.22 72.8182 256.231 73.5568 255.526 74.4886C254.822 75.3977 254.47 76.5341 254.47 77.8977C254.47 79.875 255.186 81.3864 256.617 82.4318C258.072 83.4545 259.913 83.9659 262.14 83.9659ZM338.465 55.5682L325.169 56.3864C324.942 55.25 324.454 54.2273 323.704 53.3182C322.954 52.3864 321.965 51.6477 320.738 51.1023C319.533 50.5341 318.09 50.25 316.408 50.25C314.158 50.25 312.26 50.7273 310.715 51.6818C309.169 52.6136 308.397 53.8636 308.397 55.4318C308.397 56.6818 308.897 57.7386 309.897 58.6023C310.897 59.4659 312.613 60.1591 315.044 60.6818L324.522 62.5909C329.613 63.6364 333.408 65.3182 335.908 67.6364C338.408 69.9545 339.658 73 339.658 76.7727C339.658 80.2045 338.647 83.2159 336.624 85.8068C334.624 88.3977 331.874 90.4205 328.374 91.875C324.897 93.3068 320.885 94.0227 316.34 94.0227C309.408 94.0227 303.885 92.5795 299.772 89.6932C295.681 86.7841 293.283 82.8295 292.579 77.8295L306.863 77.0795C307.294 79.1932 308.34 80.8068 309.999 81.9205C311.658 83.0114 313.783 83.5568 316.374 83.5568C318.919 83.5568 320.965 83.0682 322.51 82.0909C324.079 81.0909 324.874 79.8068 324.897 78.2386C324.874 76.9205 324.317 75.8409 323.226 75C322.135 74.1364 320.454 73.4773 318.181 73.0227L309.113 71.2159C303.999 70.1932 300.192 68.4205 297.692 65.8977C295.215 63.375 293.976 60.1591 293.976 56.25C293.976 52.8864 294.885 49.9886 296.704 47.5568C298.544 45.125 301.124 43.25 304.442 41.9318C307.783 40.6136 311.692 39.9545 316.169 39.9545C322.783 39.9545 327.988 41.3523 331.783 44.1477C335.601 46.9432 337.829 50.75 338.465 55.5682ZM345.236 93V23.1818H359.997V53.9659H360.917L386.042 23.1818H403.736L377.827 54.4432L404.042 93H386.383L367.258 64.2955L359.997 73.1591V93H345.236ZM437.609 70.7045V40.6364H452.131V93H438.188V83.4886H437.643C436.461 86.5568 434.495 89.0227 431.745 90.8864C429.018 92.75 425.688 93.6818 421.756 93.6818C418.256 93.6818 415.177 92.8864 412.518 91.2955C409.859 89.7045 407.779 87.4432 406.279 84.5114C404.802 81.5795 404.052 78.0682 404.029 73.9773V40.6364H418.552V71.3864C418.575 74.4773 419.404 76.9205 421.041 78.7159C422.677 80.5114 424.87 81.4091 427.62 81.4091C429.37 81.4091 431.006 81.0114 432.529 80.2159C434.052 79.3977 435.279 78.1932 436.211 76.6023C437.166 75.0114 437.631 73.0455 437.609 70.7045Z" fill="#0D0D0D"/>
<rect x="175.5" y="85.5" width="108" height="42" rx="10.5" fill="#0D0D0D"/>
<rect x="175.5" y="85.5" width="108" height="42" rx="10.5" stroke="#F5F5F5"/>
<path d="M187.453 118H182.181L190.215 94.7273H196.556L204.578 118H199.306L193.476 100.045H193.294L187.453 118ZM187.124 108.852H199.578V112.693H187.124V108.852ZM211.628 118.284C210.302 118.284 209.101 117.943 208.026 117.261C206.958 116.572 206.109 115.561 205.48 114.227C204.859 112.886 204.548 111.242 204.548 109.295C204.548 107.295 204.87 105.633 205.514 104.307C206.158 102.973 207.014 101.977 208.083 101.318C209.158 100.652 210.336 100.318 211.617 100.318C212.594 100.318 213.408 100.485 214.06 100.818C214.719 101.144 215.249 101.553 215.651 102.045C216.06 102.53 216.37 103.008 216.583 103.477H216.73V94.7273H221.56V118H216.787V115.205H216.583C216.355 115.689 216.033 116.17 215.617 116.648C215.208 117.117 214.673 117.508 214.014 117.818C213.363 118.129 212.567 118.284 211.628 118.284ZM213.162 114.432C213.942 114.432 214.601 114.22 215.139 113.795C215.685 113.364 216.101 112.761 216.389 111.989C216.685 111.216 216.833 110.311 216.833 109.273C216.833 108.235 216.689 107.333 216.401 106.568C216.113 105.803 215.696 105.212 215.151 104.795C214.605 104.379 213.942 104.17 213.162 104.17C212.367 104.17 211.696 104.386 211.151 104.818C210.605 105.25 210.192 105.848 209.912 106.614C209.632 107.379 209.492 108.265 209.492 109.273C209.492 110.288 209.632 111.186 209.912 111.966C210.2 112.739 210.613 113.345 211.151 113.784C211.696 114.216 212.367 114.432 213.162 114.432ZM224.26 118V100.545H228.874V103.625H229.078C229.442 102.602 230.048 101.795 230.896 101.205C231.745 100.614 232.76 100.318 233.942 100.318C235.139 100.318 236.158 100.617 236.999 101.216C237.839 101.807 238.4 102.61 238.68 103.625H238.862C239.218 102.625 239.862 101.826 240.794 101.227C241.733 100.621 242.843 100.318 244.124 100.318C245.752 100.318 247.074 100.837 248.089 101.875C249.112 102.905 249.624 104.367 249.624 106.261V118H244.794V107.216C244.794 106.246 244.536 105.519 244.021 105.034C243.506 104.549 242.862 104.307 242.089 104.307C241.211 104.307 240.525 104.587 240.033 105.148C239.54 105.701 239.294 106.432 239.294 107.341V118H234.601V107.114C234.601 106.258 234.355 105.576 233.862 105.068C233.377 104.561 232.737 104.307 231.942 104.307C231.404 104.307 230.919 104.443 230.487 104.716C230.063 104.981 229.726 105.356 229.476 105.841C229.226 106.318 229.101 106.879 229.101 107.523V118H224.26ZM252.167 118V100.545H257.008V118H252.167ZM254.599 98.2955C253.88 98.2955 253.262 98.0568 252.747 97.5795C252.239 97.0947 251.986 96.5152 251.986 95.8409C251.986 95.1742 252.239 94.6023 252.747 94.125C253.262 93.6402 253.88 93.3977 254.599 93.3977C255.319 93.3977 255.933 93.6402 256.44 94.125C256.955 94.6023 257.213 95.1742 257.213 95.8409C257.213 96.5152 256.955 97.0947 256.44 97.5795C255.933 98.0568 255.319 98.2955 254.599 98.2955ZM264.447 107.909V118H259.606V100.545H264.22V103.625H264.424C264.811 102.61 265.458 101.807 266.368 101.216C267.277 100.617 268.379 100.318 269.674 100.318C270.886 100.318 271.943 100.583 272.845 101.114C273.746 101.644 274.447 102.402 274.947 103.386C275.447 104.364 275.697 105.53 275.697 106.886V118H270.856V107.75C270.864 106.682 270.591 105.848 270.038 105.25C269.485 104.644 268.724 104.341 267.754 104.341C267.102 104.341 266.527 104.481 266.027 104.761C265.534 105.042 265.148 105.451 264.868 105.989C264.595 106.519 264.455 107.159 264.447 107.909Z" fill="white"/>
</svg>
