<svg width="160" height="182" viewBox="0 0 160 182" fill="none" xmlns="http://www.w3.org/2000/svg">
<rect y="11" width="160" height="160" rx="30" fill="#0037FF"/>
<g filter="url(#filter0_d_475_4)">
<path d="M99.6612 68.2834C99.2351 63.9865 97.4063 60.6484 94.1747 58.2692C90.9432 55.8899 86.5575 54.7003 81.0178 54.7003C77.2536 54.7003 74.0753 55.233 71.483 56.2983C68.8906 57.3281 66.902 58.7663 65.517 60.6129C64.1676 62.4595 63.4929 64.5547 63.4929 66.8984C63.4219 68.8516 63.8303 70.5561 64.718 72.0121C65.6413 73.468 66.902 74.7287 68.5 75.794C70.098 76.8239 71.9446 77.7294 74.0398 78.5107C76.1349 79.2564 78.3722 79.8956 80.7514 80.4283L90.5526 82.772C95.3111 83.8374 99.679 85.2578 103.656 87.0334C107.634 88.8089 111.078 90.9929 113.99 93.5852C116.902 96.1776 119.157 99.2315 120.755 102.747C122.388 106.263 123.223 110.293 123.259 114.839C123.223 121.515 121.518 127.303 118.145 132.204C114.807 137.069 109.977 140.851 103.656 143.55C97.3707 146.213 89.7891 147.545 80.9112 147.545C72.1044 147.545 64.4339 146.195 57.8999 143.496C51.4013 140.798 46.3232 136.803 42.6655 131.511C39.0433 126.185 37.1435 119.597 36.9659 111.749H59.2848C59.5334 115.407 60.581 118.461 62.4276 120.911C64.3097 123.326 66.8132 125.155 69.9382 126.398C73.0987 127.605 76.6676 128.209 80.6449 128.209C84.5511 128.209 87.9425 127.641 90.8189 126.504C93.7308 125.368 95.9858 123.788 97.5838 121.763C99.1818 119.739 99.9808 117.413 99.9808 114.786C99.9808 112.335 99.2528 110.276 97.7969 108.607C96.3764 106.937 94.2813 105.517 91.5114 104.345C88.777 103.173 85.4212 102.108 81.4439 101.149L69.5653 98.1662C60.3679 95.929 53.1058 92.4311 47.7791 87.6726C42.4524 82.9141 39.8068 76.5043 39.8423 68.4432C39.8068 61.8381 41.5646 56.0675 45.1158 51.1314C48.7024 46.1953 53.6207 42.3423 59.8707 39.5724C66.1207 36.8026 73.223 35.4176 81.1776 35.4176C89.2741 35.4176 96.3409 36.8026 102.378 39.5724C108.45 42.3423 113.173 46.1953 116.547 51.1314C119.92 56.0675 121.661 61.7848 121.767 68.2834H99.6612Z" fill="white"/>
</g>
<defs>
<filter id="filter0_d_475_4" x="32.9658" y="35.4177" width="94.2927" height="120.127" filterUnits="userSpaceOnUse" color-interpolation-filters="sRGB">
<feFlood flood-opacity="0" result="BackgroundImageFix"/>
<feColorMatrix in="SourceAlpha" type="matrix" values="0 0 0 0 0 0 0 0 0 0 0 0 0 0 0 0 0 0 127 0" result="hardAlpha"/>
<feOffset dy="4"/>
<feGaussianBlur stdDeviation="2"/>
<feComposite in2="hardAlpha" operator="out"/>
<feColorMatrix type="matrix" values="0 0 0 0 0 0 0 0 0 0 0 0 0 0 0 0 0 0 0.25 0"/>
<feBlend mode="normal" in2="BackgroundImageFix" result="effect1_dropShadow_475_4"/>
<feBlend mode="normal" in="SourceGraphic" in2="effect1_dropShadow_475_4" result="shape"/>
</filter>
</defs>
</svg>
