<svg width="144" height="147" viewBox="0 0 144 147" fill="none" xmlns="http://www.w3.org/2000/svg">
<g clip-path="url(#clip0_339_86)">
<path d="M84.6729 38.5681C96.6896 45.8762 150.911 78.5058 127.486 74.5649C124.876 74.1259 119.953 73.3826 113.499 72.4302C81.566 67.718 12.1529 57.8841 -0.0100434 54.4169C-6.17198 52.6603 -14.1723 46.5589 -21.7084 39.733C-32.0536 30.3627 -41.5238 19.6274 -44.1626 16.8932C-48.7236 12.1674 72.6551 31.2596 84.6729 38.5681Z" fill="#0037FF"/>
<path d="M113.499 72.4302C119.953 73.3826 124.876 74.1259 127.486 74.5649C150.911 78.5058 96.6896 45.8762 84.6729 38.5681C72.6551 31.2596 -48.7236 12.1674 -44.1626 16.8932C-39.6015 21.6192 -14.6308 50.2491 -0.0100434 54.4169C12.1529 57.8841 81.566 67.718 113.499 72.4302ZM113.499 72.4302C107.824 104.717 100.292 108.665 76.8131 83.1761M7.90257 57.5662C2.22726 89.8525 -8.22701 96.0096 -28.4512 64.8974M76.9359 67.4428L62.1916 122.469L53.7245 154.069M-21.7084 39.733L-49.7648 144.441M-25.1243 180.824L-59.2473 131.973M85.6329 189.48L39.3195 142.618M5.45826 68.7281L107.966 84.3781" stroke="#0037FF" stroke-width="6"/>
</g>
<defs>
<clipPath id="clip0_339_86">
<rect width="193.675" height="172.595" fill="white" transform="translate(-43.3291) rotate(15)"/>
</clipPath>
</defs>
</svg>
